<svg xmlns="http://www.w3.org/2000/svg" version="1.0" viewBox="0 0 1200 630"><g fill="#FFF" stroke-width="0"><path d="M0 315v315h1200V0H0zm216-54.4v26.6l3.1-2.7c8.9-7.4 20.4-10.9 34.8-10.3 13.7.5 20.4 3.3 28.6 11.9 6.2 6.5 9.5 12.8 12.6 24.5 2.9 10.6 3.2 34.6.6 44.4-5.9 22-18.4 34.9-38.4 39.6-13.5 3.2-39.2.5-52.8-5.5l-4.5-2V234h16zm693-1.1V276h21v26h-21.1l.3 31.5.3 31.5 2.8 2.7c2.6 2.6 3.3 2.8 10.2 2.6l7.5-.2V382c0 7.5-.4 12.1-1.1 12.6-.6.3-7.7.9-15.8 1.2-11.8.4-15.7.2-20.4-1.2-6.9-2-12.3-6.5-15.1-12.6-2-4.4-2.1-6.1-2.4-63.1l-.3-58.7 16.3-8.6c9-4.7 16.6-8.5 17.1-8.6.4 0 .7 7.4.7 16.5m71 0V276h20v26h-20v31.1c0 20.3.4 31.7 1.1 33.1 1.7 3.2 7.1 4.9 13.4 4.2l5.5-.7v25l-6.7.6c-11.5 1.1-25.7.8-30.7-.7-9.7-2.9-14.7-9.1-16.6-20.7-.6-3.8-1-27.9-1-60v-53.5l16.3-8.6c8.9-4.7 16.8-8.7 17.5-8.7.9-.1 1.2 3.8 1.2 16.4m-130.1 16.4c5.2 1.1 9.8 2.4 10.4 3 1 1-3 25.1-4.2 25.1-.4 0-4.3-.9-8.6-2-10.3-2.6-23.4-2.7-29.1-.1-5.8 2.6-11 8.4-13.4 14.9-2.7 7.2-3.7 20.2-2.1 28.3 4.4 22 19.2 29.1 46.1 22 4.1-1.1 7.5-1.9 7.6-1.8.3.6 4.4 22.4 4.4 23.8 0 3.6-21.2 7.3-38.5 6.6-19.4-.7-32-5.8-41.9-16.8-10.6-11.8-15.1-26.6-14.3-47.4.7-19.3 4.6-30.1 14.6-40.9 8.5-9 19.2-14.5 32.3-16.5 8.7-1.4 25.4-.5 36.7 1.8m-462.6 1.4c9 4.1 13.2 8 16.9 15.5l3.3 6.7.3 47.2.3 47.3h-15l-.6-5.8c-1-8.7-.9-8.7-6.5-4.3-11.2 8.9-23.8 12.7-38.9 11.9-19.7-1.2-31.3-11.8-31.4-28.8-.1-14.5 6.4-24 21.6-31.5 10.7-5.3 20.4-7.9 37.2-10.1 6.6-.9 13-1.8 14.3-2 2.1-.4 2.2-.9 2.2-9.2 0-11.5-1.3-15.8-6.4-20.8-9.1-9.1-25-9.7-49.6-1.8-4.1 1.3-8 2.4-8.6 2.4s-1.6-1.9-2.3-4.3c-.7-2.3-1.4-4.9-1.7-5.8-.3-1.2 1.6-2.2 8.7-4.3 15.6-4.7 21.4-5.5 36.4-5.3 12.8.2 14.5.5 19.8 3m122.8-.6c9.1 4.1 14.9 12.5 16.9 24.5.5 3.6 1 24.7 1 49.5V394h-17v-42.8c0-34.1-.3-43.8-1.4-47.6-3.3-10.8-10.9-16-23.5-15.9-9.7 0-18.5 3.2-29.2 10.5l-7.9 5.3V394h-16V275h15v3.4c0 1.8.3 5.4.6 7.9l.7 4.6 5.1-3.9c6.1-4.5 14.1-8.7 21.6-11.2 7.9-2.6 27.5-2.1 34.1.9m117.7-.2c4.2 1.1 7.2 2.4 7.2 3.1 0 3-2.2 11.4-3 11.4-.5 0-4.8-.9-9.7-2.1-12.2-2.9-25.4-2.4-33.4 1.3-14.7 6.8-22.1 21.7-22.1 44.8.1 23 7.4 37.7 22.4 44.6 5.8 2.6 7.2 2.9 17.3 2.8 9.8 0 17.9-1.3 24.9-4 1.1-.4 1.7.9 2.6 5.1.6 3.1 1 6.2.7 6.9s-4.3 2.1-8.8 3.2c-12.3 2.8-34.1 2.6-42.3-.4-16.9-6.2-27.2-18.1-32.3-37.2-2.4-9.1-2.4-33 0-42 5.5-20.6 17.4-33.3 35.9-38.5 7.5-2.1 30.8-1.5 40.6 1m85.1-.6c16.3 5.1 27.4 17.6 32.7 37.1 2.6 9.2 2.6 33.9.1 43-7.2 26.6-23.9 40-49.7 40-30.8 0-49.5-20.1-51.7-55.6-1.4-23.2 5.4-44 18.3-55.3 5.7-5 8.8-6.8 16.4-9.2 7.9-2.6 25.7-2.6 33.9 0"/><path d="M237.4 288.4c-6.6 1.5-13 4.4-18.1 8.3l-3.3 2.4v78.8l5.6 2.1c13.1 4.8 28.2 4.7 38.3-.5 5.1-2.5 11.9-9.4 14.6-14.4 3.4-6.7 5.5-18 5.5-30 0-18.1-3.5-29.4-11.5-38-7.7-8.3-19-11.4-31.1-8.7m135.3 48.2c-24.9 4.5-40.7 15.3-40.7 27.9 0 3.6 2.7 9.5 5.8 12.8 9.2 9.6 33.5 6.4 48.5-6.4l4.7-4.1V335l-5.2.1c-2.9 0-8.8.7-13.1 1.5m313.6-49.2c-16.3 5.3-24.4 20.8-24.4 47.1-.1 18.9 3.4 30.6 11.6 39.4 6.2 6.6 12.8 9.4 22.5 9.5 6.6.1 8.4-.3 14.3-3.2 13.7-6.8 19.9-20.8 20-45.2.1-30.8-11.2-47.6-32.6-48.6-4.3-.2-8.9.2-11.4 1"/></g><path d="M200 310.1v76l4.8 2.1c12.9 5.8 37.6 8.5 51.4 5.8 19.1-3.7 32.8-17.3 38.5-38.1 2.5-9 2.5-33.4 0-43.9-3.7-15.8-12.2-28-23.1-33.3-7.9-3.9-18.5-5.3-27.7-3.8-8.2 1.3-18.1 5.5-23.9 10.1-2.1 1.6-4.1 3-4.4 3s-.6-12.2-.6-27v-27h-15zm60.7-20.3c13 6.8 20.3 23.1 20.3 45.7 0 23.1-7.5 38.6-21.9 45.4-10 4.7-30.8 3.9-41.3-1.5l-2.8-1.5v-39.4c0-44-.6-40.3 7.6-45.1 8.1-4.8 15-6.4 24.9-6.1 6.9.3 10 .8 13.2 2.5m91.8-14.4c-8.6 1.4-27.5 6.3-28.7 7.4-.4.4-.1 3 .8 5.8l1.4 5 8.7-2.8c24-7.9 41.2-7.2 50.6 2 4.8 4.7 6.7 11 6.7 22.3v8.8l-5.7.6c-39.7 4.3-60.4 13.3-67.4 29-4.1 9.2-3.3 21.4 1.8 28.8 5.8 8.4 16.1 12.7 30.3 12.7s24.4-3.6 35.2-12.4l5.6-4.5.6 3.1c.3 1.7.6 4.3.6 5.8 0 5.5.7 6 7.6 6h6.5l-.3-46.8-.3-46.7-2.4-5.3c-3.5-7.7-11.5-14.6-19.8-17.2-8.6-2.6-21.6-3.3-31.8-1.6m39.5 75v16.3l-4.4 4.1c-5.8 5.4-15.2 10-24 11.9-16.7 3.5-29.4-2.6-32.1-15.4-1.8-8.8 5.2-18.4 18-24.3 10.5-4.9 26.2-8.6 37.8-8.9l4.7-.1zm91-75.4c-10.1 1.8-18.8 5.8-28.7 13.1-2.9 2.2-5.4 3.9-5.6 3.9-.3 0-.8-3.6-1.1-8l-.7-8H433v117h15v-89.9l8.5-5.6c11.1-7.4 19.7-10.5 29.5-10.5 12 0 19.2 4.3 23.8 14 1.5 3.1 1.7 9.1 2 47.7l.3 44.3h15l-.3-47.3c-.4-53.1-.3-52.5-8-61.2-4.8-5.5-9.3-7.9-17.3-9.4-6.6-1.2-11.8-1.2-18.5-.1m108.4.4c-10.9 2.1-19.1 6.5-26.2 14-10.2 10.9-14.1 21.8-14.9 41.7-1.5 34 12.3 56.4 38.3 62.5 8.9 2 28.9 1.5 38.8-1.1l6.8-1.8-.7-5c-.3-2.8-.8-5.4-1.1-5.8-.2-.4-3.9.2-8.1 1.3-11.1 3-25.8 2.9-33.5-.1-15.9-6.2-23.6-19.6-24.6-42.7-.8-19.5 3.2-32.9 12.6-42.3 8.9-8.9 24.4-12.2 40.7-8.6 12.8 2.8 12.8 2.8 13.8-2.8.5-2.6.7-5.1.4-5.4-.4-.3-4.1-1.4-8.4-2.4-10.6-2.6-25-3.2-33.9-1.5m93.6-.3c-18 3-31.9 17-37.7 38-2.5 9-2.5 34.7.1 43.9 4 14.6 13.3 27.3 23.9 32.7 7.8 3.9 14.2 5.3 24.7 5.3 5.2 0 11.8-.6 14.5-1.4 16.9-4.5 28.9-17.3 34.2-36.7 1.4-5 1.8-10.1 1.8-22.9-.1-15.2-.3-17.2-2.8-24.6-8.8-26.4-30.2-39-58.7-34.3m25.6 13.4c13.6 6.6 20.4 22.1 20.4 45.9-.1 24.2-6.2 38.9-19.1 46.1-5 2.8-6.1 3-15.9 3s-10.9-.2-15.8-3c-6.5-3.5-9.6-7.1-13.4-15.1-3.9-8.4-5.8-18-5.8-30.6 0-27.4 9.8-45.1 27.1-48.8 7-1.4 16.6-.4 22.5 2.5"/><path fill="#404040" d="M215.4 261c0 15.1.2 21.3.3 13.7.2-7.5.2-19.9 0-27.5-.1-7.5-.3-1.3-.3 13.8m142.4 13.7c.7.3 1.6.2 1.9-.1.4-.3-.2-.6-1.3-.5-1.1 0-1.4.3-.6.6m15 0c.7.3 1.6.2 1.9-.1.4-.3-.2-.6-1.3-.5-1.1 0-1.4.3-.6.6m74.3 6.9c0 1.1.3 1.4.6.6.3-.7.2-1.6-.1-1.9-.3-.4-.6.2-.5 1.3m70.4 1.4c1 1.1 2 2 2.3 2s-.3-.9-1.3-2-2-2-2.3-2 .3.9 1.3 2m-122.5-.7c0 .2 1.5 1.6 3.3 3.3l3.2 2.9-2.9-3.3c-2.8-3-3.6-3.7-3.6-2.9m-114 3.2c1.3 1.4 2.6 2.5 2.8 2.5.3 0-.5-1.1-1.8-2.5s-2.6-2.5-2.8-2.5c-.3 0 .5 1.1 1.8 2.5m77.8.2c.6.2 1.8.2 2.5 0 .6-.3.1-.5-1.3-.5s-1.9.2-1.2.5m7 0c.6.2 1.8.2 2.5 0 .6-.3.1-.5-1.3-.5s-1.9.2-1.2.5m199.6 2.5-2.9 3.3 3.3-2.9c3-2.8 3.7-3.6 2.9-3.6-.2 0-1.6 1.5-3.3 3.2m127.4-2.5c.7.3 1.6.2 1.9-.1.4-.3-.2-.6-1.3-.5-1.1 0-1.4.3-.6.6m5 0c.6.2 1.8.2 2.5 0 .6-.3.1-.5-1.3-.5s-1.9.2-1.2.5m-85 1c.7.3 1.6.2 1.9-.1.4-.3-.2-.6-1.3-.5-1.1 0-1.4.3-.6.6m18.7 3.3c-.3.5-.1 1 .4 1 .6 0 1.1-.5 1.1-1 0-.6-.2-1-.4-1-.3 0-.8.4-1.1 1m-53.1 6.2-2.9 3.3 3.3-2.9c1.7-1.7 3.2-3.1 3.2-3.3 0-.8-.8-.1-3.6 2.9M267 294.4c0 .2.8 1 1.8 1.7 1.5 1.3 1.6 1.2.3-.4s-2.1-2.1-2.1-1.3m-51.8 43.8c-.1 21.8.1 39.9.6 40.1.6.5.6-30.3-.1-65.8-.1-7.7-.4 3.9-.5 25.7m233.3-35c-.3.7-.4 21.3-.3 45.8l.3 44.5.5-45.8c.3-25.1.4-45.7.2-45.7-.1 0-.5.6-.7 1.2m62.6 6.4c0 1.1.3 1.4.6.6.3-.7.2-1.6-.1-1.9-.3-.4-.6.2-.5 1.3m150 14c0 1.1.3 1.4.6.6.3-.7.2-1.6-.1-1.9-.3-.4-.6.2-.5 1.3m-276.3 1.1c.7.3 1.6.2 1.9-.1.4-.3-.2-.6-1.3-.5-1.1 0-1.4.3-.6.6M747.2 335c0 1.9.2 2.7.5 1.7.2-.9.2-2.5 0-3.5-.3-.9-.5-.1-.5 1.8m-416 29.5c0 1.6.2 2.2.5 1.2.2-.9.2-2.3 0-3-.3-.6-.5.1-.5 1.8m-63.3 10.2c-1.3 1.6-1.2 1.7.4.4s2.1-2.1 1.3-2.1c-.2 0-1 .8-1.7 1.7m405.1.8c1.3 1.4 2.6 2.5 2.8 2.5.3 0-.5-1.1-1.8-2.5s-2.6-2.5-2.8-2.5c-.3 0 .5 1.1 1.8 2.5m44.9.2-2.4 2.8 2.8-2.4c1.5-1.4 2.7-2.6 2.7-2.8 0-.8-.8-.1-3.1 2.4M564 380.4c0 .2.8 1 1.8 1.7 1.5 1.3 1.6 1.2.3-.4s-2.1-2.1-2.1-1.3m-211.2 3.3c1.2.2 3.2.2 4.5 0 1.2-.2.2-.4-2.3-.4s-3.5.2-2.2.4m250.5 0c1.5.2 3.9.2 5.5 0 1.5-.2.2-.4-2.8-.4s-4.3.2-2.7.4m-363.5 12c1.8.2 4.5.2 6 0s0-.4-3.3-.4-4.5.2-2.7.4m108.5 0c1.5.2 3.7.2 5 0 1.2-.2 0-.4-2.8-.4-2.7 0-3.8.2-2.2.4m253.5 0c1.8.2 4.5.2 6 0s0-.4-3.3-.4-4.5.2-2.7.4m91.5 0c1.5.2 3.9.2 5.5 0 1.5-.2.2-.4-2.8-.4s-4.3.2-2.7.4"/><path fill="#BF80BF" d="M945.5 315.5c0 30.2.1 42.8.2 27.8.2-14.9.2-39.7 0-55-.1-15.3-.2-3.1-.2 27.2m-125.7-41.8c.6.2 1.8.2 2.5 0 .6-.3.1-.5-1.3-.5s-1.9.2-1.2.5m10 0c.6.2 1.8.2 2.5 0 .6-.3.1-.5-1.3-.5s-1.9.2-1.2.5m-1 26c1.2.2 3.2.2 4.5 0 1.2-.2.2-.4-2.3-.4s-3.5.2-2.2.4m95 71c.7.3 1.6.2 1.9-.1.4-.3-.2-.6-1.3-.5-1.1 0-1.4.3-.6.6"/><path fill="#BF4040" d="M875.5 315c0 30 .1 42.2.2 27.2.2-14.9.2-39.5 0-54.5-.1-14.9-.2-2.7-.2 27.3m53.9-26.5c0 7.1.1 9.9.3 6.2s.2-9.6 0-13-.3-.4-.3 6.8m-147.5 1.2-2.4 2.8 2.8-2.4c2.5-2.3 3.2-3.1 2.4-3.1-.2 0-1.4 1.2-2.8 2.7m28 17c-1.3 1.6-1.2 1.7.4.4.9-.7 1.7-1.5 1.7-1.7 0-.8-.8-.3-2.1 1.3M766.3 335c0 4.1.2 5.8.4 3.7.2-2 .2-5.4 0-7.5-.2-2-.4-.3-.4 3.8m34.8-4.4c0 1.1.3 1.4.6.6.3-.7.2-1.6-.1-1.9-.3-.4-.6.2-.5 1.3m.1 8.4c0 1.4.2 1.9.5 1.2.2-.6.2-1.8 0-2.5-.3-.6-.5-.1-.5 1.3m27.6 31.7c1.2.2 3 .2 4 0 .9-.3-.1-.5-2.3-.4-2.2 0-3 .2-1.7.4m100 7.5c.5 15 .8 16.5 1 4 .1-6.7-.1-12.2-.5-12.2-.5 0-.7 3.7-.5 8.2m-108.5 17.5c.9.2 2.3.2 3 0 .6-.3-.1-.5-1.8-.5-1.6 0-2.2.2-1.2.5m9 0c.9.2 2.3.2 3 0 .6-.3-.1-.5-1.8-.5-1.6 0-2.2.2-1.2.5m71.5 0c.6.2 1.8.2 2.5 0 .6-.3.1-.5-1.3-.5s-1.9.2-1.2.5m8 0c1.2.2 3 .2 4 0 .9-.3-.1-.5-2.3-.4-2.2 0-3 .2-1.7.4m62 0c.6.2 1.8.2 2.5 0 .6-.3.1-.5-1.3-.5s-1.9.2-1.2.5m8.5 0c.9.2 2.5.2 3.5 0 .9-.3.1-.5-1.8-.5s-2.7.2-1.7.5"/><path fill="#BFBFBF" d="M435 275.6c6 .8 13 .8 13 .1 0-.4-3.5-.6-7.7-.6-4.3.1-6.7.3-5.3.5m82 5.8c0 .2.8 1 1.8 1.7 1.5 1.3 1.6 1.2.3-.4s-2.1-2.1-2.1-1.3m209 1c0 .2.8 1 1.8 1.7 1.5 1.3 1.6 1.2.3-.4s-2.1-2.1-2.1-1.3M398.5 285c1 1.1 2 2 2.3 2s-.3-.9-1.3-2-2-2-2.3-2 .3.9 1.3 2m165.9 3.2-1.9 2.3 2.3-1.9c2.1-1.8 2.7-2.6 1.9-2.6-.2 0-1.2 1-2.3 2.2m40.9-1.5c.9.2 2.3.2 3 0 .6-.3-.1-.5-1.8-.5-1.6 0-2.2.2-1.2.5m51.6 4c-1.3 1.6-1.2 1.7.4.4.9-.7 1.7-1.5 1.7-1.7 0-.8-.8-.3-2.1 1.3M384.5 293c1 1.1 2 2 2.3 2s-.3-.9-1.3-2-2-2-2.3-2 .3.9 1.3 2m-119.5.3c0 .2 1.5 1.6 3.3 3.3l3.2 2.9-2.9-3.3c-2.8-3-3.6-3.7-3.6-2.9m262.1 13.3c0 1.1.3 1.4.6.6.3-.7.2-1.6-.1-1.9-.3-.4-.6.2-.5 1.3m220 19c0 1.1.3 1.4.6.6.3-.7.2-1.6-.1-1.9-.3-.4-.6.2-.5 1.3m-449.9 1.9c0 1.6.2 2.2.5 1.2.2-.9.2-2.3 0-3-.3-.6-.5.1-.5 1.8m252-.5c0 1.4.2 1.9.5 1.2.2-.6.2-1.8 0-2.5-.3-.6-.5-.1-.5 1.3m95 0c0 1.4.2 1.9.5 1.2.2-.6.2-1.8 0-2.5-.3-.6-.5-.1-.5 1.3m85.9.6c0 1.1.3 1.4.6.6.3-.7.2-1.6-.1-1.9-.3-.4-.6.2-.5 1.3m-163.9 2.9c0 1.6.2 2.2.5 1.2.2-.9.2-2.3 0-3-.3-.6-.5.1-.5 1.8m95 0c0 1.6.2 2.2.5 1.2.2-.9.2-2.3 0-3-.3-.6-.5.1-.5 1.8m-380.9 5c0 3.3.2 4.5.4 2.7s.2-4.5 0-6-.4 0-.4 3.3m107.5-.8c.6.2 1.8.2 2.5 0 .6-.3.1-.5-1.3-.5s-1.9.2-1.2.5m273.4 4.3c0 1.9.2 2.7.5 1.7.2-.9.2-2.5 0-3.5-.3-.9-.5-.1-.5 1.8m-95 .5c0 1.6.2 2.2.5 1.2.2-.9.2-2.3 0-3-.3-.6-.5.1-.5 1.8m-269 1.5c0 1.4.2 1.9.5 1.2.2-.6.2-1.8 0-2.5-.3-.6-.5-.1-.5 1.3m29.7.7c-1.3 1.6-1.2 1.7.4.4s2.1-2.1 1.3-2.1c-.2 0-1 .8-1.7 1.7m403.3.3c0 1.4.2 1.9.5 1.2.2-.6.2-1.8 0-2.5-.3-.6-.5-.1-.5 1.3m-181.1.6c0 1.1.3 1.4.6.6.3-.7.2-1.6-.1-1.9-.3-.4-.6.2-.5 1.3m95 0c0 1.1.3 1.4.6.6.3-.7.2-1.6-.1-1.9-.3-.4-.6.2-.5 1.3m103 2c0 1.1.3 1.4.6.6.3-.7.2-1.6-.1-1.9-.3-.4-.6.2-.5 1.3m-425.2 2.1c-1.3 1.6-1.2 1.7.4.4s2.1-2.1 1.3-2.1c-.2 0-1 .8-1.7 1.7m15.5 4.5-1.9 2.3 2.3-1.9c2.1-1.8 2.7-2.6 1.9-2.6-.2 0-1.2 1-2.3 2.2m-22.2 15.3c0 1.6.2 2.2.5 1.2.2-.9.2-2.3 0-3-.3-.6-.5.1-.5 1.8m73.7 2.2c-1.3 1.6-1.2 1.7.4.4s2.1-2.1 1.3-2.1c-.2 0-1 .8-1.7 1.7m187.1 1.6c0 .2 1.5 1.6 3.3 3.3l3.2 2.9-2.9-3.3c-2.8-3-3.6-3.7-3.6-2.9m-308.6 3.9-2.9 3.3 3.3-2.9c1.7-1.7 3.2-3.1 3.2-3.3 0-.8-.8-.1-3.6 2.9m403.6-1.9c0 .2 1.5 1.6 3.3 3.3l3.2 2.9-2.9-3.3c-2.8-3-3.6-3.7-3.6-2.9M336.5 377c1 1.1 2 2 2.3 2s-.3-.9-1.3-2-2-2-2.3-2 .3.9 1.3 2m441.5-.6c0 .2.8 1 1.8 1.7 1.5 1.3 1.6 1.2.3-.4s-2.1-2.1-2.1-1.3m-497.1 5.3-3.4 3.8 3.8-3.4c2-1.9 3.7-3.6 3.7-3.8 0-.8-.8 0-4.1 3.4m379.1.8c1.9 1.9 3.6 3.5 3.9 3.5s-1-1.6-2.9-3.5-3.6-3.5-3.9-3.5 1 1.6 2.9 3.5m70.9.2-3.4 3.8 3.8-3.4c3.4-3.3 4.2-4.1 3.4-4.1-.2 0-1.9 1.7-3.8 3.7m-343.5-.5-1.9 2.3 2.3-1.9c1.2-1.1 2.2-2.1 2.2-2.3 0-.8-.8-.2-2.6 1.9m396.6.2c0 .2.8 1 1.8 1.7 1.5 1.3 1.6 1.2.3-.4s-2.1-2.1-2.1-1.3m-548.2 1.3c.7.3 1.6.2 1.9-.1.4-.3-.2-.6-1.3-.5-1.1 0-1.4.3-.6.6m84.2-.4c0 .2 1.5 1.6 3.3 3.3l3.2 2.9-2.9-3.3c-2.8-3-3.6-3.7-3.6-2.9m632 5.2c1.3 1.4 2.6 2.5 2.8 2.5.3 0-.5-1.1-1.8-2.5s-2.6-2.5-2.8-2.5c-.3 0 .5 1.1 1.8 2.5m-721.2 7.2c.7.3 1.6.2 1.9-.1.4-.3-.2-.6-1.3-.5-1.1 0-1.4.3-.6.6"/><path fill="#BF4080" d="m979 259.8.5 16.7.3-15.9c.1-8.8-.1-16.3-.5-16.7-.5-.5-.6 6.7-.3 15.9m-154.2 13.9c.6.2 1.8.2 2.5 0 .6-.3.1-.5-1.3-.5s-1.9.2-1.2.5m11 26c.7.3 1.6.2 1.9-.1.4-.3-.2-.6-1.3-.5-1.1 0-1.4.3-.6.6m78 2c2.8.2 7.6.2 10.5 0 2.8-.2.5-.3-5.3-.3s-8.1.1-5.2.3m65.7.6c-.3.7-.4 14.7-.2 31.2l.2 30 .3-30.7.2-30.7 10.3-.4 10.2-.3-10.3-.2c-7.5-.1-10.4.1-10.7 1.1m-213.4 24.3c0 1.1.3 1.4.6.6.3-.7.2-1.6-.1-1.9-.3-.4-.6.2-.5 1.3m35.1 7.9c0 1.6.2 2.2.5 1.2.2-.9.2-2.3 0-3-.3-.6-.5.1-.5 1.8m32.6 61.2c.7.3 1.6.2 1.9-.1.4-.3-.2-.6-1.3-.5-1.1 0-1.4.3-.6.6m81 0c.7.3 1.6.2 1.9-.1.4-.3-.2-.6-1.3-.5-1.1 0-1.4.3-.6.6m70 0c.7.3 1.6.2 1.9-.1.4-.3-.2-.6-1.3-.5-1.1 0-1.4.3-.6.6"/><path fill="#BF0000" d="m891.8 252.3-15.8 8.2v56.6c0 61.6.1 63.4 5.7 69.9 2.9 3.5 8 6.4 13.3 7.5 4.1.9 21.2.8 28.8-.1l5.2-.6V371h-6.5c-7.5 0-10.8-1.3-12.4-4.7-.7-1.6-1.1-12.9-1.1-33.8V301h20v-25h-20v-16c0-8.8-.3-16-.7-16-.5 0-7.9 3.8-16.5 8.3m70.2 0-15.5 8.2v116l2.8 5.8c3 6.1 7.4 9.8 13.8 11.8 3.8 1.1 23.5 1.3 31.7.3l5.2-.6v-23.3l-7.4.3c-6.6.3-7.6.1-10.2-2.1l-2.9-2.5-.3-32.6-.3-32.6h21.1v-25h-21v-16c0-8.8-.3-16-.7-15.9-.5 0-7.8 3.7-16.3 8.2m-152.5 23.3c-21.3 4.7-36 19.4-41.1 41-2.5 10.8-1.5 33.6 1.8 42.6 7 18.8 18.2 29.1 36.5 33.9 13.1 3.4 32.9 2.6 50-2l4-1.1-2.3-11.7c-1.3-6.4-2.5-11.7-2.7-11.9-.1-.1-3.6.7-7.7 1.8-9.5 2.5-24 2.8-29.1.6-13-5.6-19.8-22.4-17.1-41.7 2-14.3 8.2-23.3 18.2-26.6 6.3-2.1 19.7-1.6 29.4 1 3.2.9 6.1 1.4 6.3 1.1.3-.3 1.6-5.7 2.8-11.9l2.1-11.5-9.5-2.2c-12.7-2.9-31.9-3.6-41.6-1.4"/><path fill="gray" d="M593.8 274.7c.7.3 1.6.2 1.9-.1.4-.3-.2-.6-1.3-.5-1.1 0-1.4.3-.6.6m20 0c.7.3 1.6.2 1.9-.1.4-.3-.2-.6-1.3-.5-1.1 0-1.4.3-.6.6m-166.7 3.9c0 1.1.3 1.4.6.6.3-.7.2-1.6-.1-1.9-.3-.4-.6.2-.5 1.3m-230.2 8.1c-1.3 1.6-1.2 1.7.4.4.9-.7 1.7-1.5 1.7-1.7 0-.8-.8-.3-2.1 1.3m145.9-1c.7.3 1.6.2 1.9-.1.4-.3-.2-.6-1.3-.5-1.1 0-1.4.3-.6.6m297.6 1.5-1.9 2.3 2.3-1.9c2.1-1.8 2.7-2.6 1.9-2.6-.2 0-1.2 1-2.3 2.2m70.6.3c1.3 1.4 2.6 2.5 2.8 2.5.3 0-.5-1.1-1.8-2.5s-2.6-2.5-2.8-2.5c-.3 0 .5 1.1 1.8 2.5m-130.2-.8c.6.2 1.8.2 2.5 0 .6-.3.1-.5-1.3-.5s-1.9.2-1.2.5m9 0c.7.3 1.6.2 1.9-.1.4-.3-.2-.6-1.3-.5-1.1 0-1.4.3-.6.6m-161.7 1.9c0 1.1.3 1.4.6.6.3-.7.2-1.6-.1-1.9-.3-.4-.6.2-.5 1.3m54.9 3.8c0 .2.8 1 1.8 1.7 1.5 1.3 1.6 1.2.3-.4s-2.1-2.1-2.1-1.3m215 2.1c1.3 1.4 2.6 2.5 2.8 2.5.3 0-.5-1.1-1.8-2.5s-2.6-2.5-2.8-2.5c-.3 0 .5 1.1 1.8 2.5m-45.1.2c-1.3 1.6-1.2 1.7.4.4.9-.7 1.7-1.5 1.7-1.7 0-.8-.8-.3-2.1 1.3m-265.7 54-.2 44.2-6.7.4-6.8.3 6.8.2c4.6.1 6.9-.2 7.2-1.1.3-.6.4-20.8.3-44.7l-.3-43.5zm-15.8-34.2c0 4.9.1 7.1.3 4.8s.2-6.4 0-9-.3-.8-.3 4.2m135.8 35.7L527 393h-15l-.3-41-.2-41v82.5l7.8.3c5.6.2 7.9-.1 8.2-1 .3-.7.4-20.2.2-43.3l-.2-42zm202.9-25.6c0 1.1.3 1.4.6.6.3-.7.2-1.6-.1-1.9-.3-.4-.6.2-.5 1.3m-348.3.1c.7.3 1.6.2 1.9-.1.4-.3-.2-.6-1.3-.5-1.1 0-1.4.3-.6.6m184.3 1.9c0 1.1.3 1.4.6.6.3-.7.2-1.6-.1-1.9-.3-.4-.6.2-.5 1.3m95 0c0 1.1.3 1.4.6.6.3-.7.2-1.6-.1-1.9-.3-.4-.6.2-.5 1.3M280.2 328c0 1.4.2 1.9.5 1.2.2-.6.2-1.8 0-2.5-.3-.6-.5-.1-.5 1.3m467 1.5c0 1.6.2 2.2.5 1.2.2-.9.2-2.3 0-3-.3-.6-.5.1-.5 1.8M549.3 335c0 3.6.2 5 .4 3.2.2-1.7.2-4.7 0-6.5-.2-1.7-.4-.3-.4 3.3m95 0c0 3.6.2 5 .4 3.2.2-1.7.2-4.7 0-6.5-.2-1.7-.4-.3-.4 3.3m-347-.5c0 2.7.2 3.8.4 2.2.2-1.5.2-3.7 0-5-.2-1.2-.4 0-.4 2.8m87.5.2c.7.3 1.6.2 1.9-.1.4-.3-.2-.6-1.3-.5-1.1 0-1.4.3-.6.6m6.6 15.8c0 9.3.2 13.3.3 8.8.2-4.5.2-12.2 0-17-.1-4.8-.3-1.2-.3 8.2m355.8-10c0 1.6.2 2.2.5 1.2.2-.9.2-2.3 0-3-.3-.6-.5.1-.5 1.8m-467 2.5c0 1.4.2 1.9.5 1.2.2-.6.2-1.8 0-2.5-.3-.6-.5-.1-.5 1.3m380.9.6c0 1.1.3 1.4.6.6.3-.7.2-1.6-.1-1.9-.3-.4-.6.2-.5 1.3m-269 42c0 1.1.3 1.4.6.6.3-.7.2-1.6-.1-1.9-.3-.4-.6.2-.5 1.3m44.7 8.1c2.3.2 6.1.2 8.5 0 2.3-.2.4-.4-4.3-.4s-6.6.2-4.2.4m-203 2c.6.2 1.8.2 2.5 0 .6-.3.1-.5-1.3-.5s-1.9.2-1.2.5m15 0c.7.3 1.6.2 1.9-.1.4-.3-.2-.6-1.3-.5-1.1 0-1.4.3-.6.6m95 0c.7.3 1.6.2 1.9-.1.4-.3-.2-.6-1.3-.5-1.1 0-1.4.3-.6.6m12 0c.7.3 1.6.2 1.9-.1.4-.3-.2-.6-1.3-.5-1.1 0-1.4.3-.6.6m241 0c.7.3 1.6.2 1.9-.1.4-.3-.2-.6-1.3-.5-1.1 0-1.4.3-.6.6m14 0c.7.3 1.6.2 1.9-.1.4-.3-.2-.6-1.3-.5-1.1 0-1.4.3-.6.6m78 0c.7.3 1.6.2 1.9-.1.4-.3-.2-.6-1.3-.5-1.1 0-1.4.3-.6.6m13 0c.7.3 1.6.2 1.9-.1.4-.3-.2-.6-1.3-.5-1.1 0-1.4.3-.6.6"/></svg>