<svg xmlns="http://www.w3.org/2000/svg" version="1.0" viewBox="0 0 333 142"><path fill="#BF8000" fill-opacity=".8" d="M141.1 3.6c0 1.1.3 1.4.6.6.3-.7.2-1.6-.1-1.9-.3-.4-.6.2-.5 1.3m.1 118.4c0 1.4.2 1.9.5 1.2.2-.6.2-1.8 0-2.5-.3-.6-.5-.1-.5 1.3m-.1 4.6c0 1.1.3 1.4.6.6.3-.7.2-1.6-.1-1.9-.3-.4-.6.2-.5 1.3"/><path fill="#BF8000" fill-opacity=".9" d="M.4 1.3C.2 2 .1 7.1.3 12.6l.3 9.9.2-10.7C1 2.6 1.2 1.1 2.8.7S4.4.2 2.7.1C1.7.1.7.6.4 1.3M48.2.7c17 .2 44.6.2 61.5 0 17-.1 3.1-.2-30.7-.2S31.3.6 48.2.7"/><path fill="#BFBF00" fill-opacity=".9" d="M10.3.7c.9.2 2.5.2 3.5 0 .9-.3.1-.5-1.8-.5s-2.7.2-1.7.5"/><path fill="#BF4000" fill-opacity=".9" d="M.4 33.5c0 6.6.1 9.2.3 5.7.2-3.4.2-8.8 0-12-.2-3.1-.3-.3-.3 6.3M.2 48c0 1.4.2 1.9.5 1.2.2-.6.2-1.8 0-2.5-.3-.6-.5-.1-.5 1.3m-.1 4.6c0 1.1.3 1.4.6.6.3-.7.2-1.6-.1-1.9-.3-.4-.6.2-.5 1.3M.3 59c0 2.5.2 3.5.4 2.2.2-1.2.2-3.2 0-4.5-.2-1.2-.4-.2-.4 2.3m.1 28.5c0 12.6.2 17.7.3 11.2.2-6.5.2-16.8 0-23-.1-6.2-.3-.9-.3 11.8m-.1 35c0 2.2.2 3 .4 1.7.2-1.2.2-3 0-4-.3-.9-.5.1-.4 2.3m.1 12 .1 7h118l-58.7-.2-58.7-.3-.4-6.8-.3-6.7zm130.1 6.5-11 .6 10.7.2c6.3.1 10.9-.2 11.3-.8.3-.6.5-.9.3-.8s-5.2.5-11.3.8"/><g fill="#BF8000" stroke-width="0"><path d="M1 11.7c0 9.5.2 10.5 1.4 8.7.8-1 1.8-1.6 2.2-1.1.4.4.2.7-.4.7-.7 0-1.2.7-1.2 1.5s.3 1.5.6 1.5c1.1 0 4.9-2.4 5.9-3.7.9-1.1 1.3-1.1 3 .2 1.1.9 1.5 1.4.8 1.1-2.6-1.3-6.6 2.5-4.1 4 .6.4.8.3.5-.3-.4-.7.7-1.2 2.8-1.5 2-.2 3.5 0 3.5.7 0 .5.7.1 1.5-.9 1.4-1.8 1.5-1.9 1.5-.2 0 1.3.5 1.6 1.8 1.1 2-.8 2.1-.8 4.5-.6 1.2.1 1.6.5 1.1 1.3-.6 1-.5 1 .8.1.8-.7 1.9-.9 2.3-.5.5.4.5.2.2-.5-.8-1.2 1.7-4.3 3.4-4.3.6 0 .3.7-.5 1.6-1.7 1.7-2.1 2.8-.7 2 .5-.3 3.3-.1 6.1.4 3.8.7 5.7.7 6.6-.1.8-.6 1.4-.8 1.4-.3s.7 0 1.5-1c1.3-1.7 1.5-1.8 1.5-.3 0 .9.5 1.7 1 1.7.6 0 1-.5 1-1.1s.9-.9 2-.6 2.3.1 2.6-.5c.3-.5 2-.6 3.6-.3 2.1.5 2.8.4 2.4-.4-.4-.6-.4-1.1.1-1.2.4 0 1.8-.2 3.1-.3 2.4-.3 3 .9 1 1.7q-1.5.6 0 .6c.7.1 1 .6.6 1.3s-.3.8.4.4 1.2-1.3 1.2-1.9c0-2.1 3.6-3.6 7.6-3.2 2.6.3 3.2.1 2-.4-1.9-.7-1.9-.8.3-1.4 1.2-.3 3.8-.3 5.7 0 2 .3 3.4.1 3.4-.5 0-.5.9-.8 2-.5s2 .9 2 1.4c0 1.3 4.4 1.1 6-.4 1.1-.9 1.1-.8 0 .7-1.4 1.9-1.3 1.9 3 1.3 2.5-.4 5.6-1 6.9-1.3 2.1-.6 2.3-.4 1.7 1.1-.6 1.8-.6 1.8 1.2.2 2.1-1.9 4.3-2.4 2.4-.5-2.3 2.3-1.2 3.1 1.3.8 1.9-1.8 2.3-2.9 1.8-4.9-.6-2.4-.5-2.5 1.1-.8.9.9 1.4 2.2 1 2.8-.4.7-.1 1 .7.7s2.2-.1 3.2.4c1.1.5 1.7.5 1.7-.2 0-.5-.4-1-1-1-1.4 0-1.2-1.3.6-3.6 1.5-1.8 1.5-1.8.9.3-.7 2.6.6 3 2.4.9.9-1.1.9-1.5-.1-1.8-2-.7 1-3.8 3.6-3.8l2.1.1-2.1 1.2c-1.8 1-1.9 1.4-.9 2.4 1 .9 1.5.7 2-1 1-2.7 1.2-3.8 1.4-5.5.1-1 .4-1 1.5 0 .8.7 1.2 1.6.9 2-.7 1.3 1.2.9 2.5-.4 1.7-1.7 1.5-2.8-.5-2.3-1 .3-.4-.1 1.2-.9 2.6-1.3-5.2-1.5-66.7-1.6H1zM17.5 20c-.3.5-1.2 1-1.8 1-.7 0-.6-.4.3-1 1.9-1.2 2.3-1.2 1.5 0m6.6.8c-1.3.2-2.7 0-3.2-.5-.6-.6.3-.7 2.3-.4 2.8.4 2.9.6.9.9M43 22c0 .5-.7.7-1.5.4-.8-.4-1.2-1-.9-1.5.6-1.1 2.4-.2 2.4 1.1"/><path d="M126 15.1c-.7 1.1-.9 2.3-.6 2.7.3.3.6 0 .6-.6s.7-1.8 1.6-2.6c.8-.9 1.1-1.6.5-1.6s-1.5.9-2.1 2.1m-45.7 2.4c0 .8.4 1.2.9.9.4-.3.8-.9.8-1.5 0-.5-.4-.9-.8-.9-.5 0-.9.7-.9 1.5m-23 4.2c-1.5.5-1.7 2.3-.4 2.3.5 0 1.1-.7 1.5-1.5.3-.8.4-1.5.3-1.4-.1 0-.8.3-1.4.6m-5.9 2.4c-1.9 2.2-1.9 2.2.4 1C53 24.5 54 23.5 54 23c0-1.5-.5-1.2-2.6 1.1m71.2 112.1c.5.7.1.9-1.3.6-1.2-.3-2.7-.2-3.4.3-1.1.7-1 .9.4.9 1 0 1.5.4 1.2 1-.3.5-.1 1 .4 1 .6 0 1.1-.5 1.1-1 0-.6 1.2-1 2.6-1 2.3 0 2.4-.2 1-1.5-1.7-1.8-3-2-2-.3"/></g><g fill="#BF4000" stroke-width="0"><path d="M137.5 2.6c-1.6.8-2.2 1.2-1.2.9 2-.5 2.2.6.5 2.3-1.3 1.3-3.2 1.7-2.5.4.3-.4-.1-1.3-.9-2-1.1-1-1.4-1-1.5 0-.2 1.7-.4 2.8-1.4 5.5-.5 1.7-1 1.9-2 1-1-1-.9-1.4.9-2.4l2.1-1.2-2.1-.1c-2.6 0-5.6 3.1-3.6 3.8 1 .3 1 .7.1 1.8-1.8 2.1-3.1 1.7-2.4-.9.6-2.1.6-2.1-.9-.3-1.8 2.3-2 3.6-.6 3.6.6 0 1 .5 1 1 0 .7-.6.7-1.7.2-1-.5-2.4-.7-3.2-.4s-1.1 0-.7-.7c.4-.6-.1-1.9-1-2.8-1.6-1.7-1.7-1.6-1.1.8.5 2 .1 3.1-1.8 4.9-2.5 2.3-3.6 1.5-1.3-.8 1.9-1.9-.3-1.4-2.4.5-1.8 1.6-1.8 1.6-1.2-.2.6-1.5.4-1.7-1.7-1.1-1.3.3-4.4.9-6.9 1.3-4.3.6-4.4.6-3-1.3 1.1-1.5 1.1-1.6 0-.7-1.6 1.5-6 1.7-6 .4 0-.5-.9-1.1-2-1.4s-2 0-2 .5c0 .6-1.4.8-3.4.5-1.9-.3-4.5-.3-5.7 0-2.2.6-2.2.7-.3 1.4 1.2.5.6.7-2 .4-4-.4-7.6 1.1-7.6 3.2 0 .6-.5 1.5-1.2 1.9-.6.4-.8.3-.4-.4.3-.5 0-1.3-.6-1.5q-1.5-.6 0-.6c.6-.1 1.2-.5 1.2-.9 0-.5-1-.8-2.2-.6-1.3.1-2.7.3-3.1.3-.5.1-.5.6-.1 1.2.4.8-.3.9-2.4.4-1.6-.3-3.3-.2-3.6.3-.3.6-1.5.8-2.6.5s-2 0-2 .6-.4 1.1-1 1.1c-.5 0-1-.8-1-1.7 0-1.5-.2-1.4-1.5.3-.8 1-1.5 1.5-1.5 1s-.6-.3-1.4.3c-.9.8-2.8.8-6.6.1-2.8-.5-5.6-.7-6.1-.4-1.4.8-1-.3.7-2 .8-.9 1.1-1.6.5-1.6-1.7 0-4.2 3.1-3.4 4.3.3.7.3.9-.2.5-.4-.4-1.5-.2-2.3.5-1.3.9-1.4.9-.8-.1.5-.8.1-1.2-1.1-1.3-2.4-.2-2.5-.2-4.5.6-1.3.5-1.8.2-1.8-1.1 0-1.7-.1-1.6-1.5.2-.8 1-1.5 1.4-1.5.9 0-.7-1.5-.9-3.5-.7-2.1.3-3.2.8-2.8 1.5.3.6.1.7-.5.3-2.5-1.5 1.5-5.3 4.1-4 .7.3.3-.2-.8-1.1-1.7-1.3-2.1-1.3-3-.2-1 1.3-4.8 3.7-5.9 3.7-1.2 0-.6-2.8.7-3.3q1.35-.6 0-.6c-.7-.1-1.7.8-2.3 1.9-1.5 2.8-.9 90.6.6 90.3.6-.1 2.1.8 3.2 2l2.2 2.3-2.3.1c-1.7.2-1.9 0-.7-.7.9-.6 1-1 .3-1-1.2 0-4.3 3.8-4.3 5.3 0 .4.6.5 1.3.1 1-.6 1-.4 0 .7-.9.8-1.3 4.6-1.3 11.1v9.8h140.1l-.2-19.6c-.1-10.7-.6-19.7-1.1-20-.4-.3-.6-1-.3-1.5.4-.5-1-.9-3-.9-2.6 0-3.4.3-2.9 1.2s.2.9-.9-.1c-1.1-.9-1.7-.9-1.7-.2 0 .6-1.1 1-2.5.9-1.7-.2-2.4-.7-2-1.6.3-.8 0-1-.6-.6s-1.6 0-2.1-.7c-.7-1.1-.8-.9-.4.5.5 1.5.2 1.8-1.9 1.4-1.4-.3-2.5-.1-2.5.4s-.4.7-.9.4c-1.7-1.1-9-1.5-9.6-.6-1.2 2-2.5.9-2.5-2.1 0-2.7-.3-3-2.2-2.4-1.3.4-2.8 1.3-3.4 2.1-1.4 1.8-2.5 1.8-1.8 0 .3-.8-.4-2-1.5-2.8-1.2-.8-1.8-1.7-1.5-2s.1-.9-.5-1.3c-1-.5-1.5.7-1.2 2.7.1 1-2.1 1-4.3.2-2-.8-2-2 0-2.8.8-.3 1.2-.2.9.4s-.2 1 .4 1c1.7 0 2.3-1.9 1.2-3.7-.6-1-1.1-1.5-1.1-1 0 .4-1.4-.7-3-2.5l-3-3.3.4 2.7c.3 1.5 0 3-.5 3.3-.5.4-.9 1.6-.8 2.8 0 2.1.1 2.1.9.2.8-1.8.9-1.7.9.7.1 1.6.6 2.8 1.2 2.8.5 0 .7.5.4 1-.4.6-1.1.8-1.6.4-1.3-.8-4 1.6-3.3 2.8.4.6-.1.8-1.4.4-1.7-.6-1.9-.3-1.4 1.6.5 2 .3 2.1-1 1.1-1.2-1.1-1.9-.9-3.6 1-1.6 1.7-1.9 2.6-1.1 3.4.9.9 1.5.8 2.6-.3 1.7-1.6 4.3-1.9 4.3-.4 0 .5-.8 1-1.7 1-1.5 0-1.3.4.7 2.1 2 1.6 2 1.8.4 1-1.1-.5-2.9-1-4-.9-1 0-2.7-.3-3.6-.7-1.1-.4-1.8-.3-1.8.5 0 .6.4.9.8.6 1.1-.7 2.4.4 4.6 3.8 1.5 2.4 1.6 2.8.3 2.3-.9-.3-1.8.1-2.1.9-.8 2.2-.8 2.4.8 2.4.8 0 1.8.5 2.2 1.2.5.8.2.9-1 .5-1.3-.5-1.7-.3-1.3.7s0 1.2-1.4.9c-1-.3-1.9-1-1.9-1.6 0-.5-.8-.1-1.8 1.1s-3.1 2.6-4.6 3.2c-2.8 1-7.6.4-7.6-1 0-.4-1.9-.8-4.3-.9-6.4-.3-6.6-.3-7.1-1.8-.3-.7-1.2-1.3-2-1.3s-1.6-.4-1.8-1c-.2-.5-1.8-.6-4.1 0-2.8.6-3.7.5-3.4-.3.3-.7 1.1-1.1 1.8-.9.8.1.5-.4-.5-1.3-1.1-.8-2.8-1.5-3.9-1.5s-1.5-.4-1.1-1.2q.75-1.05-.6-.3c-1 .6-.9 1.1.5 2.2 1.1.7 1.4 1.3.8 1.3-.7 0-1.5-.5-1.8-1-.3-.6-1.1-1-1.6-1-.6 0-.7.4-.4 1 1 1.5-.6 1.2-1.9-.4-1.4-1.9-5.2-2.5-4.8-.9.1.7-.5 1.3-1.3 1.3s-1.5-.7-1.5-1.6c0-.8-.5-1.2-1-.9-.6.3-1 .1-1-.6s-.9-2.2-2-3.4c-2.1-2.2-1.8-6.1.4-4.8.6.3.3-.3-.7-1.4-1.6-1.9-1.6-2 .3-1.8 1.1.1 2.3.4 2.6.8.4.4 1.8.7 3.2.7 1.8 0 2.2-.3 1.4-1.3-1-1.3-1-5.2.1-6.3.4-.4.7-.2.7.4 0 .7 1.2 1.2 2.8 1.1 2.4 0 2.5-.1.7-.9-1.1-.5-1.5-.9-1-.9.6-.1.3-.6-.5-1.1-1.3-.8-1.2-1 .3-1 .9 0 1.7.4 1.7.9s1 .7 2.2.3c2.1-.5 2.1-.5-.3-1.4-2.1-.8-2.2-1.1-.8-2.1 1.8-1.4 3.5-5.7 2.2-5.7-.5 0-1.5.6-2.2 1.2-1.1 1.1-1.1.9-.1-1 1.1-2.2 1-2.3-1-1.2-1.2.6-2.4.9-2.8.6-.3-.3 0-.6.7-.6.8 0 1.1-.8.8-2-.6-2.3.3-2.6 2.2-.7 1.1.9 1.3.9.7-.1-.5-.7-.1-1.2.9-1.2.9 0 1.9.9 2.2 2 .4 1.6.7 1.7 1.9.5 1.7-1.7 1.8-2.9.2-1.9-.6.4-.8.3-.5-.3.9-1.5 6.6-2.2 7.4-1 .3.6.1.7-.5.3-.7-.4-1.2-.4-1.3.1 0 .4-.2 1.6-.4 2.5-.3 1.9 1 2.4 2 .8.3-.5 1.2-.7 1.9-.4.8.3 1.7.1 2.1-.5.3-.6 0-.9-.7-.6-.9.4-1.4-.2-1.5-1.6-.2-1.6.1-1.8 1.2-.9 1 .8 2.4.8 4.9.1 2-.5 3.6-.6 3.6-.1 0 .4.9.6 2.1.3 1.1-.3 1.8-1.1 1.5-1.8-.3-.8.2-1.6 1-1.9 2.5-1 2.7-.7 1.3 1.1-1.3 1.6-1.2 1.7.3.4 1-.7 1.6-1.7 1.3-2.1-.3-.5-.1-1.1.4-1.5 1.7-1 0-3.7-2-3.2-1.1.3-1.9.1-1.9-.5 0-.5-.4-.7-1-.3-1.4.9-6.1-.6-5.4-1.7.4-.6-.4-.5-1.6.2s-2 .8-1.7.3-.3-1.7-1.4-2.6c-1.1-1-1.7-2.3-1.3-2.9s.3-.8-.3-.5c-1 .6-2.8-1.9-2.5-3.4.1-.4-.9-1.5-2.1-2.5-1.8-1.6-2-1.6-.8-.2.7 1 1 1.8.6 1.8s-.2.7.5 1.5c1 1.2 1 1.5-.4 1.5-.9 0-1.6-.5-1.6-1.1s-.6-.9-1.4-.6c-2.2.9-2.7-.5-.8-2 1.5-1.3 1.4-1.4-1.1-1-2.2.4-2.5.2-1.5-1 .6-.8 1.7-1.2 2.5-.9.7.3 1.3.1 1.3-.4 0-.6-.8-1-1.7-1-1.5 0-1.6-.2-.3-1 1.2-.8 1.2-1-.5-1-2 0-2-.1.1-1.8 2.5-2 3.7-4.9 2.4-5.7-.6-.4-.5-1.5.2-2.8.7-1.2 1.1-3.1.9-4.1-.2-1.7.2-1.8 3.6-1.3 2.1.4 9.4 1.4 16.3 2.3 6.9 1 12.7 2.1 13 2.5s1.8 1.2 3.3 1.8c2.7 1 2.7 1 2.7-3.1 0-3.7.5-4.7 5.1-8.9 5.6-5.1 8.8-6.3 21.2-7.4 7.6-.7 7.7-.6 5.3 6.3-.8 2.2-1.7 6.6-2.1 9.8-1.4 12.6-1.4 12.8-5 16.2-1.9 1.8-3.5 3.6-3.5 4.1s1.8 1.2 4 1.6 3.8 1.1 3.5 1.6c-.4.5.1.6.9.3.9-.3 1.6-.1 1.6.4 0 1.4 6.1-.3 7.2-2 .4-.7.8-1.1.9-.8.6 3.4.9 4.3 1.5 4.8.4.4.4-.1.1-1.1-.6-1.6-.2-1.7 4.1-1.1 2.6.3 5.2.9 5.7 1.2.6.3-.6-1.2-2.5-3.2-2-2.1-2.7-3.4-1.7-3.1.9.4 1.7 1.1 1.7 1.6s1.4.9 3 .9c2.2 0 3-.5 3.1-1.8 0-1.3.3-1.2 1.1.5 1.1 2.2 4.8 3.3 4.8 1.4 0-.5.9-.7 2-.4 1.4.4 2 0 2-1.1 0-1-.4-1.4-1-1.1-.5.3-1 .1-1-.5 0-.7-.7-1-1.5-.6-.8.3-1.5 0-1.5-.5 0-.6.9-.9 2-.6 1.3.3 2.4-.1 2.9-1.1.8-1.5 1.7-53.3.9-53.2-.2.1-1.6.8-3.3 1.6m-9.9 12c-.9.8-1.6 2-1.6 2.6s-.3.9-.6.6c-.8-.9 1.4-4.8 2.7-4.8.6 0 .3.7-.5 1.6M82 16.9c0 .6-.4 1.2-.8 1.5-.5.3-.9-.1-.9-.9s.4-1.5.9-1.5c.4 0 .8.4.8.9m-23.6 5.6c-.7 1.6-2.4 2.1-2.4.6 0-.8.7-1.3 2.7-2 .1-.1 0 .6-.3 1.4M54 23c0 .5-1 1.5-2.2 2.1-2.3 1.2-2.3 1.2-.4-1 2.1-2.3 2.6-2.6 2.6-1.1M31 45c0 .5-.2 1-.4 1-.3 0-.8-.5-1.1-1-.3-.6-.1-1 .4-1 .6 0 1.1.4 1.1 1m-13 3c0 .5-.5 1-1.1 1-.5 0-.7-.5-.4-1 .3-.6.8-1 1.1-1 .2 0 .4.4.4 1m12 1.9c0 .3-.5 1.3-1.1 2.1-.9 1.3-1 1.2-.5-.3.3-1 0-1.7-.9-1.7-.7 0-1.6.8-1.8 1.7-.4 1.4-.5 1.3-.6-.4 0-1.2.5-2.3 1.2-2.6 1.4-.5 3.7.2 3.7 1.2M5 51c0 .5-.2 1-.4 1-.3 0-.8-.5-1.1-1-.3-.6-.1-1 .4-1 .6 0 1.1.4 1.1 1m7 .5c0 1 .6 1.2 1.8.8 1.5-.6 1.5-.5.2.8-.8.9-2.3 1.6-3.3 1.6-1.1 0-1.4-.4-.8-1 .5-.5.7-1.6.4-2.3-.3-.8 0-1.4.6-1.4s1.1.7 1.1 1.5m8 .9c0 .3-.4.8-1 1.1-.5.3-1 .1-1-.4 0-.6.5-1.1 1-1.1.6 0 1 .2 1 .4m-3 4.3c0 1.9-1.3.9-1.6-1.2-.1-.8.2-1.3.7-.9.5.3.9 1.2.9 2.1m117-2.3c0 .3-.4.8-1 1.1-.5.3-1 .1-1-.4 0-.6.5-1.1 1-1.1.6 0 1 .2 1 .4M27.5 56c-.3.5-1.1 1-1.6 1-.6 0-.7-.5-.4-1 .3-.6 1.1-1 1.6-1 .6 0 .7.4.4 1m93.9 5c-.6.5-2.4-2.1-2.4-3.4 0-.6.6-.1 1.4 1 .8 1 1.2 2.1 1 2.4M10 60c0 .5-.2 1-.4 1-.3 0-.8-.5-1.1-1-.3-.6-.1-1 .4-1 .6 0 1.1.4 1.1 1m19-.6c0 .3-.4.8-1 1.1-.5.3-1 .1-1-.4 0-.6.5-1.1 1-1.1.6 0 1 .2 1 .4m3.5 1.4c-.3.3-1.1 0-1.8-.7-.9-1-.8-1.1.6-.5 1 .3 1.5.9 1.2 1.2m6.6 4.1c.4-.7 1.1-1 1.6-.6.9.9-1.7 2.8-2.9 2.1-.4-.3-.8-1.1-.7-1.7 0-.8.3-.7.6.2.4 1.1.7 1.1 1.4 0m-6.7 1.8c.9-.4 1.6-.2 1.6.3 0 .6-.6 1-1.4 1s-2.1.3-2.9.6c-1.2.4-1.4 0-1-1.6.4-1.5.8-1.8 1.3-.9.5.6 1.5.9 2.4.6M44 67c0 .5-.6 1-1.2 1-1 0-.9.3.1.9 1 .7.8 1-1 1.6-1.3.4-3.2 1.4-4.1 2.2-2.1 1.9-5 1-4.2-1.2.5-1.2.9-1.3 2-.4s1.4.8 1.4-.6c0-1.1.5-1.5 1.5-1.1.9.3 1.5 0 1.5-.8 0-1.3 1.3-2.3 3.3-2.5.4-.1.7.3.7.9m-16.5 2.8c1.9 1.5 2 1.9.7 3.1s-1.4 1.2-1 0c.9-2.8-2-4.3-6.7-3.2-3.1.7-4.2.7-3.9-.1.7-1.9 8.4-1.8 10.9.2m5 .2c.3.5.1 1-.4 1-.6 0-1.1-.5-1.1-1 0-.6.2-1 .4-1 .3 0 .8.4 1.1 1m-7 2c.3.5-.1 1-.9 1-.9 0-1.6-.5-1.6-1 0-.6.4-1 .9-1 .6 0 1.3.4 1.6 1m20 0c.3.5.1 1-.4 1-.6 0-1.1-.5-1.1-1 0-.6.2-1 .4-1 .3 0 .8.4 1.1 1m-3.2 3.1c-1.1 1.1-4.3.1-4.3-1.3 0-.5.9-.6 2-.3 1.3.4 2 .2 2.1-.7 0-1.1.2-1 .6 0 .3.8.1 1.8-.4 2.3M22 74c0 .5-.5 1-1.1 1-.5 0-.7-.5-.4-1 .3-.6.8-1 1.1-1 .2 0 .4.4.4 1m10.4 2.1c-.3.6.3.5 1.3-.2 1.6-.9 2.4-.9 3.9 0 1.7 1.1 1.6 1.2-.8.6-1.6-.3-2.8-.1-2.8.5 0 .5-1 1-2.3 1s-2.8.5-3.4 1.1c-.7.7-1.3.7-1.7.1-.3-.6.2-1.3 1.3-1.7 1.1-.3 2.2-1.3 2.5-2.1s1-1.2 1.6-.9c.6.4.8 1.1.4 1.6m15-1.5c1.2.4 1.2.9.3 1.8-.8.9-1.5 1-2.3.2-.7-.6-1-1.4-.7-1.9.5-.9.7-.9 2.7-.1m-21.9 1.9c-1.6.7-3.4 1-4 .7-.5-.4.4-1 2-1.3 4.7-1 5.3-.9 2 .6M97 96.4c0 .3-.4.8-1 1.1-.5.3-1 .1-1-.4 0-.6.5-1.1 1-1.1.6 0 1 .2 1 .4m-76.4 3.8c0 1-.4 1.8-.8 1.8s-.8-.2-.8-.4-.2-1.1-.5-1.9c-.3-.7 0-1.4.7-1.4.8 0 1.4.9 1.4 1.9M88 103c0 .5-.4 1-1 1-.5 0-1-.5-1-1 0-.6.5-1 1-1 .6 0 1 .4 1 1m-11 .4c0 .2-.8 1-1.7 1.7-1.6 1.3-1.7 1.2-.4-.4s2.1-2.1 2.1-1.3m55.6 6.1c-.3.8-.1 1.5.5 1.5s.9.6.6 1.4-.1 1.7.6 2c.7.2.4.5-.5.5-1 .1-1.8-.5-1.8-1.3s-.4-1.7-.8-2c-1.2-.7-1.1 2.6.1 4.1.7 1 .3 1.3-1.7 1.3-2.3 0-2.6-.3-2.1-2 .6-1.8.2-2-3.4-1.8-2.8.1-4.1.6-4.1 1.5 0 .8-.5 1.1-1.1.8-.7-.5-.6-1.2.4-2.3.8-1 1.2-2.3 1-3-.4-1.1-.1-1.2 1.6-.3 1.2.7 2.1.8 2.1.2 0-1.6 4-.8 4.1.9 0 1 .2 1.1.6.2.2-.6 1.1-1.2 1.9-1.2s1.4-.5 1.4-1c0-.6.3-1 .6-1s.4.7 0 1.5m-40.6.4c0 .5 1 .7 2.1.4 2.1-.6 2.1-.6.3 2.3-1.1 1.5-2.9 3.9-4.1 5.3-1.3 1.3-2.3 2.7-2.3 3.2 0 .4-2-.4-4.5-1.8-3.8-2.1-4.5-2.9-3.9-4.7.9-3 1.3-3.2 3.3-1.9 1.5 1 2 .8 2.9-1 .6-1.2 1.1-1.6 1.1-1 .1.7-.8 2.2-1.9 3.3-1.4 1.4-1.6 2-.6 2 .7 0 1.9-.7 2.6-1.5 1.1-1.3 1.5-1.3 2.2-.3s.8 1 .7-.2c-.3-3 .1-5 1.1-5 .6 0 1 .4 1 .9m-13 2.7c0 .8-.4 1.4-1 1.4-.5 0-1-.9-1-2.1 0-1.1.5-1.7 1-1.4.6.3 1 1.3 1 2.1m-64.9-.3c-.6.8-.8 1.7-.4 2.1s0 .4-1 0c-1.7-.6-1.7-.7 0-2 2.3-1.7 2.8-1.8 1.4-.1m99.2.3c.7.7-.2 3.4-1.2 3.4-.4 0-.7-.9-.8-2-.2-1.9.8-2.6 2-1.4m9.4 3.4c-1.4 1.1-2.9 2-3.3 2s.3-.9 1.6-2 2.7-2 3.3-2c.5 0-.2.9-1.6 2M21 118c0 .5-.5 1-1.1 1-.5 0-.7-.5-.4-1 .3-.6.8-1 1.1-1 .2 0 .4.4.4 1m8 2c0 .5-.4 1-1 1-.5 0-1-.5-1-1 0-.6.5-1 1-1 .6 0 1 .4 1 1m-16.1 16.1c-.8.5-2.3.8-3.3.7-2.7-.4-3.3-2.8-.7-2.8 1.2 0 2.1-.5 2.1-1.1s.7-.3 1.7.6c1.4 1.4 1.4 1.8.2 2.6m111.7.4c1.4 1.3 1.3 1.5-1 1.5-1.4 0-2.6.4-2.6 1 0 .5-.5 1-1.1 1-.5 0-.7-.5-.4-1 .3-.6-.2-1-1.2-1-1.4 0-1.5-.2-.4-.9.7-.5 2.2-.6 3.4-.3 1.4.3 1.8.1 1.3-.6-1-1.7.3-1.5 2 .3"/><path d="M80.6 115.5c-.3.8-.1 1.5.4 1.5.6 0 1-.7 1-1.5s-.2-1.5-.4-1.5-.6.7-1 1.5M16 20c-.9.6-1 1-.3 1 .6 0 1.5-.5 1.8-1 .8-1.2.4-1.2-1.5 0m4.9.3c.5.5 1.9.7 3.2.5 2-.3 1.9-.5-.9-.9-2-.3-2.9-.2-2.3.4m19.7.6c-.3.5.1 1.1.9 1.5.8.3 1.5.1 1.5-.4 0-1.3-1.8-2.2-2.4-1.1M101.5 37c-.3.5-.3 1.4 0 2 .3.5.1 1-.4 1-.6 0-1.1.7-1.1 1.5s-.4 1.5-1 1.5c-.5 0-1 .8-1 1.8 0 3-6.8 14.6-8.2 13.9-.2-.1.1.4.7 1.1 1.2 1.3 4.9.6 4-.8-.3-.4.2-1.1 1.1-1.4.9-.4 1.4-.9 1.1-1.2-.3-.4 0-1.3.8-2.1S99 51.6 99 50s.6-3.3 1.3-3.7c1.5-1 3.7-9.2 2.6-9.8-.4-.3-1-.1-1.4.5M80.6 57.7c-.6 1.4-.5 1.5.5.6.7-.7 1-1.5.7-1.8s-.9.2-1.2 1.2m48.7 3c-1.8.7-1.6 2.3.2 2.3.8 0 1.5-.7 1.5-1.5s-.1-1.5-.2-1.4c-.2 0-.9.3-1.5.6m6.2 1.1c-1.2.8-1.5 5.2-.4 5.2.4 0 .9-.6 1.2-1.3.2-.6.8-.9 1.2-.5.5.5.2 2-.5 3.5-1.2 2.6-1.3 2.7-2.1.8-.4-1.1-.8-1.4-.8-.8-.1.7-.8 1.3-1.7 1.3-.8 0-1.2.4-.9 1 .3.5-.2 1-1.2 1.1-1 0-1.3.3-.6.5.7.3 2.1 0 3.2-.5 1.3-.7 2.2-.8 2.6-.1.3.5 1.2 1 1.8 1 .7 0 .6-.4-.3-1.1-1.2-.9-1.1-1 .6-.6 1.8.4 2.1-.1 2.1-3.9.1-2.7-.4-4.4-1.1-4.4-.6 0-.4-.5.4-1 1.2-.8 1.2-1-.5-1-1.1 0-2.4.4-3 .8m-7 3.2c-1.7.7-1.4.9 1.3.9 2 .1 3.1-.3 2.7-.9-.7-1.2-1.3-1.2-4 0m-55.8 1.7c1.2 3.2 6.1 6.7 6.4 4.5 0-.4.2-1.6.3-2.8.2-1.6-.2-2-2-1.6-1.2.2-2.5-.1-2.8-.7-1.1-1.8-2.6-1.3-1.9.6m40.9-.4c.3 1 .9 1.5 1.2 1.2s0-1.1-.7-1.8c-1-.9-1.1-.8-.5.6m12.5 2.4c-1.6 1.8-1.2 2.1 1.5 1.4 1.7-.5 1.9-.9 1-1.7s-1.5-.7-2.5.3m5.4 6.3c-.3.5.1 1 1 1s1.3-.5 1-1c-.3-.6-.8-1-1-1s-.7.4-1 1m-46.5.7c0 .5.7 1.6 1.4 2.6 1.1 1.4 1.5 1.5 1.9.4.3-.8 0-2-.6-2.6-1.3-1.3-2.7-1.5-2.7-.4m49.6 2c-.6 1.4-.5 1.5.5.6.7-.7 1-1.5.7-1.8s-.9.2-1.2 1.2m-13.5 0c-.1 1.7 1.6 2.5 2.5 1.2.4-.7.3-.9-.4-.5-.5.3-1.3 0-1.5-.6-.4-.9-.6-1-.6-.1M44.5 90c-.3.5-.1 1 .4 1 .6 0 1.1-.5 1.1-1 0-.6-.2-1-.4-1-.3 0-.8.4-1.1 1m56 4c-.8 1.3.5 1.3 2.5 0 1.3-.8 1.3-1-.2-1-.9 0-2 .4-2.3 1m38.1.9c-.3.5.1 1.1.9 1.5.8.3 1.5.1 1.5-.4 0-1.3-1.8-2.2-2.4-1.1M108 96c0 .6.7 1.3 1.5 1.7 2.4.9 2.7-.1.5-1.5-1.3-.8-2-.8-2-.2m25.6.5c-1.1.8-1.6 1.5-1 1.5.5 0 1.8-.7 2.8-1.5 1.1-.8 1.6-1.5 1-1.5-.5 0-1.8.7-2.8 1.5m-79.4 13c0 1.6.2 2.2.5 1.2.2-.9.2-2.3 0-3-.3-.6-.5.1-.5 1.8m-29.8 2.7c-.4.7-.4 1 .1.6.4-.4 1.3 0 2 .9.8 1.1 1.4 1.2 1.9.5.3-.6-.2-1.6-1.3-2.2-1.5-.7-2.2-.7-2.7.2m14.7 4.4c0 1.1.3 1.4.6.6.3-.7.2-1.6-.1-1.9-.3-.4-.6.2-.5 1.3"/></g><path fill="#BF4000" fill-opacity=".8" d="M141.1 8.6c0 1.1.3 1.4.6.6.3-.7.2-1.6-.1-1.9-.3-.4-.6.2-.5 1.3m.4 58.4c0 29.4.1 41.5.2 26.7.2-14.7.2-38.7 0-53.5-.1-14.7-.2-2.6-.2 26.8m-.2 67c0 3.6.2 5 .4 3.2.2-1.7.2-4.7 0-6.5-.2-1.7-.4-.3-.4 3.3"/><path fill="#BF8040" d="M103.6 31.7c-.6 1.4-.5 1.5.5.6.7-.7 1-1.5.7-1.8s-.9.2-1.2 1.2m.5 5.6c-1.3 2.1-1.2 2.1.5.5 1-1 1.6-2 1.3-2.2-.3-.3-1.1.5-1.8 1.7m-67 9.3c0 1.1.3 1.4.6.6.3-.7.2-1.6-.1-1.9-.3-.4-.6.2-.5 1.3M99 48.9c0 .6.5 1.3 1 1.6.6.3 1-.1 1-.9 0-.9-.4-1.6-1-1.6-.5 0-1 .4-1 .9"/><path fill="#BF8080" d="M107.2 23.4c.7.8 1.5 1.2 1.7 1.1.5-.6-1-2.5-2-2.5-.5 0-.4.6.3 1.4m-29.3 9.3c-1.3 1.6-1.2 1.7.4.4.9-.7 1.7-1.5 1.7-1.7 0-.8-.8-.3-2.1 1.3m26.1.6c0 1-.4 1.5-1 1.2s-.7.1-.3 1c.3.9.9 1.3 1.2.8.3-.4.9-1 1.3-1.3s.3-1.2-.2-2c-.8-1.3-1-1.2-1 .3m-45.2 5.4c.7.3 1.6.2 1.9-.1.4-.3-.2-.6-1.3-.5-1.1 0-1.4.3-.6.6m44.7.3c-.3.5-.1 1 .4 1 .6 0 1.1-.5 1.1-1 0-.6-.2-1-.4-1-.3 0-.8.4-1.1 1m.1 3.5c-.3.8-.1 1.5.4 1.5.6 0 1-.7 1-1.5s-.2-1.5-.4-1.5-.6.7-1 1.5m-5.6 12c-.7.9-1 1.8-.6 2.2.3.3.6.1.6-.6s.4-1 .9-.6c.5.3 1.2.1 1.5-.4 1.1-1.7-1.1-2.1-2.4-.6M71.2 60c1.4 1.9 2.7 4.2 3.1 5 .5 1.3.6 1.3.6 0 .1-.9-1.3-3.1-3-5l-3.1-3.5zm-1 3.6c1 1 2 1.6 2.2 1.3.3-.3-.5-1.1-1.7-1.8-2.1-1.3-2.1-1.2-.5.5m-8.4 7.1c.7.3 1.6.2 1.9-.1.4-.3-.2-.6-1.3-.5-1.1 0-1.4.3-.6.6m18.1 1c-1.3 1.6-1.2 1.7.4.4.9-.7 1.7-1.5 1.7-1.7 0-.8-.8-.3-2.1 1.3m9.2 6.9c0 1.1.3 1.4.6.6.3-.7.2-1.6-.1-1.9-.3-.4-.6.2-.5 1.3m-.2 3.7c2.5 2.7 4.3 3.9 2.2 1.4-.6-.8-.7-1.8-.3-2.3s.3-.6-.2-.2-1.6.2-2.5-.4c-.9-.7-.5 0 .8 1.5m-11 3.1c0 .1-.2.9-.4 1.9-.3 1.8-.3 1.8 1.7 0 1.9-1.7 2-1.7 3.4.2.8 1 1.4 1.4 1.4.8 0-1.5-2.2-3-4.2-3-1 0-1.8.1-1.9.1M52.2 95c0 1.4.2 1.9.5 1.2.2-.6.2-1.8 0-2.5-.3-.6-.5-.1-.5 1.3m27.2 3.2-1.9 2.3 2.3-1.9c2.1-1.8 2.7-2.6 1.9-2.6-.2 0-1.2 1-2.3 2.2"/><g fill="#BFBFBF" stroke-width="0"><path d="M99.8 23.7c1.2.2 3 .2 4 0 .9-.3-.1-.5-2.3-.4-2.2 0-3 .2-1.7.4m5.6 3.5c-1 1.2-1.3 1.8-.6 1.4 1-.6 1.1-.1.7 2.1-.4 1.9-.1 1.6 1-1.1 1.8-4.7 1.5-5.4-1.1-2.4m-25 4-1.9 2.3 2.3-1.9c2.1-1.8 2.7-2.6 1.9-2.6-.2 0-1.2 1-2.3 2.2m-38.6 5.5c.7.3 1.6.2 1.9-.1.4-.3-.2-.6-1.3-.5-1.1 0-1.4.3-.6.6m-3.6 2.8c0 1.6.2 2.2.5 1.2.2-.9.2-2.3 0-3-.3-.6-.5.1-.5 1.8m9.6-1.8c.6.2 1.8.2 2.5 0 .6-.3.1-.5-1.3-.5s-1.9.2-1.2.5m8 1c.7.3 1.6.2 1.9-.1.4-.3-.2-.6-1.3-.5-1.1 0-1.4.3-.6.6m7 1c.7.3 1.6.2 1.9-.1.4-.3-.2-.6-1.3-.5-1.1 0-1.4.3-.6.6m13.4 1.8c0 1.6.2 2.2.5 1.2.2-.9.2-2.3 0-3-.3-.6-.5.1-.5 1.8m-5.6 1.8c.3 1 .9 1.5 1.2 1.2s0-1.1-.7-1.8c-1-.9-1.1-.8-.5.6m-32.3 5.2c0 3.3.2 4.5.4 2.7s.2-4.5 0-6-.4 0-.4 3.3m58.2-4.4c-.4.6-.5 1.2-.2 1.5.2.3.7-.2 1-1.1.7-1.7.1-2-.8-.4m5.9 2.2c-.6.7-1 2-.8 3 .1.9-.5 2.1-1.4 2.7-1 .5-1.3 1-.8 1s.3.8-.5 1.7c-.7 1-.1.7 1.3-.7s2.8-4 3.2-5.8c.6-3.6.6-3.7-1-1.9m-27.8 5.2c.4.8.8 1.5 1 1.5s.4-.7.4-1.5-.4-1.5-1-1.5c-.5 0-.7.7-.4 1.5m3 2.2c-.6 1.4-.5 1.5.5.6.7-.7 1-1.5.7-1.8s-.9.2-1.2 1.2m-10.6.7c0 .2.7.7 1.6 1 .8.3 1.2.2.9-.4-.6-1-2.5-1.4-2.5-.6m-29 .9c0 .2 1.5 1.6 3.3 3.3l3.2 2.9-2.9-3.3c-2.8-3-3.6-3.7-3.6-2.9m32 2c-.9.7-1.4 2-1.2 2.9.4 2.2-1.1 2.3-2.8.3-.7-.8-2-1.5-2.9-1.4-1.3 0-1.4.1-.1.6.8.3 3.5 2.2 6 4.1 2.5 2 3.8 2.7 2.9 1.7-1.8-2.3-2-6.1-.3-5.8.7.1 1-.6.7-1.7s-.6-2-.7-2c0 0-.8.6-1.6 1.3m8 3.5c0 1.2.3 1.2 1.8.1.9-.7 1.9-1.4 2.1-1.6.2-.1-.6-.1-1.8 0-1.1.1-2.1.8-2.1 1.5m15.5.2c-1.3.6-1.5.9-.5.9.8 0 2.2-.4 3-.9 1.8-1.2.2-1.2-2.5 0m-48 3c1 1.1 2 2 2.3 2s-.3-.9-1.3-2-2-2-2.3-2 .3.9 1.3 2m34.8 2.2c-.1 1.2.3 2.8.9 3.5 1.2 1.5 1.2 1.5-1.7 3.1-1.9 1.1-1.9 1.1.3 1.2 2.9 0 4.7-3.9 2.6-5.6-.8-.6-1.2-1.9-.8-2.8.3-.9.2-1.6-.3-1.6s-.9 1-1 2.2M68 67c1.3.9 1.3 1.1.1 1.9s-.9 1.1 1.2 1.7c1.6.3 3.1.4 3.4 0 .4-.3-.1-.6-.9-.6-.9 0-1.8-.9-2.1-2s-1.1-2-1.9-2c-1 0-.9.3.2 1m-2.6 3.8c.3.5 0 1.3-.6 1.5-.9.4-1 .6-.1.6 1.7.1 2.5-1.6 1.2-2.5-.7-.4-.9-.3-.5.4m8.6.6c0 .2.8 1 1.8 1.7 1.5 1.3 1.6 1.2.3-.4S74 70.6 74 71.4m-14.1 4.3-2.4 2.8 2.8-2.4c1.5-1.4 2.7-2.6 2.7-2.8 0-.8-.8-.1-3.1 2.4m28.4-.6c.9.5 1.7 2 1.7 3.2 0 1.6 1.1 2.7 4.3 4.2 2.3 1 4.7 1.9 5.2 2 .6 0 1.8 1.2 2.9 2.8 1.4 2.1 2.2 2.5 3.1 1.7s1.4-.7 1.8.2c.4 1 .7 1 1.8-.1.9-.8 1-1.5.4-1.7-.6-.3-2.6-1.3-4.5-2.4s-4.3-2.3-5.2-2.6c-1-.4-1.8-1.2-1.8-1.8 0-1.1-9-6.6-10.7-6.6-.5 0 0 .5 1 1.1m-15.3 1c0 .5.4.8.9.5.5-.4 1.1 0 1.4.6.3 1 .8 1 1.8-.1.8-.8.9-1.1.2-.7-.6.3-1.4.2-1.8-.4-.8-1.3-2.5-1.3-2.5.1m11.3 2.6c.9.2 1.4.9 1.1 1.5-.4.7-.2.8.5.4 1.5-1 .4-2.6-1.7-2.5-1.5.1-1.5.2.1.6m-5.7 2.6c.3 1 .9 1.5 1.2 1.2s0-1.1-.7-1.8c-1-.9-1.1-.8-.5.6m3-.5c-.2.4-.1 1.4.5 2.2.7 1.2.9 1 .9-.8 0-2.3-.5-2.8-1.4-1.4"/><path d="M91.9 83.2c.7 1 1 1.8.6 1.8s-.2.6.4 1.3c.6.8.7 1.8.3 2.2-.4.5-.1.5.6.1s1.9-.2 2.7.4 2 .8 2.7.4c1-.5 1-.4.1.6-1 1.1-1.5 1.1-3 0q-2.4-1.95-.3.3c2.2 2.4 6.3 1.2 5.4-1.7-.9-3-1.4-3.3-2.4-1.6-.7 1.1-1 1.2-1 .2 0-.7-.4-1.1-.9-.7-.6.3-1.3 0-1.8-.7-.4-.7-1.7-2-2.8-2.8-1.9-1.4-1.9-1.4-.6.2m-11 3.5c-.2.6-1.5 1.4-2.8 1.8-1.8.5-2.2.4-1.5-.6.4-.7-.7-.3-2.4.9-3.7 2.7-5.3 4.8-2.9 3.9.9-.3 1.8-.1 2.1.6s.7.3 1.1-1c1-3.2 4.1-3.6 5.4-.6.7 1.4.7 2.2.1 1.8-.5-.3-1.8-.1-2.7.4-1.5.9-1.1 1.1 1.8.9 2.8-.1 3.5-.6 3.1-1.7-.3-.9-.1-1.2.6-.7 1.7 1 1.5-2.6-.2-4.9-.7-1-1.5-1.4-1.7-.8M52.2 90c0 1.9.2 2.7.5 1.7.2-.9.2-2.5 0-3.5-.3-.9-.5-.1-.5 1.8m63.6-.3c.7.3 1.6.2 1.9-.1.4-.3-.2-.6-1.3-.5-1.1 0-1.4.3-.6.6m-14 3c.6.2 1.8.2 2.5 0 .6-.3.1-.5-1.3-.5s-1.9.2-1.2.5M67.5 96c-.3.5-.1 1 .4 1 .6 0 1.1-.5 1.1-1 0-.6-.2-1-.4-1-.3 0-.8.4-1.1 1m-14.3 2.5c0 1.1.3 2.9.8 4 1.1 2.5 1.1-.1 0-3.5-.6-2-.8-2.1-.8-.5m21.2.7c-.4.6-.2 1.4.5 1.6.9.3.7 1-.6 2.6-1.8 2.1-1.8 2.1.2.4 1.2-.9 2.1-2.6 2.2-3.8.2-2.2-1.2-2.7-2.3-.8M55.2 107c0 1.4.2 1.9.5 1.2.2-.6.2-1.8 0-2.5-.3-.6-.5-.1-.5 1.3m4.2-.8c-.4.7-.2 1.4.4 1.6.7.2 1.9 1 2.7 1.8.7.8 1.6 1 1.9.6.3-.5-.6-1.8-1.9-3-1.7-1.5-2.6-1.8-3.1-1m-3.4 6.2c0 .2.9.6 2 .9s1.8.1 1.4-.4c-.5-.9-3.4-1.3-3.4-.5"/></g><g fill="#FFF" stroke-width="0"><path d="M98.9 24c-8.4.8-12.8 2.6-17.8 7.1-3 2.8-3.4 3.8-4.3 11.1-.9 7.1-.8 8.1.8 9.2 1.7 1.3 1.1 4.1-.7 3-.5-.3-2.3-3.3-4.1-6.7-1.7-3.4-3.5-6.5-4.1-6.8-.5-.4-6.9-1.4-14.1-2.4-7.2-.9-13.8-1.8-14.6-2.1-1.3-.3-1.5 1.1-1.2 9.3l.3 9.7 4.6 5.3c3.9 4.5 5.5 5.6 11 7.3 3.6 1.1 7.6 2 8.8 2 3.3 0 4.1 1.8 1.3 2.9-2.7 1.1-6.7 5.2-9.6 10.2-2.6 4.3-2.8 10-.7 17.9.8 3 1.5 6.6 1.5 8 0 1.9.8 2.8 3 3.7 2.6 1 3.3.8 5.2-.9 1.8-1.5 1.9-1.8.6-1.4-1 .3-1.8.1-1.8-.4s-.9-1.2-2-1.5-2-1.3-2-2.1c0-1.8.8-1.8 2.7.1.9 1 2.4 1.3 3.7 1 1.7-.5 1.8-.4.6.4-1.3.9-1.3 1.1 0 1.1.9 0 3.2-1.3 5.1-3 2.9-2.3 3.5-3.5 3.2-5.5-.4-1.9-.1-2.5 1.2-2.5 1.2 0 1.5.5 1.1 1.7-.5 1.3.1 1 1.9-.7 2.9-2.7 5.5-6.7 3.6-5.6-.6.4-1.6-.4-2.2-1.7-1.3-2.9-4.4-2.6-5.2.5-.4 1.3-1.1 1.9-2.1 1.5-.9-.4-2.3.4-3.5 2.1C68 97.3 67 98 67 97.3s2.7-3.9 6-7.3 6-6.8 6-7.6.6-1.4 1.3-1.4c1.6 0 4.2-3.1 4.2-5 0-3.8 7.2-1.5 13.9 4.4 4.4 4 10.2 7 11.6 6.1 1.5-.9 1.2 1.1-.2 2.3-2 1.5-5.6.9-7.3-1.3-1.5-1.9-1.5-1.9-.9.7 1.1 5.1-3.3 3.2-11.8-5.1-5.7-5.4-6.5-4.8-1 .7 5.7 5.8 10.1 8.2 14.7 7.8 5.4-.5 15.8-2.7 16.9-3.7.4-.4-.6-2.7-2.3-5.2-1.6-2.4-4.4-7.4-6.1-11-3-6.2-3.4-6.6-8.8-8.5-4.3-1.5-7.2-1.9-11.9-1.5-5.4.5-6.3.3-6.3-1.1 0-1 1.5-2.3 3.5-3.2C92.1 56 96 50 96 46.2c0-1.1.8-3 1.8-4.3s2.6-4.6 3.6-7.2 2.9-6.1 4.2-7.6c2.5-3 3-4.2 1.7-4-.5.1-4.2.5-8.4.9M83 50.9c0 .6-.4 1.2-1 1.6-.6.3-.5 1.5.2 3.1 1 2.1.8 2.7-1 4.4-1.2 1.1-2.4 2-2.7 2-1.1 0-.4-5.7.9-7.5.8-1.1 1.2-2.5.9-3.2s.2-1.3 1.1-1.3 1.6.4 1.6.9m-9.7 3.8c.3 1.6.1 2.9-.4 3.1s.1 2.1 1.4 4.3c1.2 2.1 2.7 3.7 3.2 3.5 4.8-2 4.7-2 4.1.1-.4 1.3-.2 2.3.8 2.6 2.3.9 1.2 4.1-1.8 5.5-2.5 1.3-3 1.2-5-.7-1.2-1.2-3-2.1-3.9-2.1-2.1 0-6.7-2.1-6.7-3.1 0-1.3 3.1-1.9 5.1-.9 1.1.7 1.9.7 1.9.1 0-1.3-7.1-6.8-9.4-7.2-1.1-.2-2.1-1-2.4-1.7-.5-1.5 3.2-1.6 5.9-.1 1.8.9 1.9.7 1.3-1.5-.7-3 .9-3.5 2.6-.9 1 1.5 1.1 1.4.7-1-.3-1.7 0-2.7.8-2.7.7 0 1.5 1.2 1.8 2.7m2.1 21c.4.5 1.3.8 1.9.8 1.8 0 2 4.2.3 4.8-1.1.5-1.6 0-1.6-1.3 0-1.1-.7-2-1.5-2s-1.5-.7-1.5-1.5c0-1.6 1.2-2 2.4-.8m4.9 18c.7.7-2.2 3.2-3.8 3.3-.5 0-.3-.5.5-1 1-.6 1.1-1 .3-1-.7 0-1.3-.5-1.3-1 0-1.1 3.3-1.4 4.3-.3"/><path d="M70 60.7c0 .6.8 1.7 1.8 2.4 1.6 1.3 1.6 1.3.2-.6-.8-1.1-1.6-2.2-1.7-2.4q-.3-.3-.3.6m23 21.8c0 .3.9 1.5 2 2.7 1.7 1.8 2 1.9 2 .5 0-.9-.9-2.1-2-2.7s-2-.8-2-.5m5.5 3.6c-.4.6-.5 1.2-.2 1.5.2.3.7-.2 1-1.1.7-1.7.1-2-.8-.4"/></g><path fill="#404080" fill-opacity=".2" d="M312.5 71.5c0 23.1.1 32.4.2 20.7.2-11.7.2-30.6 0-42-.1-11.4-.2-1.8-.2 21.3m-126.7 41.2c.7.3 1.6.2 1.9-.1.4-.3-.2-.6-1.3-.5-1.1 0-1.4.3-.6.6"/><path fill="#000040" fill-opacity=".4" d="M161.3 23.7c4.8.2 12.6.2 17.5 0 4.8-.1.8-.3-8.8-.3s-13.6.2-8.7.3"/><path fill="gray" fill-opacity=".2" d="M212 30.4c0 .2.8 1 1.8 1.7 1.5 1.3 1.6 1.2.3-.4s-2.1-2.1-2.1-1.3"/><path fill="#000040" fill-opacity=".7" d="M243.3 23.7c5.4.2 13.9.2 19 0 5.1-.1.7-.3-9.8-.3-10.4 0-14.6.2-9.2.3m71.5 0c3.4.2 8.8.2 12 0 3.1-.2.3-.3-6.3-.3s-9.2.1-5.7.3m-58.5 56c1.5.2 3.9.2 5.5 0 1.5-.2.2-.4-2.8-.4s-4.3.2-2.7.4"/><path fill="#000040" fill-opacity=".6" d="M227.2 93c0 1.4.2 1.9.5 1.2.2-.6.2-1.8 0-2.5-.3-.6-.5-.1-.5 1.3m12.6 27.7c3.4.2 8.8.2 12 0 3.1-.2.3-.3-6.3-.3s-9.2.1-5.7.3"/><path fill="#404080" fill-opacity=".4" d="M218.2 45c0 1.4.2 1.9.5 1.2.2-.6.2-1.8 0-2.5-.3-.6-.5-.1-.5 1.3"/><path fill="gray" fill-opacity=".3" d="M256.3 72.7c1.5.2 3.7.2 5 0 1.2-.2 0-.4-2.8-.4-2.7 0-3.8.2-2.2.4"/><path fill="#BFBFBF" fill-opacity=".1" d="M210.9 61.7c-1.3 1.6-1.2 1.7.4.4s2.1-2.1 1.3-2.1c-.2 0-1 .8-1.7 1.7m9.6 14.3c1 1.1 2 2 2.3 2s-.3-.9-1.3-2-2-2-2.3-2 .3.9 1.3 2"/><path fill="#000040" d="M155.8 26.5c2.2 2.7 2.2 3.2 2.2 45.5 0 41.7 0 42.8-2.1 45.4l-2 2.6h20.3c29.9 0 39.2-2.1 46.7-10.6 5.7-6.5 7.5-14.9 5.1-23.5-2.2-7.7-14.8-17.9-22.2-17.9-3.5 0-3.7-1.6-.2-2.4 1.4-.4 4.7-2.8 7.4-5.5 3.9-3.9 5-5.9 6-10.4 1.8-7.8.1-13.6-5.1-18.1-6.9-5.9-11.7-6.8-36.3-7.4l-21.9-.4zm39.4 6.2c6.2 2.8 8.8 7 8.8 14.3 0 11.3-7.8 17.3-22.9 17.4l-8.6.1-.3-16c-.1-8.7 0-16.6.3-17.3.8-2.3 16.7-1.1 22.7 1.5m2.1 39.7c9.2 3.3 14.6 10.8 14.7 20.1 0 9.4-5.8 16.9-14.9 19.5-3.9 1.1-21 1.4-23.5.4-1.4-.5-1.6-3.3-1.6-20.3 0-10.9.3-20.1.7-20.4 1.2-1.3 20.7-.6 24.6.7m38.3-47.7c3.2 2.3 3.4 5.4 3.4 47.3s-.2 45.1-3.4 47.2c-.6.4 3.8.8 9.8.8 10.5 0 10.8-.1 9.3-1.8-1.5-1.6-1.7-4.5-1.7-20.4V79.3l11.8-.5c14.2-.7 21.4-3 27.4-9 5.7-5.7 7.8-10.9 7.8-19.3 0-8.5-2.1-13.7-7.5-18.4-8.1-7-10.4-7.6-35.5-7.9-12.4-.1-22 .1-21.4.5m41.2 7.9c6.2 3.1 9.1 7.4 9.9 14.6 1 10.3-3.4 18.8-12.1 23.3-4.2 2.1-6.4 2.5-13.3 2.5H253V52.2c0-11.5.3-21.2.7-21.5.3-.4 4.5-.7 9.3-.7 7.2 0 9.4.4 13.8 2.6m34.6-7c1.4 1.4 1.6 6.9 1.6 46.1 0 40.1-.2 44.8-1.7 46.5s-1.2 1.8 9.2 1.8h10.8l-1.9-2.1c-1.8-2-1.9-4.2-1.9-45.9s.1-43.9 1.9-45.9l1.9-2.1h-10.7c-9.8 0-10.6.1-9.2 1.6"/><path fill="#000040" fill-opacity=".9" d="M157.5 72c0 23.9.1 33.7.2 21.8.2-12 .2-31.6 0-43.5-.1-12-.2-2.2-.2 21.7m81 0c0 23.9.1 33.7.2 21.8.2-12 .2-31.6 0-43.5-.1-12-.2-2.2-.2 21.7m89 0c0 23.4.1 32.9.2 21.3.2-11.7.2-30.9 0-42.5-.1-11.7-.2-2.2-.2 21.2M172.4 47.5c0 9.3.2 13.3.3 8.8.2-4.5.2-12.2 0-17-.1-4.8-.3-1.2-.3 8.2M212 31.4c0 .2.8 1 1.8 1.7 1.5 1.3 1.6 1.2.3-.4s-2.1-2.1-2.1-1.3M300.2 50c0 1.9.2 2.7.5 1.7.2-.9.2-2.5 0-3.5-.3-.9-.5-.1-.5 1.8m-101.3 8.7c-1.3 1.6-1.2 1.7.4.4.9-.7 1.7-1.5 1.7-1.7 0-.8-.8-.3-2.1 1.3M172.4 92c0 11.3.2 15.9.3 10.2.2-5.6.2-14.8 0-20.5-.1-5.6-.3-1-.3 10.3M206 78.5c1.3 1.4 2.6 2.5 2.8 2.5.3 0-.5-1.1-1.8-2.5s-2.6-2.5-2.8-2.5c-.3 0 .5 1.1 1.8 2.5"/><path fill="#000040" fill-opacity=".8" d="M210.9 60.7c-1.3 1.6-1.2 1.7.4.4s2.1-2.1 1.3-2.1c-.2 0-1 .8-1.7 1.7m-35.1 4c1.8.2 4.5.2 6 0s0-.4-3.3-.4-4.5.2-2.7.4m2 7c2.9.2 7.4.2 10 0s.2-.3-5.3-.3-7.6.1-4.7.3m41.2 3.7c0 .2.8 1 1.8 1.7 1.5 1.3 1.6 1.2.3-.4s-2.1-2.1-2.1-1.3m-13.1 31.3c-1.3 1.6-1.2 1.7.4.4s2.1-2.1 1.3-2.1c-.2 0-1 .8-1.7 1.7m14 4c-1.3 1.6-1.2 1.7.4.4.9-.7 1.7-1.5 1.7-1.7 0-.8-.8-.3-2.1 1.3"/><path fill="#BF4040" d="M102.1 42.6c0 1.1.3 1.4.6.6.3-.7.2-1.6-.1-1.9-.3-.4-.6.2-.5 1.3m-27 2c0 1.1.3 1.4.6.6.3-.7.2-1.6-.1-1.9-.3-.4-.6.2-.5 1.3m-38 7c0 1.1.3 1.4.6.6.3-.7.2-1.6-.1-1.9-.3-.4-.6.2-.5 1.3m42 6c0 1.1.3 1.4.6.6.3-.7.2-1.6-.1-1.9-.3-.4-.6.2-.5 1.3m-14.1 2c0 .1.8.8 1.7 1.5.9.8 1.4.9 1 .2-.4-.6-.1-1.3.5-1.6.7-.3.3-.4-.9-.4-1.3.1-2.3.2-2.3.3M45.5 65c1 1.1 2 2 2.3 2s-.3-.9-1.3-2-2-2-2.3-2 .3.9 1.3 2m33 7c-.4.6-1.1.7-1.7.4-.7-.4-.8-.2-.4.5.6.9 1.1.9 2.2 0 1.4-1.1 1.8-1.9 1-1.9-.3 0-.8.5-1.1 1m-17.6 1.7c-1.3 1.6-1.2 1.7.4.4.9-.7 1.7-1.5 1.7-1.7 0-.8-.8-.3-2.1 1.3m15.7 4.1c-.3.5.1.9.9.9s1.2-.4.9-.9c-.3-.4-.7-.8-.9-.8s-.6.4-.9.8m-23.5 24.8c0 1.1.3 1.4.6.6.3-.7.2-1.6-.1-1.9-.3-.4-.6.2-.5 1.3"/><path fill="#408080" fill-opacity=".3" d="M162.8 120.7c5.7.2 14.7.2 20 0 5.3-.1.7-.3-10.3-.3s-15.4.2-9.7.3"/><path fill="#8080BF" fill-opacity=".1" d="M328.5 72c0 22.8.1 32.2.2 20.8.2-11.5.2-30.1 0-41.5-.1-11.5-.2-2.1-.2 20.7"/><path fill="#000040" fill-opacity=".1" d="M173.4 47.5c0 8.8.2 12.3.3 7.7.2-4.6.2-11.8 0-16-.1-4.2-.3-.5-.3 8.3m0 44.5c0 10.7.2 15.1.3 9.7.2-5.3.2-14.1 0-19.5-.1-5.3-.3-.9-.3 9.8"/><path fill="#404040" fill-opacity=".2" d="M253.4 51.5c0 10.4.2 14.6.3 9.2.2-5.4.2-13.9 0-19-.1-5.1-.3-.7-.3 9.8m0 46c0 9.3.2 13.3.3 8.8.2-4.5.2-12.2 0-17-.1-4.8-.3-1.2-.3 8.2"/><g fill="#BF0000" stroke-width="0"><path d="M35.9 41.2c-.1.7-.2 2.5-.3 4 0 1.5-1 3.4-2.1 4.2l-2 1.5 2 .1c1.7 0 1.7.2.5 1-1.3.8-1.2 1 .3 1 .9 0 1.7.4 1.7 1 0 .5-.6.7-1.3.4-.8-.3-1.9.1-2.5.9-1 1.2-.7 1.4 1.5 1 2.5-.4 2.6-.3 1.1 1-1.9 1.5-1.4 2.9.8 2 .8-.3 1.4 0 1.4.7s.8 1 2 .7c2.5-.7 6 4.1 3.9 5.4-.8.5-1.7.9-2.1.9-.5 0-.8.7-.8 1.5 0 .9-.6 1.2-1.5.9-1-.4-1.5 0-1.5 1.1 0 1.4-.3 1.5-1.4.6s-1.5-.8-2 .4c-.8 2.1 2 3.1 4.1 1.4.9-.8 2.8-1.9 4.2-2.6 1.4-.6 2-1.2 1.3-1.2-1-.1-1-.5.2-1.7 1.5-1.4 4.1-1.1 3.2.5-.3.3.3.7 1.2.7.9.1 3.1.4 4.7.8 1.9.4 1.5 0-1.1-.9-2.8-1.1-6-3.6-9.4-7.6l-5.2-6v-7.5c-.1-4.1-.2-7.4-.4-7.4s-.5.6-.5 1.2m36.9 3.2c2.1 4.3 2.2 4.3 2.2.9 0-2.1-.6-3.2-1.9-3.6-1.7-.4-1.7-.3-.3 2.7m-43.3.6c.3.5.8 1 1.1 1 .2 0 .4-.5.4-1 0-.6-.5-1-1.1-1-.5 0-.7.4-.4 1m-13 3c-.3.5-.1 1 .4 1 .6 0 1.1-.5 1.1-1 0-.6-.2-1-.4-1-.3 0-.8.4-1.1 1m9.8.7c-.7.3-1.2 1.4-1.2 2.6.1 1.7.2 1.8.6.4.2-.9 1.1-1.7 1.8-1.7.9 0 1.2.7.9 1.7-.5 1.5-.4 1.6.5.3.6-.8 1.1-1.8 1.1-2.1 0-1-2.3-1.7-3.7-1.2M3.5 51c.3.5.8 1 1.1 1 .2 0 .4-.5.4-1 0-.6-.5-1-1.1-1-.5 0-.7.4-.4 1m6.8.4c.3.7.1 1.8-.4 2.3-.6.6-.3 1 .8 1 1 0 2.5-.7 3.3-1.6 1.3-1.3 1.3-1.4-.2-.8-1.2.4-1.8.2-1.8-.8 0-.8-.5-1.5-1.1-1.5s-.9.6-.6 1.4m7.7 1.7c0 .5.5.7 1 .4.6-.3 1-.8 1-1.1 0-.2-.4-.4-1-.4-.5 0-1 .5-1 1.1m121.7 1.3c-.4.9-1.4 1.2-2.6.9s-2.1-.1-2.1.6c0 .5.7.8 1.5.5.8-.4 1.5-.1 1.5.6 0 .6.5.8 1 .5.6-.3 1 .1 1 1.1 0 1.1-.6 1.5-2 1.1-1.1-.3-2-.1-2 .4 0 1.9-3.7.8-4.8-1.4-.8-1.7-1.1-1.8-1.1-.5-.1 1.3-.9 1.8-3.1 1.8-1.6 0-3-.4-3-.9s-.8-1.2-1.7-1.6c-1-.3-.3 1 1.7 3.1 1.9 2 3.1 3.5 2.5 3.2-.5-.3-3.1-.9-5.7-1.2-4.3-.6-4.7-.5-4.1 1.1.3 1 .3 1.5-.1 1.1-.4-.3-.9-1.4-1.1-2.5-.2-1-.4-1.9-.4-2.1-.1-.2-.8.4-1.7 1.2-.8.9-2.5 1.6-3.6 1.6h-2.1l2 2.2c1.1 1.3 3 4.5 4.2 7.3 1.2 2.7 3.6 7.1 5.3 9.7 1.6 2.7 2.8 5.5 2.5 6.2-.3.8-2.3 1.8-4.4 2.1-4.3.7-12.8 2.9-15.7 4.1-1.1.4-1.7.4-1.4-.2.3-.5-1.4-1.9-3.7-3-3.5-1.8-4.2-1.9-4.1-.7 0 .9-.5 1.8-1.3 2.1s-1.1 0-.7-.7c.5-.7.1-.9-.8-.5-2 .8-2 2 0 2.8 2.2.8 4.4.8 4.3-.2-.3-2 .2-3.2 1.2-2.7.6.4.8 1 .5 1.3s.3 1.2 1.5 2c1.1.8 1.8 2 1.5 2.8-.7 1.8.4 1.8 1.8 0 .6-.8 2.1-1.7 3.4-2.1 1.9-.6 2.2-.3 2.2 2.4 0 3 1.3 4.1 2.5 2.1.6-.9 7.9-.5 9.6.6.5.3.9.1.9-.4s1.1-.7 2.5-.4c2.1.4 2.4.1 1.9-1.4-.4-1.4-.3-1.6.4-.5.5.7 1.5 1.1 2.1.7s.9-.2.6.6c-.4.9.3 1.4 2 1.6 1.4.1 2.5-.3 2.5-.9 0-.7.6-.7 1.7.2 1.1 1 1.4 1 .9.1s.3-1.2 2.9-1.2c2 0 3.4.4 3 .9-.3.5-.1 1.2.5 1.6s1-.5 1-2c0-1.4-.7-2.8-1.5-3.1-.8-.4-1.2-1-.9-1.5s.9-.7 1.4-.4.9-8.3 1-20.5c0-11.5-.2-21-.4-21s-.6.6-.9 1.4m-8.7 7.1c0 .8-.7 1.5-1.5 1.5-2.6 0-1.8-2 1.3-2.9.1-.1.2.6.2 1.4m8 .5c-.8.5-1 1-.4 1 .7 0 1.2 1.7 1.1 4.4 0 3.8-.3 4.3-2.1 3.9-1.7-.4-1.8-.3-.6.6.9.7 1 1.1.3 1.1-.6 0-1.5-.5-1.8-1-.4-.7-1.3-.6-2.6.1-1.1.5-2.5.8-3.2.5-.7-.2-.4-.5.6-.5 1-.1 1.5-.6 1.2-1.1-.3-.6.1-1 .9-1 .9 0 1.6-.6 1.7-1.3 0-.6.4-.3.8.8.8 1.9.9 1.8 2.1-.8.7-1.5 1-3 .5-3.5-.4-.4-1-.1-1.2.5-.8 2.1-2 1.5-1.9-1 .1-2.6 1.3-3.7 4.1-3.7 1.7 0 1.7.2.5 1m-6.5 3c.4.6-.7 1-2.7.9-2.7 0-3-.2-1.3-.9 2.7-1.2 3.3-1.2 4 0m-17.7 2.5c-.3.3-.9-.2-1.2-1.2-.6-1.4-.5-1.5.5-.6.7.7 1 1.5.7 1.8m12.8 2.6c-2.7.7-3.1.4-1.5-1.4 1-1 1.6-1.1 2.5-.3s.7 1.2-1 1.7m5.9 4.9c.3.5-.1 1-1 1s-1.3-.5-1-1c.3-.6.8-1 1-1s.7.4 1 1m1.6 3.3c-1 .9-1.1.8-.5-.6.3-1 .9-1.5 1.2-1.2s0 1.1-.7 1.8m-11.9.1c.7-.4.8-.2.4.5-.9 1.3-2.6.5-2.5-1.2 0-.9.2-.8.6.1.2.6 1 .9 1.5.6m-11.7 19.4c-.7.8-3.5-.7-3.5-1.8 0-.6.7-.6 2 .2 1 .7 1.7 1.4 1.5 1.6m23.9-1.3c-1 .8-2.3 1.5-2.8 1.5-.6 0-.1-.7 1-1.5 1-.8 2.3-1.5 2.8-1.5.6 0 .1.7-1 1.5m-120-41c.3 2.1 1.6 3.1 1.6 1.2 0-.9-.4-1.8-.9-2.1-.5-.4-.8.1-.7.9"/><path d="M132 55.1c0 .5.5.7 1 .4.6-.3 1-.8 1-1.1 0-.2-.4-.4-1-.4-.5 0-1 .5-1 1.1M25.5 56c-.3.5-.2 1 .4 1 .5 0 1.3-.5 1.6-1 .3-.6.2-1-.4-1-.5 0-1.3.4-1.6 1m54.6.6c0 1.1.3 1.4.6.6.3-.7.2-1.6-.1-1.9-.3-.4-.6.2-.5 1.3m38.9 1c0 1.3 1.8 3.9 2.4 3.4.2-.3-.2-1.4-1-2.4-.8-1.1-1.4-1.6-1.4-1M88.3 59c-3 1.2-2.9 2 0 2 1.4 0 2.4-.6 2.4-1.5 0-.8-.1-1.5-.1-1.4-.1 0-1.1.4-2.3.9M8.5 60c.3.5.8 1 1.1 1 .2 0 .4-.5.4-1 0-.6-.5-1-1.1-1-.5 0-.7.4-.4 1m18.5.1c0 .5.5.7 1 .4.6-.3 1-.8 1-1.1 0-.2-.4-.4-1-.4-.5 0-1 .5-1 1.1m3.7 0c.7.7 1.5 1 1.8.7s-.2-.9-1.2-1.2c-1.4-.6-1.5-.5-.6.5m72.8 1.9c2.7 1.2 4.3 1.2 2.5 0-.8-.5-2.2-.9-3-.9-1 0-.8.3.5.9m-66.4 2.7c-.1.6.3 1.4.7 1.7 1.2.7 3.8-1.2 2.9-2.1-.5-.4-1.2-.1-1.6.6-.7 1.1-1 1.1-1.4 0-.3-.9-.6-1-.6-.2M28.7 67c-.4 1.6-.2 2 1 1.6.8-.3 2.1-.6 2.9-.6s1.4-.4 1.4-1c0-.5-.7-.7-1.6-.3-.9.3-1.9 0-2.4-.6-.5-.9-.9-.6-1.3.9m-12.1 2.6c-.3.8.8.8 3.9.1 4.7-1.1 7.6.4 6.7 3.2-.4 1.2-.3 1.2 1 0s1.2-1.6-.7-3.1c-2.5-2-10.2-2.1-10.9-.2M31 70c0 .5.5 1 1.1 1 .5 0 .7-.5.4-1-.3-.6-.8-1-1.1-1-.2 0-.4.4-.4 1m40.8-.3c.6.2 1.8.2 2.5 0 .6-.3.1-.5-1.3-.5s-1.9.2-1.2.5"/><path d="M23 72c0 .5.7 1 1.6 1 .8 0 1.2-.5.9-1-.3-.6-1-1-1.6-1-.5 0-.9.4-.9 1m21 0c0 .5.5 1 1.1 1 .5 0 .7-.5.4-1-.3-.6-.8-1-1.1-1-.2 0-.4.4-.4 1m16.5 0c.3.5-.7 1.8-2.3 2.7-1.6 1-2.7 2.3-2.5 2.9s-.5 1.4-1.7 1.7c-1.1.3-2 .1-2-.3 0-.5-1.6-.4-3.6.1-2.5.7-3.9.7-4.9-.1-1.1-.9-1.4-.7-1.2.9.1 1.4.6 2 1.5 1.6.7-.3 1 0 .7.6-.4.6-1.3.8-2.1.5-.7-.3-1.6-.1-1.9.4-1 1.6-2.3 1.1-2-.8.2-.9.4-2.1.4-2.5.1-.5.6-.5 1.3-.1.6.4.8.3.5-.3-.8-1.2-6.5-.5-7.4 1-.3.6-.1.7.5.3 1.6-1 1.5.2-.2 1.9-1.2 1.2-1.5 1.1-1.9-.5-.3-1.1-1.3-2-2.2-2-1 0-1.4.5-.9 1.2.6 1 .4 1-.7 0-1.9-1.8-2.8-1.5-2.2.8.3 1.2 0 2-.8 2-.7 0-1 .3-.7.6.4.3 1.6 0 2.8-.6 2-1.1 2.1-1 1 1.2-1 1.9-1 2.1.1 1 .7-.6 1.7-1.2 2.2-1.2 1.3 0-.4 4.3-2.2 5.7-1.4 1-1.3 1.3.8 2.1 2.4.9 2.4.9.3 1.4-1.2.4-2.2.2-2.2-.3s-.8-.9-1.7-.9c-1.5 0-1.6.2-.3 1 .8.5 1.1 1 .5 1.1-.5 0-.1.4 1 .9 1.8.8 1.7.9-.7.9-1.6.1-2.8-.4-2.8-1.1 0-.6-.3-.8-.7-.4-1.1 1.1-1.1 5-.1 6.3.8 1 .4 1.3-1.4 1.3-1.4 0-2.8-.3-3.2-.7-.3-.4-1.5-.7-2.6-.8-1.9-.2-1.9-.1-.3 1.8 1 1.1 1.3 1.7.7 1.4-2.2-1.3-2.5 2.6-.4 4.8 1.1 1.2 2 2.7 2 3.4s.5.9 1 .6c.6-.3 1 .1 1 .9 0 .9.7 1.6 1.5 1.6s1.4-.6 1.3-1.3c-.4-1.6 3.4-1 4.8.9 1.3 1.6 2.9 1.9 1.9.4-.3-.6-.2-1 .4-1 .5 0 1.3.4 1.6 1s1.1 1 1.8 1c.6 0 .3-.6-.8-1.3-1.4-1.1-1.5-1.6-.5-2.2q1.35-.75.6.3c-.4.8 0 1.2 1.1 1.2s2.8.7 3.9 1.5c1 .9 1.3 1.4.5 1.3-.7-.2-1.5.2-1.8.9-.3.8.6.9 3.4.3 2.3-.6 3.9-.5 4.1 0 .2.6 1 1 1.8 1s1.7.6 2 1.3c.5 1.5.7 1.5 7.2 1.8 2.3.1 4.2.5 4.2.9 0 1.4 4.8 2 7.6 1 1.5-.6 3.6-2 4.6-3.2s1.8-1.6 1.8-1.1c0 .6.9 1.3 1.9 1.6 1.4.3 1.8.1 1.4-.9s0-1.2 1.3-.7c1.2.4 1.5.3 1-.5-.4-.7-1.4-1.2-2.3-1.2-1 0-1.3-.6-.9-1.6.3-.9.6-1.7.6-2 0-.2.7-.1 1.6.3 1.4.5 1.4.2-.2-2.3-2.2-3.4-3.5-4.5-4.6-3.8-.4.3-.8 0-.8-.6 0-.8.7-.9 1.8-.5.9.4 2.6.7 3.6.7 1.1-.1 2.9.4 4 .9 1.6.8 1.6.6-.4-1-2-1.7-2.2-2.1-.7-2.1.9 0 1.7-.5 1.7-1 0-1.5-2.6-1.2-4.3.5-2.2 2.1-3 .5-1-1.9 2-2.3-6.8 4.5-10.6 8.2-1.6 1.6-3 2.2-4.5 1.7-1.1-.3-2.5-.7-3.1-.8-2.5-.6-3.3-2-3.8-6.4-.4-2.7-.9-6.2-1.1-7.8-1.5-9.2-1.5-11.1.4-15 2.5-5.2 7.7-11.4 10.4-12.5 1.9-.8 1.8-.9-.7-.9-1.6-.1-2.6.3-2.2.9M46 90c0 .5-.5 1-1.1 1-.5 0-.7-.5-.4-1 .3-.6.8-1 1.1-1 .2 0 .4.4.4 1m-17.6 24.2c-.5.7-1.1.6-1.9-.5-.7-.9-1.6-1.3-2-.9-.5.4-.5.1-.1-.6.5-.9 1.2-.9 2.7-.2 1.1.6 1.6 1.6 1.3 2.2m11.3 3c-.3.8-.6.5-.6-.6-.1-1.1.2-1.7.5-1.3.3.3.4 1.2.1 1.9m2.4-44.4c-.1.9-.8 1.1-2.1.7-2.4-.8-2.7 1-.3 1.9 2 .8 3.7-.7 3-2.6-.4-1-.6-1.1-.6 0M20.5 74c-.3.5-.1 1 .4 1 .6 0 1.1-.5 1.1-1 0-.6-.2-1-.4-1-.3 0-.8.4-1.1 1"/><path d="M30.4 75.4c-.3.8-1.4 1.8-2.5 2.1-1.1.4-1.6 1.1-1.3 1.7.4.6 1 .6 1.7-.1.6-.6 2.1-1.1 3.4-1.1s2.3-.5 2.3-1c0-.6 1.2-.8 2.8-.5 2.4.6 2.5.5.8-.6-1.5-.9-2.3-.9-3.9 0-1 .7-1.6.8-1.3.2.4-.5.2-1.2-.4-1.6-.6-.3-1.3.1-1.6.9m14.3-.7c-.3.5 0 1.3.7 1.9.8.8 1.5.7 2.3-.2.9-.9.9-1.4-.3-1.8-2-.8-2.2-.8-2.7.1m-21.2 1.2c-1.6.3-2.5.9-2 1.3.6.3 2.4 0 4-.7 3.3-1.5 2.7-1.6-2-.6M88 79.4c0 .8.4 1.7.9 2 .5.4.7-.3.4-1.4-.6-2.3-1.3-2.6-1.3-.6m-4 5.2c0 2.5.4 4.3.9 3.9.5-.3.8-1.8.5-3.3l-.4-2.7 3 3.3c1.6 1.8 3 2.9 3 2.6 0-.4-1.6-2.4-3.5-4.5L84 80zm-4.3-.7c-.3 1.3-.1 1.8.9 1.4.7-.2 1-1.1.7-1.9-.7-1.9-1-1.8-1.6.5m5.4 7.3c0 .9-1.2 3-2.6 4.6-2.3 2.7-2.4 4.2-.3 4.2.5 0 .7-.4.4-.9-.8-1.2 2-3.4 3.3-2.7.5.4 1.2.2 1.6-.4.3-.5.2-1-.4-1-.5 0-1.2-1.2-1.4-2.8-.2-1.5-.5-1.9-.6-1m9.9 5.9c0 .5.5.7 1 .4.6-.3 1-.8 1-1.1 0-.2-.4-.4-1-.4-.5 0-1 .5-1 1.1m-76.5 2.6c.3.8.5 1.7.5 1.9s.4.4.8.4.8-.8.8-1.8-.6-1.9-1.4-1.9c-.7 0-1 .7-.7 1.4m59.5 1.2c0 .6.5 1.3 1 1.6.6.3 1-.1 1-.9 0-.9-.4-1.6-1-1.6-.5 0-1 .4-1 .9m8 2.1c0 .5.5 1 1 1 .6 0 1-.5 1-1 0-.6-.4-1-1-1-.5 0-1 .4-1 1m46 6c0 .5-.6 1-1.4 1s-1.7.6-1.9 1.2c-.4.9-.6.8-.6-.2-.1-1.7-4.1-2.5-4.1-.9 0 .6-.9.5-2.1-.2-1.7-.9-2-.8-1.6.3.2.7-.2 2-1 3-1 1.1-1.1 1.8-.4 2.3.6.3 1.1 0 1.1-.8 0-.9 1.3-1.4 4.1-1.5 3.6-.2 4 0 3.4 1.8-.5 1.7-.2 2 2.1 2 2 0 2.4-.3 1.7-1.3-1.2-1.5-1.3-4.8-.1-4.1.4.3.8 1.2.8 2s.8 1.4 1.8 1.3c.9 0 1.2-.3.5-.5-.7-.3-.9-1.2-.6-2s0-1.4-.6-1.4-.8-.7-.5-1.5c.4-.8.3-1.5 0-1.5s-.6.4-.6 1m-42.1 1.7c-.1 1-.1 2.5 0 3.3.1 1.2 0 1.2-.7.2s-1.1-1-2.2.3c-.7.8-1.9 1.5-2.6 1.5-1 0-.8-.6.6-2 1.1-1.1 2-2.6 1.9-3.3 0-.6-.5-.2-1.1 1-.9 1.8-1.4 2-2.9 1-2-1.3-2.4-1.1-3.3 1.9-.6 1.8.1 2.6 3.9 4.7 2.5 1.4 4.5 2.2 4.5 1.8 0-.5 1-1.9 2.3-3.2 1.2-1.4 3-3.8 4.1-5.3 1.8-2.9 1.8-2.9-.3-2.3-1.1.3-2.1.1-2.1-.4 0-1.7-2-.9-2.1.8m-7.9 4.8c0 .8-.4 1.5-1 1.5-.5 0-.7-.7-.4-1.5.4-.8.8-1.5 1-1.5s.4.7.4 1.5m-5-3.6c0 1.2.5 2.1 1 2.1.6 0 1-.6 1-1.4s-.4-1.8-1-2.1c-.5-.3-1 .3-1 1.4m-76 3c0 3.5 0 3.5 1.6 1.3.8-1.2 2.1-2.2 2.7-2.2.7 0 .6.4-.3 1-1.2.7-1 .9.7.7l2.3-.1-2-2.1c-3.1-3.3-5-2.8-5 1.4m11.7-2.5c-1.7 1.3-1.7 1.4 0 2 1 .4 1.4.4 1 0s-.2-1.3.4-2.1c1.4-1.7.9-1.6-1.4.1m98.6 1.6c.1 1.1.4 2 .8 2 1 0 1.9-2.7 1.2-3.4-1.2-1.2-2.2-.5-2 1.4"/><path d="M121 116c-1.3 1.1-2 2-1.6 2s1.9-.9 3.3-2 2.1-2 1.6-2c-.6 0-2 .9-3.3 2m-101.5 2c-.3.5-.1 1 .4 1 .6 0 1.1-.5 1.1-1 0-.6-.2-1-.4-1-.3 0-.8.4-1.1 1m7.5 2c0 .5.5 1 1 1 .6 0 1-.5 1-1 0-.6-.4-1-1-1-.5 0-1 .4-1 1m-16 12.9c0 .6-.9 1.1-2.1 1.1-2.6 0-2 2.4.7 2.8 1 .1 2.5-.2 3.3-.7 1.2-.8 1.2-1.2-.2-2.6-1-.9-1.7-1.2-1.7-.6"/></g><path fill="#BF0000" fill-opacity=".9" d="M.3 114.5c0 2.7.2 3.8.4 2.2.2-1.5.2-3.7 0-5-.2-1.2-.4 0-.4 2.8"/><path fill="#000040" fill-opacity=".5" d="M314.8 120.7c3.4.2 8.8.2 12 0 3.1-.2.3-.3-6.3-.3s-9.2.1-5.7.3"/></svg>