<svg xmlns="http://www.w3.org/2000/svg" version="1.0" viewBox="0 0 600 600"><g fill="#FFF" stroke-width="0"><path d="M0 300v300h600V0H0zm570 0v270H30V30h540z"/><path d="M252.7 172.1c-4.6 2.4-4.3 2-28.1 43.4-18.5 32-19.6 34.2-19.6 39 0 4.9 1.3 7.4 27.1 52.1 14.9 25.8 27.6 47.9 28.3 49.2 1.2 2.2 1.8 1.4 10.7-14 13.4-23.2 13.8-19.8-6.5-54.8-20.2-34.8-19.8-30.9-6.2-54.5 5.4-9.4 10.8-18.1 12-19.3 4.4-4.9 6-5.2 29.9-5.2 25.7 0 26.5.2 32.2 9.4 12.1 19.4 10.5 18.6 35.1 18.6h19.3l-9.6-16.8c-5.3-9.2-10-16.9-10.5-17-.4-.2-.8-.8-.8-1.4 0-1.6-12.6-23-15.1-25.7-4.7-5-5.8-5.1-51.6-5.1-40.7.1-43 .2-46.6 2.1"/><path d="M283.8 264.2c1.1 1.8 5.1 8.8 9 15.4 7.1 12 11.3 16.9 15.5 17.9 1.2.3 16.6.6 34.2.7 31.4.3 32.1.3 35.7 2.6 2.9 1.8 5.8 6 14.1 20.5 5.8 10 10.8 19.8 11.2 21.8.8 4.6-.4 7.5-10.6 25.3-13.5 23.3-13.8 23.6-27.9 23.6-11.7 0-17 1.4-20.8 5.3-1.7 1.8-6.9 9.8-11.5 17.9l-8.5 14.8h34.1c20.4 0 35.7-.4 37.9-1 2-.6 5-2.3 6.5-3.9 1.5-1.5 12-18.7 23.2-38.2 17.9-30.9 20.5-36 20.9-40.5.3-3.5-.1-6.1-1.3-8.5-3.6-7.1-26-45.4-26.7-45.7-.4-.2-.8-.8-.8-1.4 0-1.6-11.8-21.8-14.4-24.6-4.7-5.3-3.3-5.2-64.6-5.2h-57.2z"/><path d="M186.7 281.2C177.3 296 153 340 152.5 343c-.5 2.8-.1 5.1 1.3 8.3 3.9 8.9 40.4 71.3 43.2 73.9 1.6 1.5 4.6 3.2 6.7 3.7 5.3 1.5 82.5 1.5 87.8 0 2.2-.6 5.3-2.6 7-4.4 2.1-2.3 49.2-82.7 57.3-97.9.3-.5-7.6-.7-18.4-.4-19.7.5-24 1.4-27.6 5.4-.9 1.1-8.2 13.4-16.3 27.4s-15.6 26.6-16.8 27.9c-4.2 4.6-7.2 5.1-29.2 5.1s-25-.5-29.2-5.1c-1.2-1.3-6.7-10.3-12.2-19.9-12.5-21.7-12.5-21.7-4.5-36.7 7.6-14.1 7.5-15.2-4.2-35.6-4.7-8.3-8.8-15.4-8.9-15.5-.2-.2-1 .7-1.8 2"/></g><path fill="#4080BF" d="M247.9 173.7c-1.3 1.6-1.2 1.7.4.4.9-.7 1.7-1.5 1.7-1.7 0-.8-.8-.3-2.1 1.3M370.5 237l-18 .6 17.7.2c10.9.1 17.9-.2 18.3-.8.3-.6.5-.9.3-.8s-8.4.5-18.3.8m-167.3 17.5c0 1.6.2 2.2.5 1.2.2-.9.2-2.3 0-3-.3-.6-.5.1-.5 1.8m46 0c0 1.6.2 2.2.5 1.2.2-.9.2-2.3 0-3-.3-.6-.5.1-.5 1.8m30.8 5.2c0 .7 42 .7 93.5 0 11-.1-5.5-.3-36.7-.5-31.3-.1-56.8.1-56.8.5m46.8 40c8.3.2 22.1.2 30.5 0 8.3-.1 1.5-.3-15.3-.3s-23.6.2-15.2.3m2.5 26c5.4.2 13.9.2 19 0 5.1-.1.7-.3-9.8-.3-10.4 0-14.6.2-9.2.3m-20.4 5c-1.3 1.6-1.2 1.7.4.4s2.1-2.1 1.3-2.1c-.2 0-1 .8-1.7 1.7m93.3 14.3c0 1.9.2 2.7.5 1.7.2-.9.2-2.5 0-3.5-.3-.9-.5-.1-.5 1.8m46 0c0 1.4.2 1.9.5 1.2.2-.6.2-1.8 0-2.5-.3-.6-.5-.1-.5 1.3m-68.8 42.2-1.9 2.3 2.3-1.9c2.1-1.8 2.7-2.6 1.9-2.6-.2 0-1.2 1-2.3 2.2"/><g fill="#004080" stroke-width="0"><path d="M30.5 31.2c-.3.7-.4 122.1-.3 269.8l.3 268.5h539v-539l-269.3-.3c-214.9-.2-269.4 0-269.7 1m124 103.8c-.2 1.1 0 2 .6 2 .5 0 .9.5.9 1.1s-.7.9-1.5.6c-.8-.4-1.7-.1-2.1.5-.5.7-.2.8.6.3 1.3-.8 1.2.7-.5 4.7-.5 1.3-.2 1.8.9 1.8.9 0 2-1 2.5-2.3s1.6-2.9 2.5-3.6c1.4-1.2 1.6-1 1.6 1-.1 1.3-.7 3.5-1.5 4.9-1.8 3.1-1.9 6.7-.2 7.3.9.4.9.8.1 1.4-.6.4-1.5 1.9-1.9 3.3-.7 2.5-.7 2.5 1 .5s1.7-2 1 0c-.3 1.1-1.1 4.1-1.6 6.7-.6 2.6-2.1 6.3-3.5 8.3-1.3 2-2.7 4.8-3 6.3-2.2 9.1-36.4 65.5-41.4 68.2-2.5 1.3-10.9 1.3-15.1-.1-3.9-1.3-8.9-5.6-8.9-7.7 0-2 7.7-14.9 12-20.2 5-6.1 9.7-13.5 16-25.5 2.9-5.5 5.8-10.7 6.4-11.5 1-1.4 2.1-3.2 6-10.3.6-1.2 2.6-4.3 4.3-6.9 1.7-2.7 5-8.7 7.4-13.5 2.4-4.9 4.9-9.4 5.6-10.1s1.3-2.2 1.3-3.3c0-1.8 2.4-2.5 6.7-2 .7.1 1.7-.8 2.3-1.9 1.4-2.6 2-2.6 1.5 0m44.3 7.4c-1 1.1-1.8 2.5-1.7 3 0 .6.3.5.6-.2.2-.6.9-1.2 1.5-1.2q1.5 0-.6 5.1c-.6 1.3-.1 1.5 2.4 1.1 2.1-.3 3.2-1.1 3.6-2.8.3-1.2 1.6-3 2.9-3.8 2.1-1.4 2.3-1.4 2.7.9.3 1.2.1 3-.4 3.8-.4.9-1 3-1.2 4.7-.3 2.9-.2 3.1 2 2.6 2.6-.7 3.3.8.8 1.8-.8.3-1.2 1-.9 1.6.3.5.1 1-.4 1-.6 0-1.1 1-1.1 2.2.1 2.2.1 2.2 1.8-.5 2.4-3.9 3-3.4 2.5 2-.6 4.9-3.5 12.7-5.3 13.8-.5.3-1 2.1-1 4 0 1.8-.8 4.1-1.7 5.1-1.9 1.8-2 2-8.2 13.6-5.9 11.1-18.2 29.9-26.3 40-6.2 7.6-7.5 8.7-11.6 9.8-10.3 2.6-30.5 2.1-33.5-.9-.4-.4.4-3 1.9-5.7s3.7-6.7 4.9-9c2.2-4.2 4.6-7.7 7.8-11.6.9-1.1 1.7-2.9 1.7-3.8s1.5-4.1 3.3-7.1c1.7-3.1 5-9.1 7.2-13.3 2.2-4.3 4.9-8.7 6-9.9 1.1-1.1 2-2.8 2.2-3.6.1-.9.7-1.7 1.2-1.9.6-.2 1.1-1 1.1-1.7 0-.8.8-1.9 1.8-2.4.9-.6 1.3-1.1.8-1.1s0-1 1.1-2.3c2.3-2.5 4.8-6.6 10.6-17.7 2.1-4.1 4.5-8.2 5.3-9.1.8-.8 1.4-2.5 1.4-3.7 0-1.7.6-2.2 2.8-2.2 2.1 0 2.4.2 1.2 1s-1.2 1-.1 1c.8 0 2-.8 2.7-1.8.7-.9 1.4-1.2 1.4-.5 0 2 4.1.1 5.1-2.4.7-1.9 1.1-2.2 2.2-1.1 1.2 1 1.1 1.6-.5 3.2m4.2.6c0 .5-.7 1-1.5 1s-1.5-.5-1.5-1c0-.6.7-1 1.5-1s1.5.4 1.5 1m143.5 27.2c1.7.9 4.2 2.9 5.6 4.5 2.3 2.5 36.9 61.3 36.9 62.7 0 1.1-36.4.6-40.2-.4-5.4-1.5-9.3-5.2-14-13.4-8.3-14.5-8.6-14.6-34.8-14.6-21.5 0-24.6.6-28.6 5.1-1.2 1.3-6.3 9.6-11.5 18.4-9 15.4-9.3 16.2-9.3 22 0 5.9.2 6.3 15.4 32.5l15.5 26.5v6.5c0 6.4-.2 6.8-8.9 22-4.9 8.5-9.4 16.1-10.1 16.8-.9 1-7.3-9.5-29.4-47.7-15.5-27-28.7-50.7-29.3-52.7-.6-2.4-.6-5 0-7.5 1.6-6.2 42.2-75.8 45.8-78.6 1.8-1.3 5.1-2.8 7.5-3.3 2.4-.4 22.9-.8 45.4-.7 36.1.2 41.4.4 44 1.9m49.8 89.9c2.2.6 5.4 2.5 7.2 4.2 3.3 3.2 40.1 65.9 43.9 75 1.8 4.2 1.9 5.3.8 9.3-1.1 4.1-35.7 65.4-42.1 74.6-1.4 2.1-4.4 4.7-6.7 5.8-3.8 1.9-6 2-40.2 2-19.9 0-36.2-.4-36.2-.8 0-1.7 17.2-30.7 19.8-33.6 4.2-4.5 8-5.6 19.2-5.6 10.7 0 15.1-1.2 18.4-4.9 1-1.1 6.3-9.8 11.7-19.3 13.1-22.9 13.2-20.7-.9-44.7-8.7-15-11.3-18.8-14.2-20.3-3.1-1.6-6.3-1.8-33.8-1.8-34.4 0-37.6-.4-42.5-5.9-2.9-3.2-20.7-32.8-20.7-34.4 0-1.2 112.1-.8 116.3.4m-197.7 34c12.3 21.5 12.3 21.6 4 37.4-4.9 9.3-5.7 11.6-5.3 14.7.6 4.2 18.1 35.5 22.5 40.1 1.4 1.5 4.2 3.2 6.1 3.7 4.7 1.3 38.6 1.3 43.3 0 2-.6 4.9-2.5 6.5-4.3 1.5-1.8 9.1-14.2 16.8-27.7 7.7-13.4 15.4-25.8 17-27.6 1.7-1.7 4.8-3.7 7-4.3 3.7-1 41.5-1.6 41.5-.7 0 .7-55.1 95.9-57.3 99-1.1 1.5-3.8 3.7-6.1 4.7-3.8 1.7-7.3 1.9-47.4 1.9-48 0-47.8 0-52.7-6.4-2.5-3.3-37-62.8-41.1-70.8-2.6-5.1-3-10-1.3-14.5 1.5-4 35.2-62.3 36-62.3.4 0 5.1 7.7 10.5 17.1"/><path d="M145 143.2c-1.2 2.2-1.2 2.2.6.6 1-1 1.5-2 1.2-2.4-.4-.3-1.2.5-1.8 1.8m-3.4 16c-1.4 2.9-2.4 5.3-2.2 5.5.1.2 1.3-1.1 2.5-2.8 1.3-1.7 2-3.3 1.7-3.6s-.1-1.4.5-2.4c.5-1.1.7-1.9.5-1.9-.3 0-1.6 2.3-3 5.2m12-2.5c-.6 1.4-.5 1.5.5.6.7-.7 1-1.5.7-1.8s-.9.2-1.2 1.2m33.4-8.6c0 .6-1.1 2.5-2.4 4.2-3.1 4.3-4.3 6.8-1.7 3.7 1.2-1.4 3-3.5 4.1-4.8 3-3.6 3.2-4.2 1.6-4.2-.9 0-1.6.5-1.6 1.1m6.2 3.5c-.7.8-.8 1.4-.3 1.4 1 0 2.5-1.9 2-2.5-.2-.1-1 .3-1.7 1.1m-2.9 4.6c-1.9 2.5-6.2 12.8-5.3 12.8.5 0 .7.8.4 1.7-.3 1 .2.6 1.1-1 .9-1.5 1.3-3.2 1-3.7-.4-.6-.1-.9.7-.8.8.2 1.2-.5 1.1-1.7-.1-1 .5-3.2 1.4-4.8 1.5-3 1.3-4.6-.4-2.5m14.8 2.6c-.7 1.3-1.1 2.6-.8 2.8.8.8 2.9-2.5 2.5-3.8-.3-.8-.9-.4-1.7 1"/></g><path fill="teal" d="M151.1 145.6c0 1.1.3 1.4.6.6.3-.7.2-1.6-.1-1.9-.3-.4-.6.2-.5 1.3m-10.5 16.6c.3.5 1 .6 1.5.3 1.3-.9 1.1-1.2-.6-1.2-.8 0-1.2.4-.9.9m-13.7 7.5c-1.3 1.6-1.2 1.7.4.4.9-.7 1.7-1.5 1.7-1.7 0-.8-.8-.3-2.1 1.3"/><path fill="#008040" d="M154.5 138c.3.5.8 1 1.1 1 .2 0 .4-.5.4-1 0-.6-.5-1-1.1-1-.5 0-.7.4-.4 1m-3.5 3.1c0 .5.5.7 1 .4.6-.3 1-.8 1-1.1 0-.2-.4-.4-1-.4-.5 0-1 .5-1 1.1m-3.6 6.6c.3.6.2 1.4-.4 1.8-.5.3-1 1.1-1 1.8 0 .6.7.4 1.7-.6 1.4-1.4 1.5-1.9.4-2.9-.9-.9-1.2-.9-.7-.1m7.7 5.6c-.6.8-.6 1.8-.1 2.7.5.8.7 1.7.5 2s.5.7 1.6.7c1 .1 1.9-.3 1.9-.8 0-.6-.4-.8-.9-.4-.6.3-1.5-.3-2-1.4-.9-1.7-.7-2 1.2-2.3 1.8-.3 1.9-.4.5-1-.9-.4-2.1-.1-2.7.5m-3.5 6.3c-.9 2.4-.2 2.6 1.2.4.7-1.1.8-2 .3-2s-1.2.7-1.5 1.6m1.9 3.4c-2 3.9-1.9 5 .2 2 1-1.4 1.7-2.8 1.6-3.2-.2-.4.4-.5 1.2-.2.8.4 1.5.1 1.5-.5 0-2.2-3-1-4.5 1.9m1.7 3.5c-.6 1.3-.7 2.7-.3 3 .5.2 1.2-.7 1.5-2.1.9-3.5.2-4-1.2-.9m-15.7-.5c.3.5.2 1-.3 1s-1.2 1-1.5 2.2c-.6 2.2-.6 2.2 1.3-.2 2.2-2.8 2.5-4 .9-4-.5 0-.7.4-.4 1m-14.4 7.3c-1.3 2.1-1.2 2.1.5.5 1-1 1.6-2 1.3-2.2-.3-.3-1.1.5-1.8 1.7m28.2-1.1c-2 2.6-2.6 4.1-1.5 3.4 1.2-.7 3.6-4.6 2.9-4.6-.3 0-.9.6-1.4 1.2m-4.2 9.4c0 1.1.3 1.4.6.6.3-.7.2-1.6-.1-1.9-.3-.4-.6.2-.5 1.3m-1.8 3.6c-1.7 2.1-10.3 18.4-10.3 19.4 0 .5 1.9-2.5 4.1-6.6s5-9 6.1-10.8c1.9-3.1 2-4.4.1-2m-32.8 5.9c-.4.6-.5 1.2-.2 1.5.2.3.7-.2 1-1.1.7-1.7.1-2-.8-.4m-5 9.9c-.9 1.6-1.3 3-1.1 3 .3 0 1.2-1.4 2.1-3 .9-1.7 1.3-3 1.1-3-.3 0-1.2 1.3-2.1 3m-3.5 6c-.6 1.1-.8 2-.6 2 .3 0 1-.9 1.6-2s.8-2 .6-2c-.3 0-1 .9-1.6 2m29 1c-.6 1.1-.8 2-.6 2 .3 0 1-.9 1.6-2s.8-2 .6-2c-.3 0-1 .9-1.6 2m-32.5 4.6c-.9 1.5-1.2 2.3-.6 2 1.1-.7 3.5-4.6 2.8-4.6-.3 0-1.2 1.2-2.2 2.6m29.5.4c-.6 1.1-.8 2-.6 2 .3 0 1-.9 1.6-2s.8-2 .6-2c-.3 0-1 .9-1.6 2m-35.3 7.2c-3.3 4.2-6.2 8.8-5.4 8.8.2 0 1.7-2 3.3-4.5 1.5-2.5 3.5-4.5 4.3-4.5s1.1-.3.8-.7c-.4-.3-.2-1.2.4-2 .6-.7.9-1.3.6-1.3s-2.1 1.9-4 4.2M129 218c-.6 1.1-.8 2-.6 2 .3 0 1-.9 1.6-2s.8-2 .6-2c-.3 0-1 .9-1.6 2m-3.4 5.7c-.6 1.4-.5 1.5.5.6.7-.7 1-1.5.7-1.8s-.9.2-1.2 1.2M89 232c-.6 1.1-.8 2-.6 2 .3 0 1-.9 1.6-2s.8-2 .6-2c-.3 0-1 .9-1.6 2m-3 5c-.6 1.1-.8 2-.6 2 .3 0 1-.9 1.6-2s.8-2 .6-2c-.3 0-1 .9-1.6 2m1 6.5c1.3 1.4 2.6 2.5 2.8 2.5.3 0-.5-1.1-1.8-2.5s-2.6-2.5-2.8-2.5c-.3 0 .5 1.1 1.8 2.5"/><path fill="#408040" d="M152.5 136c-.3.5-.1 1 .4 1 .6 0 1.1-.5 1.1-1 0-.6-.2-1-.4-1-.3 0-.8.4-1.1 1m-4.4 2.9c-.7.5-1.1 1.5-.9 2.2.3 1 .8.7 1.7-.9 1.3-2.4 1.2-2.6-.8-1.3m5.4.2c-.4.6-.5 1.2-.2 1.5.2.3.7-.2 1-1.1.7-1.7.1-2-.8-.4m-3.4 1.2c-1.2 1.6-.5 2.7 1.8 2.7 1.3 0 1.3-.2.2-.9-.7-.5-1-1.4-.7-2 1-1.5.1-1.4-1.3.2m-5.8.4c-1.5.5-1.7 3.9-.4 4.7.5.4.8-.2.6-1.1-.1-1 .2-2.4.8-3.1 1-1.3.9-1.3-1-.5m12.2 1.4c-.4.6-.5 1.2-.2 1.5.2.3.7-.2 1-1.1.7-1.7.1-2-.8-.4M148 145c0 .6.5.8 1.1.4.8-.4.9 0 .4 1.5-.4 1.3-.2 2.1.5 2.1 1.5 0 .8-4.2-.7-4.8-.7-.2-1.3.1-1.3.8m-9 3.4c0 .2.8 1 1.8 1.7 1.5 1.3 1.6 1.2.3-.4s-2.1-2.1-2.1-1.3m16.7 2.5c-.4 1.7-.3 2.1.5 1.3.5-.5.8-1.6.6-2.3-.3-.8-.7-.3-1.1 1m-17.1.4c.3 1 .9 1.5 1.2 1.2s0-1.1-.7-1.8c-1-.9-1.1-.8-.5.6m-.6 12.2c0 .8.2 1.5.4 1.5s.6-.7 1-1.5c.3-.8.1-1.5-.4-1.5-.6 0-1 .7-1 1.5m10.6 3.2c-.6 1.4-.5 1.5.5.6.7-.7 1-1.5.7-1.8s-.9.2-1.2 1.2m5 4c-.6 1.4-.5 1.5.5.6.7-.7 1-1.5.7-1.8s-.9.2-1.2 1.2"/><g fill="#408000" stroke-width="0"><path d="M150.4 138.5c-1 .8-1.4 1.5-.8 1.5s1.7-.7 2.4-1.5c1.6-1.9.9-1.9-1.6 0m-5.7.2c-.4.3-.7 1.1-.7 1.7s.5.5 1.2-.2c.6-.6.9-1.4.7-1.7-.3-.3-.9-.2-1.2.2m12 4.8c-.9 1.9-2.4 3.5-3.2 3.5-2.7 0-10.1 9.1-9.4 11.6.4 1.1-5.5 12.4-6.4 12.4-.5 0-.6-.8-.1-1.8.4-.9.7-2.8.7-4.2-.1-1.4.2-2.7.5-3 .9-.7 5.9-9.6 8-14.2 1-2.1 2.2-3.6 2.9-3.3 2 .7 2.3-1 .3-2.2-1.6-1-2.3-.4-6 4.8-4.4 6.3-6.8 7.5-3.1 1.6 1.1-1.9 2.1-4.1 2.1-4.8 0-.8-2.8 3.8-6.1 10.1s-6.8 12.6-7.7 14-2.4 3.8-3.3 5.5c-.9 1.6-2.6 4.6-3.7 6.5-3.6 5.8-6.6 11.4-7.9 14.2l-1.2 2.8 3.7-2.4c7.1-4.6 32.1-18.6 33.2-18.6.6 0 1.8-1.7 2.6-3.8.9-2 2.3-5 3.1-6.5 2-3.8 1-4.5-1.6-1.1-2.4 3-2.7 2.1-.6-1.6 2.2-3.8 1.8-6-.5-3-2.8 3.6-2.5 2.3 1.6-6.5 3.2-7 5.2-13.5 4.1-13.5-.2 0-1.1 1.6-2 3.5m-8.1 24.7c-1.8 2.6-2.2 1.7-.5-1.4.6-1.1 1.3-1.7 1.6-1.5.3.3-.2 1.6-1.1 2.9"/><path d="M156 155.1c0 .5.5.7 1 .4.6-.3 1-.8 1-1.1 0-.2-.4-.4-1-.4-.5 0-1 .5-1 1.1"/></g><path fill="#404080" d="M188 146c0 .5.5 1 1.1 1 .5 0 .7-.5.4-1-.3-.6-.8-1-1.1-1-.2 0-.4.4-.4 1m4 8c0 .5.7.7 1.5.4.8-.4 1.5-.8 1.5-1s-.7-.4-1.5-.4-1.5.4-1.5 1"/><path fill="#804040" d="M197.5 139.9c-.3.5-.1 1.2.5 1.6.5.3 1-.1 1-.9 0-1.8-.6-2.1-1.5-.7m-1.5 3.7c0 1.3-.3 1.4-1.4.4-1.3-1-1.3-.8-.3 1.4.7 1.4 1.9 2.8 2.7 3.1s1.1.3.7-.1-.1-1.4.6-2.3c1.1-1.4 1-1.4-.6-.2-1.7 1.3-1.8 1.2-1.2-1.2.4-1.5.4-2.7.1-2.7s-.6.7-.6 1.6m12.6.9c.4.8.8 1.5 1 1.5s.4-.7.4-1.5-.4-1.5-1-1.5c-.5 0-.7.7-.4 1.5m-18.6 1.7c0 1.2.3 1.7.8 1.2.4-.5 1.1-1.2 1.5-1.5.5-.3.2-.9-.7-1.2-1.2-.5-1.6 0-1.6 1.5m-5.8-.2c.2.8-.3 2.1-1.1 3-.9.8-1.2 1.2-.7.8.4-.3 1.4-.4 2.2-.1.9.3 1.2-.2.9-1.7-.2-1.3-.7-2.5-1.1-2.9-.4-.3-.5.1-.2.9m8 4.8c-1.1 2.5-1.1 2.5.4 1 .9-.9 1.5-2.1 1.3-2.7s-1 .2-1.7 1.7m2.9 1.4c-.1 1 .3 1.8.8 1.8s1.5-.8 2.2-1.8c1.3-1.5 1.2-1.6-.3-.4-1.3 1-1.7 1-2.1 0-.4-.8-.6-.7-.6.4m-5.2 3.5c-1.3 1.6-1.2 1.7.4.4.9-.7 1.7-1.5 1.7-1.7 0-.8-.8-.3-2.1 1.3m20.7.2c-1.2.5-1.5 1-.9 1.4s1.6 0 2.3-.8c1.4-1.7 1.3-1.7-1.4-.6m-28.1 1.1c-.4.6-1.1.7-1.7.4-.7-.4-.8-.2-.4.5.6.9 1.1.9 2.2 0 1.4-1.1 1.8-1.9 1-1.9-.3 0-.8.5-1.1 1m3.1 4.9c-1 1-1.4 2.1-.9 2.4s1.3-.6 2-1.9c1.3-2.9 1.1-3-1.1-.5m19.9-.9c-.4.6-1.1.7-1.7.4-.7-.4-.8-.2-.4.5.6.9 1.1.9 2.2 0 1.4-1.1 1.8-1.9 1-1.9-.3 0-.8.5-1.1 1m2.4 1.7c-.1 1-.1 2.1 0 2.5 0 .5-.3.8-.8.8s-1.2.8-1.5 1.7c-.6 1.6-.6 1.6 1.1 0 1.7-1.4 3-6.7 1.8-6.7-.3 0-.6.8-.6 1.7M202 164c0 .5.5 1 1.1 1 .5 0 .7-.5.4-1-.3-.6-.8-1-1.1-1-.2 0-.4.4-.4 1m9.2 3.8c-1.1 2.5-1.1 2.5.4 1 .9-.9 1.5-2.1 1.3-2.7s-1 .2-1.7 1.7"/><path fill="#404040" d="M190.5 143c-.3.5-.1 1 .4 1 .6 0 1.1-.5 1.1-1 0-.6-.2-1-.4-1-.3 0-.8.4-1.1 1m-6.5.9c0 .4 1.1.6 2.5.3 1.4-.2 2.5-.6 2.5-.8s-1.1-.4-2.5-.4-2.5.4-2.5.9m2.5 2.8c-1.2 2.8-1.4 4.3-.5 4.8.5.3.7-.3.5-1.2-.1-1 .2-2.4.8-3.1.5-.7.8-1.5.5-1.8s-.9.3-1.3 1.3m6.5-.7c-.9.6-1 1-.3 1 .6 0 1.5-.5 1.8-1 .8-1.2.4-1.2-1.5 0m4.3 3.5c-.3.9-.3 1.8-.1 2.1.3.3.8-.4 1.1-1.6.6-2.3-.1-2.7-1-.5m-4.8 5.5c-.3.6.1.7.9.4 1.8-.7 2.1-1.4.7-1.4-.6 0-1.3.4-1.6 1m-3.5 6.9c0 .6.4 1.3 1 1.6s.7-.1.4-.9c-.7-1.8-1.4-2.1-1.4-.7m19.5 2.3-2 2.1 2.3-1.2c1.2-.6 2.2-1.6 2.2-2.1 0-1.3-.2-1.2-2.5 1.2m-25.5 4.2c0 .3.9 1 2 1.6s2 .8 2 .6c0-.3-.9-1-2-1.6s-2-.8-2-.6"/><path fill="#BF0000" d="M185.1 145.6c0 1.1.3 1.4.6.6.3-.7.2-1.6-.1-1.9-.3-.4-.6.2-.5 1.3m22.4-.8c-.6.4-1.6 1.9-2.4 3.4-.8 1.6-2.3 2.8-3.3 2.8-1.1 0-3.5 1.2-5.4 2.7-3.7 2.7-7.3 8.3-5.4 8.3.6 0-.1 1.8-1.5 4s-2.5 4.3-2.5 4.7c0 .5-1 1.9-2.1 3.3l-2.1 2.5.6-3.4c.4-2.1.1-4-.6-4.9-1-1.3-1-1.4 0-.8.8.5 1.2 0 1.2-1.8 0-1.3.6-3.1 1.3-3.8 1.5-1.5 6.2-8.1 6.3-8.8 0-.3.5-1.6 1.1-2.9.9-2.2 1-2.2 2.6-.6 1 .9 1.7 1.1 1.7.5 0-1.8-2.4-3.7-4-3.2-1.6.6-6.3 5.3-9.6 9.8-3.2 4.3-4 2.2-1-2.5 1.8-2.8 2.2-4.1 1.3-4.1-.7 0-2.4 2.1-3.7 4.7-3.2 6.6-12 21.2-13.1 21.9-.5.3-.7 1-.4 1.5.4.5-.1 1.2-.9 1.5-.9.3-1.6 1.4-1.6 2.4s-.7 2-1.5 2.4c-.8.3-1.5 1.2-1.5 2s-.4 1.6-.9 1.8c-1.9.7-17.1 28.5-17.1 31.2 0 .7-.9 2.5-2 3.9s-2 2.7-2 2.9c0 .1 9.1.3 20.2.3h20.3l5.8-8.2c3.1-4.5 6.9-10.6 8.4-13.5 3.1-6.4 9.5-17.1 10.6-17.9.4-.3 1-2.2 1.3-4.2.4-3.8 4-10.7 5.5-10.7.5 0 .9-.5.9-1.1 0-.5-.4-.7-1-.4-.5.3-1-.1-1-.9 0-.9.4-1.6.9-1.6s1.1-1.6 1.3-3.5.3-3.5.3-3.5c-.1 0-1.6 2-3.5 4.5-1.8 2.5-3.5 4.3-3.7 4.1-.2-.1.8-2.9 2.2-6.1 1.4-3.1 2.4-6 2.1-6.3s-.9.3-1.2 1.3c-.8 2-5.4 6.8-6.1 6.2-.6-.7 4-9.7 5-9.7.4 0 .5-.5.2-1-.4-.6.1-2.4.9-4.1 1.6-3.1 1-6.4-.9-5.1m-7.1 25.6c-.3.9-1 1.6-1.5 1.6s-.4-.9.3-2c1.4-2.2 2.1-2 1.2.4m-2.4 4c0 .3-.4.8-1 1.1-.5.3-1 .1-1-.4 0-.6.5-1.1 1-1.1.6 0 1 .2 1 .4"/><path fill="#800040" d="M210.3 169.5c0 .8.4 1.2.9.9s.6-1 .3-1.5c-.9-1.3-1.2-1.1-1.2.6m-11.3 1c-.7.9-.8 1.5-.2 1.5.5 0 1.2-.7 1.6-1.5.3-.8.4-1.5.2-1.5s-.9.7-1.6 1.5"/><path fill="#0080BF" d="M280.8 168.7c10.5.2 27.9.2 38.5 0 10.5-.1 1.9-.2-19.3-.2s-29.8.1-19.2.2m-72.7 147.9c0 1.1.3 1.4.6.6.3-.7.2-1.6-.1-1.9-.3-.4-.6.2-.5 1.3"/><path fill="#80BFBF" d="M350.5 174c1 1.1 2 2 2.3 2s-.3-.9-1.3-2-2-2-2.3-2 .3.9 1.3 2m-60.7 34.7c5.6.2 14.8.2 20.5 0 5.6-.1 1-.3-10.3-.3s-15.9.2-10.2.3m89.2 93.7c0 .2.8 1 1.8 1.7 1.5 1.3 1.6 1.2.3-.4s-2.1-2.1-2.1-1.3M196.2 345c0 1.4.2 1.9.5 1.2.2-.6.2-1.8 0-2.5-.3-.6-.5-.1-.5 1.3m-45.1.6c0 1.1.3 1.4.6.6.3-.7.2-1.6-.1-1.9-.3-.4-.6.2-.5 1.3m208.7 46.1c2.3.2 6.1.2 8.5 0 2.3-.2.4-.4-4.3-.4s-6.6.2-4.2.4m-16.9 5c-1.3 1.6-1.2 1.7.4.4s2.1-2.1 1.3-2.1c-.2 0-1 .8-1.7 1.7m-115.6 34c11.5.2 29.9.2 41 0 11.1-.1 1.8-.2-20.8-.2-22.5 0-31.6.1-20.2.2m163.5 0c.7.3 1.6.2 1.9-.1.4-.3-.2-.6-1.3-.5-1.1 0-1.4.3-.6.6"/><path fill="#BFBFBF" d="M278.8 169.7c11.7.2 30.6.2 42 0 11.4-.1 1.8-.2-21.3-.2s-32.4.1-20.7.2m-27.4 2.2c-1.8 1.1-3.5 2.5-4 3.3-.4.8 0 .6 1.2-.3 1-.9 3.3-2.4 4.9-3.2 1.7-.9 2.6-1.6 2-1.7-.5 0-2.4.9-4.1 1.9m93.5-.8c1.4.5 3 1.3 3.6 1.7s.2-.1-.8-1.1c-1.1-.9-2.7-1.7-3.6-1.6-1 0-.7.4.8 1m6.1 4.3c0 .2.8 1 1.8 1.7 1.5 1.3 1.6 1.2.3-.4s-2.1-2.1-2.1-1.3m4 5.6c.6 1.1 1.3 2 1.6 2 .2 0 0-.9-.6-2s-1.3-2-1.6-2c-.2 0 0 .9.6 2m-112 1c-.6 1.1-.8 2-.6 2 .3 0 1-.9 1.6-2s.8-2 .6-2c-.3 0-1 .9-1.6 2m116 6c.6 1.1 1.3 2 1.6 2 .2 0 0-.9-.6-2s-1.3-2-1.6-2c-.2 0 0 .9.6 2m-120 1c-.6 1.1-.8 2-.6 2 .3 0 1-.9 1.6-2s.8-2 .6-2c-.3 0-1 .9-1.6 2m123 4c.6 1.1 1.3 2 1.6 2 .2 0 0-.9-.6-2s-1.3-2-1.6-2c-.2 0 0 .9.6 2m-127 3c-.6 1.1-.8 2-.6 2 .3 0 1-.9 1.6-2s.8-2 .6-2c-.3 0-1 .9-1.6 2m130.7 4c.3 1.1.9 2 1.5 2 .5 0 .4-.9-.2-2s-1.2-2-1.4-2-.2.9.1 2M232 201c-.6 1.1-.8 2-.6 2 .3 0 1-.9 1.6-2s.8-2 .6-2c-.3 0-1 .9-1.6 2m138 6c.6 1.1 1.3 2 1.6 2 .2 0 0-.9-.6-2s-1.3-2-1.6-2c-.2 0 0 .9.6 2m-142 1c-.6 1.1-.8 2-.6 2 .3 0 1-.9 1.6-2s.8-2 .6-2c-.3 0-1 .9-1.6 2m49.8.7c.7.3 1.6.2 1.9-.1.4-.3-.2-.6-1.3-.5-1.1 0-1.4.3-.6.6m43 0c.7.3 1.6.2 1.9-.1.4-.3-.2-.6-1.3-.5-1.1 0-1.4.3-.6.6m-50.4 4.5-2.9 3.3 3.3-2.9c1.7-1.7 3.2-3.1 3.2-3.3 0-.8-.8-.1-3.6 2.9m58.1-.2c4.7 5.5 4.8 5.6 3.7 3.5-.6-1.1-2.3-3.1-3.9-4.5l-2.8-2.5zM224 215c-.6 1.1-.8 2-.6 2 .3 0 1-.9 1.6-2s.8-2 .6-2c-.3 0-1 .9-1.6 2m153 4c.6 1.1 1.3 2 1.6 2 .2 0 0-.9-.6-2s-1.3-2-1.6-2c-.2 0 0 .9.6 2m-112 2c-.6 1.1-.8 2-.6 2 .3 0 1-.9 1.6-2s.8-2 .6-2c-.3 0-1 .9-1.6 2m69 0c.6 1.1 1.3 2 1.6 2 .2 0 0-.9-.6-2s-1.3-2-1.6-2c-.2 0 0 .9.6 2m-114 1c-.6 1.1-.8 2-.6 2 .3 0 1-.9 1.6-2s.8-2 .6-2c-.3 0-1 .9-1.6 2m161 4c.6 1.1 1.3 2 1.6 2 .2 0 0-.9-.6-2s-1.3-2-1.6-2c-.2 0 0 .9.6 2m-164 1c-.6 1.1-.8 2-.6 2 .3 0 1-.9 1.6-2s.8-2 .6-2c-.3 0-1 .9-1.6 2m44 1c-.6 1.1-.8 2-.6 2 .3 0 1-.9 1.6-2s.8-2 .6-2c-.3 0-1 .9-1.6 2m76.9-.4c1.3 2.6 7.7 8.4 9.4 8.4.7 0-.2-.9-1.9-1.9s-4.3-3.4-5.8-5.2c-1.5-1.9-2.3-2.4-1.7-1.3M385 233c.6 1.1 1.3 2 1.6 2 .2 0 0-.9-.6-2s-1.3-2-1.6-2c-.2 0 0 .9.6 2m-172 1c-.6 1.1-.8 2-.6 2 .3 0 1-.9 1.6-2s.8-2 .6-2c-.3 0-1 .9-1.6 2m44 1c-.6 1.1-.8 2-.6 2 .3 0 1-.9 1.6-2s.8-2 .6-2c-.3 0-1 .9-1.6 2m102.3 1.7c5.3.2 14.1.2 19.5 0 5.3-.1.9-.3-9.8-.3s-15.1.2-9.7.3M254 240c-.6 1.1-.8 2-.6 2 .3 0 1-.9 1.6-2s.8-2 .6-2c-.3 0-1 .9-1.6 2m-45 1c-.6 1.1-.8 2-.6 2 .3 0 1-.9 1.6-2s.8-2 .6-2c-.3 0-1 .9-1.6 2m41 6.1c-.7 1.1-1 2.3-.7 2.5.2.2.9-.7 1.5-2.1 1.4-3 .7-3.3-.8-.4m-45.7 7.4c0 2.2.2 3 .4 1.7.2-1.2.2-3 0-4-.3-.9-.5.1-.4 2.3m43.9 0c0 1.6.2 2.2.5 1.2.2-.9.2-2.3 0-3-.3-.6-.5.1-.5 1.8m.8 5.1c0 .6.7 1.9 1.6 3 1.4 1.8 1.4 1.8.3-.6-1.4-3.1-1.9-3.6-1.9-2.4m60.8 1.1c16.1.2 42.2.2 58 0 15.8-.1 2.6-.2-29.3-.2s-44.8.1-28.7.2m88.7 1.5c1.1.6 3.1 2 4.5 3.2 1.4 1.1 1.1.6-.7-1.2-1.8-1.7-3.8-3.2-4.5-3.2s-.4.6.7 1.2M284 266c.6 1.1 1.3 2 1.6 2 .2 0 0-.9-.6-2s-1.3-2-1.6-2c-.2 0 0 .9.6 2m-75 2c.6 1.1 1.3 2 1.6 2 .2 0 0-.9-.6-2s-1.3-2-1.6-2c-.2 0 0 .9.6 2m45 1c.6 1.1 1.3 2 1.6 2 .2 0 0-.9-.6-2s-1.3-2-1.6-2c-.2 0 0 .9.6 2m153 2c.6 1.1 1.3 2 1.6 2 .2 0 0-.9-.6-2s-1.3-2-1.6-2c-.2 0 0 .9.6 2m-119 2c.6 1.1 1.3 2 1.6 2 .2 0 0-.9-.6-2s-1.3-2-1.6-2c-.2 0 0 .9.6 2m-31 1c.6 1.1 1.3 2 1.6 2 .2 0 0-.9-.6-2s-1.3-2-1.6-2c-.2 0 0 .9.6 2m-44 1c.6 1.1 1.3 2 1.6 2 .2 0 0-.9-.6-2s-1.3-2-1.6-2c-.2 0 0 .9.6 2m78 3c.6 1.1 1.3 2 1.6 2 .2 0 0-.9-.6-2s-1.3-2-1.6-2c-.2 0 0 .9.6 2m120 0c.6 1.1 1.3 2 1.6 2 .2 0 0-.9-.6-2s-1.3-2-1.6-2c-.2 0 0 .9.6 2m-224.4 1.6c-.5 1.4-.4 1.5.9.4 1.7-1.4 1.9-2 .6-2-.5 0-1.2.7-1.5 1.6M261 281c.6 1.1 1.3 2 1.6 2 .2 0 0-.9-.6-2s-1.3-2-1.6-2c-.2 0 0 .9.6 2m-44 1c.6 1.1 1.3 2 1.6 2 .2 0 0-.9-.6-2s-1.3-2-1.6-2c-.2 0 0 .9.6 2m197 1c.6 1.1 1.3 2 1.6 2 .2 0 0-.9-.6-2s-1.3-2-1.6-2c-.2 0 0 .9.6 2m-119 2c.6 1.1 1.3 2 1.6 2 .2 0 0-.9-.6-2s-1.3-2-1.6-2c-.2 0 0 .9.6 2m-112 1c-.6 1.1-.8 2-.6 2 .3 0 1-.9 1.6-2s.8-2 .6-2c-.3 0-1 .9-1.6 2m82 2c.6 1.1 1.3 2 1.6 2 .2 0 0-.9-.6-2s-1.3-2-1.6-2c-.2 0 0 .9.6 2m-71 1c.6 1.1 1.3 2 1.6 2 .2 0 0-.9-.6-2s-1.3-2-1.6-2c-.2 0 0 .9.6 2m103.9.6c1.3 2.6 7.7 8.4 9.4 8.4.7 0-.2-.9-1.9-1.9s-4.3-3.4-5.8-5.2c-1.5-1.9-2.3-2.4-1.7-1.3m119.8.4c.3 1.1.9 2 1.5 2 .5 0 .4-.9-.2-2s-1.2-2-1.4-2-.2.9.1 2M179 293c-.6 1.1-.8 2-.6 2 .3 0 1-.9 1.6-2s.8-2 .6-2c-.3 0-1 .9-1.6 2m45 1c.6 1.1 1.3 2 1.6 2 .2 0 0-.9-.6-2s-1.3-2-1.6-2c-.2 0 0 .9.6 2m45 1c.6 1.1 1.3 2 1.6 2 .2 0 0-.9-.6-2s-1.3-2-1.6-2c-.2 0 0 .9.6 2m-71 1c.6 1.1 1.3 2 1.6 2 .2 0 0-.9-.6-2s-1.3-2-1.6-2c-.2 0 0 .9.6 2m224 1c.6 1.1 1.3 2 1.6 2 .2 0 0-.9-.6-2s-1.3-2-1.6-2c-.2 0 0 .9.6 2m-246 1c-.6 1.1-.8 2-.6 2 .3 0 1-.9 1.6-2s.8-2 .6-2c-.3 0-1 .9-1.6 2m148.8.7c9 .2 23.4.2 32 0 8.6-.1 1.3-.3-16.3-.3s-24.7.2-15.7.3M228 301c.6 1.1 1.3 2 1.6 2 .2 0 0-.9-.6-2s-1.3-2-1.6-2c-.2 0 0 .9.6 2m146.1-1.6c.2.2 1.5.9 2.9 1.5 2.4 1.1 2.4 1.1.6-.3-1.6-1.3-4.9-2.4-3.5-1.2M202 303c.6 1.1 1.3 2 1.6 2 .2 0 0-.9-.6-2s-1.3-2-1.6-2c-.2 0 0 .9.6 2m179.5 1.4c1 1.4 1.9 2.6 2.2 2.6.7 0-1.7-3.9-2.8-4.6-.6-.3-.3.5.6 2m44.5-.4c.6 1.1 1.3 2 1.6 2 .2 0 0-.9-.6-2s-1.3-2-1.6-2c-.2 0 0 .9.6 2m-254 1c-.6 1.1-.8 2-.6 2 .3 0 1-.9 1.6-2s.8-2 .6-2c-.3 0-1 .9-1.6 2m104 2c.6 1.1 1.3 2 1.6 2 .2 0 0-.9-.6-2s-1.3-2-1.6-2c-.2 0 0 .9.6 2m-44 1c.6 1.1 1.3 2 1.6 2 .2 0 0-.9-.6-2s-1.3-2-1.6-2c-.2 0 0 .9.6 2m197 1c.6 1.1 1.3 2 1.6 2 .2 0 0-.9-.6-2s-1.3-2-1.6-2c-.2 0 0 .9.6 2m-44 1c.6 1.1 1.3 2 1.6 2 .2 0 0-.9-.6-2s-1.3-2-1.6-2c-.2 0 0 .9.6 2m-217 2c-.6 1.1-.8 2-.6 2 .3 0 1-.9 1.6-2s.8-2 .6-2c-.3 0-1 .9-1.6 2m38.8 4c.2 1.6.6 3 .8 3s.4-1.4.4-3c0-1.7-.4-3-.8-3-.5 0-.7 1.3-.4 3m226.2 0c.6 1.1 1.3 2 1.6 2 .2 0 0-.9-.6-2s-1.3-2-1.6-2c-.2 0 0 .9.6 2m-44 1c.6 1.1 1.3 2 1.6 2 .2 0 0-.9-.6-2s-1.3-2-1.6-2c-.2 0 0 .9.6 2m-150 3c.6 1.1 1.3 2 1.6 2 .2 0 0-.9-.6-2s-1.3-2-1.6-2c-.2 0 0 .9.6 2m42.2 0c0 1.4.2 1.9.5 1.2.2-.6.2-1.8 0-2.5-.3-.6-.5-.1-.5 1.3m-76.5 4.5c-.9 1.9-1.5 3.5-1.2 3.5.7 0 3.7-6.1 3.3-6.6-.3-.2-1.2 1.2-2.1 3.1M437 323c.6 1.1 1.3 2 1.6 2 .2 0 0-.9-.6-2s-1.3-2-1.6-2c-.2 0 0 .9.6 2m-276 1c-.6 1.1-.8 2-.6 2 .3 0 1-.9 1.6-2s.8-2 .6-2c-.3 0-1 .9-1.6 2m82 3c.6 1.1 1.3 2 1.6 2 .2 0 0-.9-.6-2s-1.3-2-1.6-2c-.2 0 0 .9.6 2m76.8-.3c1.2.2 3 .2 4 0 .9-.3-.1-.5-2.3-.4-2.2 0-3 .2-1.7.4M355 328c-.6 1.1-.8 2-.6 2 .3 0 1-.9 1.6-2s.8-2 .6-2c-.3 0-1 .9-1.6 2m41 1c.6 1.1 1.3 2 1.6 2 .2 0 0-.9-.6-2s-1.3-2-1.6-2c-.2 0 0 .9.6 2m-239 2c-.6 1.1-.8 2-.6 2 .3 0 1-.9 1.6-2s.8-2 .6-2c-.3 0-1 .9-1.6 2m152.4.2-1.9 2.3 2.3-1.9c2.1-1.8 2.7-2.6 1.9-2.6-.2 0-1.2 1-2.3 2.2M200 333c-.6 1.1-.8 2-.6 2 .3 0 1-.9 1.6-2s.8-2 .6-2c-.3 0-1 .9-1.6 2m76 0c-.6 1.1-.8 2-.6 2 .3 0 1-.9 1.6-2s.8-2 .6-2c-.3 0-1 .9-1.6 2m-29 1c.6 1.1 1.3 2 1.6 2 .2 0 0-.9-.6-2s-1.3-2-1.6-2c-.2 0 0 .9.6 2m104 1c-.6 1.1-.8 2-.6 2 .3 0 1-.9 1.6-2s.8-2 .6-2c-.3 0-1 .9-1.6 2m93.7 1.5c.9 1.9 1.8 3.3 2.1 3.1.4-.5-2.6-6.6-3.3-6.6-.3 0 .3 1.6 1.2 3.5M400 336c.6 1.1 1.3 2 1.6 2 .2 0 0-.9-.6-2s-1.3-2-1.6-2c-.2 0 0 .9.6 2m-150 3c.6 1.1 1.3 2 1.6 2 .2 0 0-.9-.6-2s-1.3-2-1.6-2c-.2 0 0 .9.6 2m53 2c-.6 1.1-.8 2-.6 2 .3 0 1-.9 1.6-2s.8-2 .6-2c-.3 0-1 .9-1.6 2m-150.9.6c0 1.1.3 1.4.6.6.3-.7.2-1.6-.1-1.9-.3-.4-.6.2-.5 1.3m44 0c0 1.1.3 1.4.6.6.3-.7.2-1.6-.1-1.9-.3-.4-.6.2-.5 1.3m150.9.4c-.6 1.1-.8 2-.6 2 .3 0 1-.9 1.6-2s.8-2 .6-2c-.3 0-1 .9-1.6 2m100.3 3c0 2.5.2 3.5.4 2.2.2-1.2.2-3.2 0-4.5-.2-1.2-.4-.2-.4 2.3M269 345c-.6 1.1-.8 2-.6 2 .3 0 1-.9 1.6-2s.8-2 .6-2c-.3 0-1 .9-1.6 2m134.2.5c0 1.6.2 2.2.5 1.2.2-.9.2-2.3 0-3-.3-.6-.5.1-.5 1.8M254 346c.6 1.1 1.3 2 1.6 2 .2 0 0-.9-.6-2s-1.3-2-1.6-2c-.2 0 0 .9.6 2m45 2c-.6 1.1-.8 2-.6 2 .3 0 1-.9 1.6-2s.8-2 .6-2c-.3 0-1 .9-1.6 2m-102.9.6c0 1.1.3 1.4.6.6.3-.7.2-1.6-.1-1.9-.3-.4-.6.2-.5 1.3M265 352c-.6 1.1-.8 2-.6 2 .3 0 1-.9 1.6-2s.8-2 .6-2c-.3 0-1 .9-1.6 2m-112-.4c0 .6.7 1.9 1.6 3 1.4 1.8 1.4 1.8.3-.6-1.4-3.1-1.9-3.6-1.9-2.4m105 1.4c.6 1.1 1.3 2 1.6 2 .2 0 0-.9-.6-2s-1.3-2-1.6-2c-.2 0 0 .9.6 2m82 1c-.6 1.1-.8 2-.6 2 .3 0 1-.9 1.6-2s.8-2 .6-2c-.3 0-1 .9-1.6 2m-141 1c.6 1.1 1.3 2 1.6 2 .2 0 0-.9-.6-2s-1.3-2-1.6-2c-.2 0 0 .9.6 2m96 0c-.6 1.1-.8 2-.6 2 .3 0 1-.9 1.6-2s.8-2 .6-2c-.3 0-1 .9-1.6 2m148 2c-.6 1.1-.8 2-.6 2 .3 0 1-.9 1.6-2s.8-2 .6-2c-.3 0-1 .9-1.6 2m-45 1c-.6 1.1-.8 2-.6 2 .3 0 1-.9 1.6-2s.8-2 .6-2c-.3 0-1 .9-1.6 2m-106 2c-.6 1.1-.8 2-.6 2 .3 0 1-.9 1.6-2s.8-2 .6-2c-.3 0-1 .9-1.6 2m-134 1c.6 1.1 1.3 2 1.6 2 .2 0 0-.9-.6-2s-1.3-2-1.6-2c-.2 0 0 .9.6 2m178 0c-.6 1.1-.8 2-.6 2 .3 0 1-.9 1.6-2s.8-2 .6-2c-.3 0-1 .9-1.6 2m-133 1c.6 1.1 1.3 2 1.6 2 .2 0 0-.9-.6-2s-1.3-2-1.6-2c-.2 0 0 .9.6 2m192 1c-.6 1.1-.8 2-.6 2 .3 0 1-.9 1.6-2s.8-2 .6-2c-.3 0-1 .9-1.6 2m44 1c-.6 1.1-.8 2-.6 2 .3 0 1-.9 1.6-2s.8-2 .6-2c-.3 0-1 .9-1.6 2m-233 3c.6 1.1 1.3 2 1.6 2 .2 0 0-.9-.6-2s-1.3-2-1.6-2c-.2 0 0 .9.6 2m82 0c-.6 1.1-.8 2-.6 2 .3 0 1-.9 1.6-2s.8-2 .6-2c-.3 0-1 .9-1.6 2m-126 1c.6 1.1 1.3 2 1.6 2 .2 0 0-.9-.6-2s-1.3-2-1.6-2c-.2 0 0 .9.6 2m170 0c-.6 1.1-.8 2-.6 2 .3 0 1-.9 1.6-2s.8-2 .6-2c-.3 0-1 .9-1.6 2m59 2c-.6 1.1-.8 2-.6 2 .3 0 1-.9 1.6-2s.8-2 .6-2c-.3 0-1 .9-1.6 2m44 1c-.6 1.1-.8 2-.6 2 .3 0 1-.9 1.6-2s.8-2 .6-2c-.3 0-1 .9-1.6 2m-225 3c.6 1.1 1.3 2 1.6 2 .2 0 0-.9-.6-2s-1.3-2-1.6-2c-.2 0 0 .9.6 2m74 0c-.6 1.1-.8 2-.6 2 .3 0 1-.9 1.6-2s.8-2 .6-2c-.3 0-1 .9-1.6 2m-118 1c.6 1.1 1.3 2 1.6 2 .2 0 0-.9-.6-2s-1.3-2-1.6-2c-.2 0 0 .9.6 2m221 2c-.6 1.1-.8 2-.6 2 .3 0 1-.9 1.6-2s.8-2 .6-2c-.3 0-1 .9-1.6 2m-62 3c-.6 1.1-.8 2-.6 2 .3 0 1-.9 1.6-2s.8-2 .6-2c-.3 0-1 .9-1.6 2m-111 1c.6 1.1 1.3 2 1.6 2 .2 0 0-.9-.6-2s-1.3-2-1.6-2c-.2 0 0 .9.6 2m66 0c-.6 1.1-.8 2-.6 2 .3 0 1-.9 1.6-2s.8-2 .6-2c-.3 0-1 .9-1.6 2m104 1c-.6 1.1-.8 2-.6 2 .3 0 1-.9 1.6-2s.8-2 .6-2c-.3 0-1 .9-1.6 2m44 1c-.6 1.1-.8 2-.6 2 .3 0 1-.9 1.6-2s.8-2 .6-2c-.3 0-1 .9-1.6 2m-212 1.3c0 .2 1.5 1.6 3.3 3.3l3.2 2.9-2.9-3.3c-2.8-3-3.6-3.7-3.6-2.9m59.4 2.9-2.9 3.3 3.3-2.9c3-2.8 3.7-3.6 2.9-3.6-.2 0-1.6 1.5-3.3 3.2M173 387c.6 1.1 1.3 2 1.6 2 .2 0 0-.9-.6-2s-1.3-2-1.6-2c-.2 0 0 .9.6 2m148 0c-.6 1.1-.8 2-.6 2 .3 0 1-.9 1.6-2s.8-2 .6-2c-.3 0-1 .9-1.6 2m58.9.7-2.4 2.8 2.8-2.4c1.5-1.4 2.7-2.6 2.7-2.8 0-.8-.8-.1-3.1 2.4M424 390c-.6 1.1-.8 2-.6 2 .3 0 1-.9 1.6-2s.8-2 .6-2c-.3 0-1 .9-1.6 2m-187.8 1.7c5.9.2 15.8.2 22 0 6.2-.1 1.4-.3-10.7-.3s-17.2.2-11.3.3m136.6 0c.7.3 1.6.2 1.9-.1.4-.3-.2-.6-1.3-.5-1.1 0-1.4.3-.6.6M177 394c.6 1.1 1.3 2 1.6 2 .2 0 0-.9-.6-2s-1.3-2-1.6-2c-.2 0 0 .9.6 2m140 0c-.6 1.1-.8 2-.6 2 .3 0 1-.9 1.6-2s.8-2 .6-2c-.3 0-1 .9-1.6 2m32-1c-1.1.8-.7.9 1.5.4 3.7-.8 4.5-1.4 1.9-1.4-1 0-2.6.5-3.4 1m-5.6 4.2-2.9 3.3 3.3-2.9c1.7-1.7 3.2-3.1 3.2-3.3 0-.8-.8-.1-3.6 2.9m76.6-.2c-.6 1.1-.8 2-.6 2 .3 0 1-.9 1.6-2s.8-2 .6-2c-.3 0-1 .9-1.6 2m-106 2c-.6 1.1-.8 2-.6 2 .3 0 1-.9 1.6-2s.8-2 .6-2c-.3 0-1 .9-1.6 2m-133 2c.6 1.1 1.3 2 1.6 2 .2 0 0-.9-.6-2s-1.3-2-1.6-2c-.2 0 0 .9.6 2m236 1c-.6 1.1-.8 2-.6 2 .3 0 1-.9 1.6-2s.8-2 .6-2c-.3 0-1 .9-1.6 2m-107 4c-.6 1.1-.8 2-.6 2 .3 0 1-.9 1.6-2s.8-2 .6-2c-.3 0-1 .9-1.6 2m26 2c-.6 1.1-.8 2-.6 2 .3 0 1-.9 1.6-2s.8-2 .6-2c-.3 0-1 .9-1.6 2m77 1c-.6 1.1-.8 2-.6 2 .3 0 1-.9 1.6-2s.8-2 .6-2c-.3 0-1 .9-1.6 2m-225 4c.6 1.1 1.3 2 1.6 2 .2 0 0-.9-.6-2s-1.3-2-1.6-2c-.2 0 0 .9.6 2m118 0c-.6 1.1-.8 2-.6 2 .3 0 1-.9 1.6-2s.8-2 .6-2c-.3 0-1 .9-1.6 2m26 2c-.6 1.1-.8 2-.6 2 .3 0 1-.9 1.6-2s.8-2 .6-2c-.3 0-1 .9-1.6 2m77 1c-.6 1.1-.8 2-.6 2 .3 0 1-.9 1.6-2s.8-2 .6-2c-.3 0-1 .9-1.6 2m-217 4c.6 1.1 1.3 2 1.6 2 .2 0 0-.9-.6-2s-1.3-2-1.6-2c-.2 0 0 .9.6 2m136 2c-.6 1.1-.8 2-.6 2 .3 0 1-.9 1.6-2s.8-2 .6-2c-.3 0-1 .9-1.6 2m76.9.7c-1.3 1.6-1.2 1.7.4.4s2.1-2.1 1.3-2.1c-.2 0-1 .8-1.7 1.7m-207.7 3.5c1.6 1.6 3.4 2.8 4.1 2.8.6 0 .3-.6-.8-1.2s-2.9-1.8-4-2.7c-1.2-.9-.8-.4.7 1.1m100.7-.5c-1.3 1.6-1.2 1.7.4.4.9-.7 1.7-1.5 1.7-1.7 0-.8-.8-.3-2.1 1.3M325 427c-.6 1.1-.8 2-.6 2 .3 0 1-.9 1.6-2s.8-2 .6-2c-.3 0-1 .9-1.6 2m74.6.5c-1.1.8-1.5 1.5-.9 1.5s1.6-.7 2.3-1.5c1.6-1.9 1.1-1.9-1.4 0M294 428c-.9.6-1 1-.3 1 .6 0 1.5-.5 1.8-1 .8-1.2.4-1.2-1.5 0m-90.2 1.7c.7.3 1.6.2 1.9-.1.4-.3-.2-.6-1.3-.5-1.1 0-1.4.3-.6.6m86 0c.7.3 1.6.2 1.9-.1.4-.3-.2-.6-1.3-.5-1.1 0-1.4.3-.6.6m105 0c.7.3 1.6.2 1.9-.1.4-.3-.2-.6-1.3-.5-1.1 0-1.4.3-.6.6m-54.5 1c9.2.2 24.2.2 33.5 0 9.2-.1 1.6-.3-16.8-.3s-26 .2-16.7.3"/><path fill="#400040" d="M206.1 182.6c0 1.1.3 1.4.6.6.3-.7.2-1.6-.1-1.9-.3-.4-.6.2-.5 1.3m-43.6.4c-.3.5-.1 1 .4 1 .6 0 1.1-.5 1.1-1 0-.6-.2-1-.4-1-.3 0-.8.4-1.1 1m-23.7 68.7c.6.2 1.8.2 2.5 0 .6-.3.1-.5-1.3-.5s-1.9.2-1.2.5"/><path fill="maroon" d="M206.1 179.6c0 1.1.3 1.4.6.6.3-.7.2-1.6-.1-1.9-.3-.4-.6.2-.5 1.3m-64 40c0 1.1.3 1.4.6.6.3-.7.2-1.6-.1-1.9-.3-.4-.6.2-.5 1.3m-2.2 4.1c-1.3 1.6-1.2 1.7.4.4.9-.7 1.7-1.5 1.7-1.7 0-.8-.8-.3-2.1 1.3m-4 5.6c-1 1.8-1.9 3.6-1.9 4 0 .5-.8 2.1-1.9 3.5-1 1.5-3 4.8-4.4 7.4-3.2 5.8-3.1 5.9 11.8 6.6 14.9.6 21.9-.9 26.4-5.6 5.3-5.7 14-17.6 13.4-18.4-.2-.5-9.7-.8-20.9-.8l-20.5.1z"/><path fill="green" d="M132 185.7c-9.1 5.3-17 9.6-17.7 9.6s-1 .4-.7.8c.2.4.1.9-.4 1.1-.4.1-2.7 3.7-5.1 7.8-2.5 4.1-5.5 8.9-6.8 10.6-1.2 1.7-2 3.4-1.6 3.7.3.4 0 .7-.8.7-1.5 0-3.2 2.3-9.9 13.4l-4.1 6.8 2.3 2.5c3.9 4.3 13.6 7.1 15.2 4.4.4-.5 2.7-1.9 5.3-3.2 2.5-1.2 6.3-3.9 8.2-5.9 3.8-3.8 16.3-24.6 25.1-41.5 2.9-5.5 5.8-10.7 6.4-11.5 2-2.4 3.6-9 2.3-8.9-.7 0-8.6 4.3-17.7 9.6"/><path fill="#400000" d="M143.3 251.7c.9.2 2.5.2 3.5 0 .9-.3.1-.5-1.8-.5s-2.7.2-1.7.5"/><path fill="#004000" d="M110 242.5c-1.9 1.4-4 2.5-4.6 2.5s-1.7.6-2.4 1.4c-.6.8-1.9 1.7-2.8 1.9-.9.3.4.3 3.1 0 6.3-.5 6.8-.8 9.5-4.8 2.6-4.1 2-4.3-2.8-1"/></svg>