<svg xmlns="http://www.w3.org/2000/svg" version="1.0" viewBox="0 0 180 180"><g fill="#008040" stroke-width="0"><path d="M0 90v90h180V0H0zm72.2-27 .3 5.9-5.5.4-5.5.3 6.3.2 6.2.2-.1 5.2c0 5.4-2.8 13.9-4.5 14-.5 0-1.8.7-2.9 1.4-1.2.9-4.6 1.4-8.6 1.4-6.4 0-6.6.1-6.2 2.4.3 1.5-.1 2.5-1.1 2.9-1.3.5-1.6-.2-1.6-4.8 0-3 .1-5.8.3-6.3.1-.4-3.1-1-7.2-1.3-6.9-.5-7.6-.8-10.8-4.3-3.3-3.5-3.4-3.9-3.1-10.9l.3-7.2 4.5-.3c6.2-.5 11.4 1.3 14.4 4.8 2.8 3.4 3.6 3.7 3.6 1.2 0-2.9 3.6-7.8 7.1-9.5 1.9-.9 5.7-1.7 8.6-1.7h5.1zm36.8-4.9c.8.2 2 1.1 2.7 1.9.6.8 1.7 1.5 2.5 1.5.7 0 1.3.4 1.3 1 0 .5.4 1.5.8 2.2 1.3 2.1-4.1 2.8-6.2.9-1-.9-2.1-1.3-2.4-.9-.4.3-.7.1-.7-.5 0-.7-1.6-1.2-4-1.2s-4 .5-4 1.2c0 .6-.3.9-.6.5-.3-.3-1.5.2-2.5 1.2-3.5 3.2-4.6 16.1-1.6 19.8.5.7.7 1.3.4 1.3s.6 1.2 2.1 2.7c3.5 3.5 9 3.8 12.5.5 2.8-2.6 4-2.7 7.2-.6 2.3 1.5 2.5 1.5 2.6-.2.1-1.1.1-2.2 0-2.7 0-.4.3-.7.8-.7.8 0 2.4-4.1 2.5-6.5.1-.6.4-1.2.8-1.5.3-.3.8-1.4 1-2.5.1-1.1.6-2.2 1-2.5.3-.3.8-1.4 1-2.5.1-1.1.7-2.3 1.1-2.6s.9-1.6 1-2.7c.1-1.2.4-2.2.8-2.2s1.1-.9 1.4-2.1c.4-1.1 1.6-2.4 2.8-2.8 2.5-.9 5.7.7 5 2.4-.2.7.2 1.9 1 2.6.7.8 1.2 2 .9 2.7-.2.6 0 1.2.5 1.2s.9 1 1 2.2c.1 1.1.6 2.4 1 2.7s1 1.5 1.1 2.6c.2 1.1.7 2.2 1 2.5.4.3.9 1.4 1 2.5.2 1.1.8 2.1 1.2 2.3.5.2.7.9.4 1.6-.3.8.1 2 .9 2.7.7.8 1.2 2 .9 2.7-.2.6.1 1.2.8 1.2.6 0 .8.4.5 1-.3.5-.1 1 .5 1s.8.5.4 1.1c-.3.6-.1 1.4.5 1.8.8.5.8 1.2-.2 2.5-1.2 1.6-1.4 1.6-3.7-.7-3.2-3.3-5.6-6.1-5.1-6.2.3 0 .2-1-.1-2.3-.6-2.1-1.2-2.2-8.8-2.2-5.1 0-7.9.4-7.5 1 .3.5.1 1-.5 1-.7 0-1 .6-.7 1.4s.2 1.6-.3 1.8c-.4.2-1 1.2-1.2 2.3-.4 2.8-2.9 5.5-5 5.5-2.4 0-3-1.4-1.9-4.3 1.3-3.4.2-4.1-2.1-1.4-1.1 1.2-2.3 2.2-2.6 2.3-.4 0-2 .6-3.7 1.3-2.7 1.1-8.8 1.1-12.4 0-1.8-.6-6.8-5.2-6.4-6.1.2-.3-.3-1.3-1.1-2-1.6-1.6-2-21.8-.4-21.8.5 0 .6-.5.3-1-.3-.6-.1-1 .4-1 .6 0 1-.3.9-.8-.2-.4.7-1.7 2-3 1.2-1.2 2.2-2 2.2-1.7s1.2-.1 2.8-1c2.5-1.4 8.1-1.6 12.2-.4m-52.2 51.1c1.7 1.7 1.6 4.4-.1 2.9-.8-.6-1.7-.8-2-.4-.4.3-.7.1-.7-.6 0-.9-.4-.8-1.5.3-1.7 1.7-2 4.6-.4 4.6.5 0 .7.5.3 1.1-.4.8.3.9 2.3.5 2.1-.5 3-.3 3 .7 0 2.2-6.4 2.1-7.6-.2-3.2-5.8 2.4-13.2 6.7-8.9m11.7.7c-.8 2.7 3 3.9 5.4 1.7 1-.9 2.1-1.3 2.4-.9.4.3.7-.1.7-1 0-1.1.7-1.5 2.8-1.2 1.5.2 3.2.4 3.7.4.6.1.4.5-.4 1s-2 .7-2.8.4c-.7-.3-1.3 0-1.3.6s1.1 1.1 2.5 1.1c2.2 0 2.5.4 2.5 3.4 0 3.8-.8 4.4-6.5 4.2-3.1-.1-4.2-.6-5.2-2.6-.7-1.4-1.3-1.9-1.3-1.3 0 .7-.8 1.3-1.7 1.4-1.2.1-.9.4.7.9l2.5.7-2.7.8c-4.1 1.1-5.8 0-5.8-3.5 0-2.8-.2-3-1.5-1.6-.8.8-1.5 2.4-1.5 3.5 0 1.2-.4 2.1-1 2.1-.5 0-1-1.8-1-4 0-3.9.1-4 3.4-4 2.6 0 3.6-.5 4.1-2 .3-1.1 1.1-2 1.6-2 .6 0 .8.9.4 1.9m18.9 3.4c-.1 2.8.2 4.7.9 4.7s.7.4-.1 1.2c-1.7 1.7-3 0-3.2-4.7-.4-5.7-.2-6.7 1.3-6.2.7.2 1.1 2.1 1.1 5m20.8-.6c-.2.7.1 1.3.7 1.3s1 .3 1 .7c-.3 1.9.2 3.3 1.2 3.3.6 0 .9-.9.6-2-.7-2.9 1.8-5.1 4.6-4.1 1.3.5 3.2.4 4.5-.2 2.8-1.3 3.9-.3 1.8 1.8-.9.9-1.6 2.7-1.6 4 0 2.2-3.6 5.5-6.1 5.5-.7 0-2.7-1.2-4.6-2.6-4-3-7.3-3.9-7.3-1.8 0 .8-.5 1.4-1.1 1.4-1.1 0-.9-4.1.3-5 .3-.3.8-1.4 1-2.5.6-3.5 2.1-4.5 3.9-2.6.9.9 1.4 2.2 1.1 2.8m19.8-3.8c0 .6-.5 1.3-1.1 1.7-1.7 1 1.2 2.4 3 1.4.9-.5 2.3-.4 3.3.1 1.1.6 2.5.6 3.6 0 3.6-1.9 6.3 1.8 4.6 6.3-.7 1.8-5.4 2.2-5.4.6 0-.7-.6-.7-1.8-.1-1 .5-3.5.9-5.5.8-3.6-.2-3.7-.3-3.7-4.4 0-2.3.3-4.8.6-5.7.7-1.7 2.4-2.2 2.4-.7m17 2.2c0 2.2.4 2.3 2.9 1 2.2-1.2 4-.1 4.6 2.8.7 4-.4 5.1-5.1 4.9l-4.4-.2v-5.9c0-3.6.4-5.6 1-5.2.6.3 1 1.5 1 2.6M95.5 116c0 3.1-.3 3.5-2.7 3.8-2.3.3-2.8-.1-3.6-3-1-3.8 0-5 3.8-4.6 2.1.3 2.5.8 2.5 3.8"/><path d="M50.1 72.6c0 1.1.3 1.4.6.6.3-.7.2-1.6-.1-1.9-.3-.4-.6.2-.5 1.3M133 69c-.6 1.1-.8 2.4-.5 2.9s0 1.1-.5 1.3c-.6.2-1.2 1.3-1.3 2.6 0 1.2-.4 2.2-.7 2.2-.4 0-.7.7-.7 1.5 0 1.1 1.3 1.5 5.4 1.5 3.1 0 5.3-.4 5.3-1.1 0-.5-.4-.7-1-.4s-.7-.1-.4-.9c.3-.9.1-1.6-.5-1.6s-.8-.6-.5-1.4c.3-.7-.1-2-.9-2.7-.7-.8-1.2-2-.9-2.7.2-.6-.1-1.2-.8-1.2-.6 0-.8-.5-.5-1 .3-.6.4-1 .1-1s-1 .9-1.6 2m-59 46.5c0 .6.7 1.2 1.5 1.2s1.5-.6 1.5-1.2-.7-1.2-1.5-1.2-1.5.6-1.5 1.2m31.6-2.2c.3 1 .9 1.5 1.2 1.2s0-1.1-.7-1.8c-1-.9-1.1-.8-.5.6m7.9.7c-.3.6.1.7.9.4 1.8-.7 2.1-1.4.7-1.4-.6 0-1.3.4-1.6 1m2 6c.3.5.8 1 1.1 1 .2 0 .4-.5.4-1 0-.6-.5-1-1.1-1-.5 0-.7.4-.4 1m14.8-6.3c.4.6.1 1.3-.5 1.6-1.7.6-.8 1.4 2.5 2.2 2.3.6 2.7.4 2.7-1.4 0-1.2-.4-2.1-.9-2.1s-1.7-.3-2.7-.7c-1.1-.4-1.5-.3-1.1.4m7.9 1.3c0 1.4.2 1.9.5 1.2.2-.6.2-1.8 0-2.5-.3-.6-.5-.1-.5 1.3m-11 1c0 1.4.2 1.9.5 1.2.2-.6.2-1.8 0-2.5-.3-.6-.5-.1-.5 1.3m19.6-2.3c-1 .2-1.8.9-1.8 1.5 0 .5.7.7 1.6.4s2.2-.6 3-.6c.9 0 1.2-.5.9-1-.6-1-.9-1.1-3.7-.3m2.7 3.3c.3.5.8 1 1.1 1 .2 0 .4-.5.4-1 0-.6-.5-1-1.1-1-.5 0-.7.4-.4 1M91 115.6c0 .6.7 1.4 1.5 1.8 1 .3 1.5-.1 1.5-1.3 0-1-.7-1.8-1.5-1.8s-1.5.6-1.5 1.3"/></g><path fill="#408000" d="M63.8 57.7c1.8.2 4.5.2 6 0s0-.4-3.3-.4-4.5.2-2.7.4m-9.9 4c-1.3 1.6-1.2 1.7.4.4.9-.7 1.7-1.5 1.7-1.7 0-.8-.8-.3-2.1 1.3"/><path fill="#40BF80" d="M101.8 62.7c.6.2 1.8.2 2.5 0 .6-.3.1-.5-1.3-.5s-1.9.2-1.2.5M50.1 82.6c0 1.1.3 1.4.6.6.3-.7.2-1.6-.1-1.9-.3-.4-.6.2-.5 1.3m64.3 9.6-1.9 2.3 2.3-1.9c2.1-1.8 2.7-2.6 1.9-2.6-.2 0-1.2 1-2.3 2.2m3.4 5.5c.6.2 1.8.2 2.5 0 .6-.3.1-.5-1.3-.5s-1.9.2-1.2.5m-37.3 11.2c-.3.5-.2 1.2.3 1.5s.9-.1.9-.9c0-1.7-.3-1.9-1.2-.6M62 113c-.9.6-1 1-.3 1 .6 0 1.5-.5 1.8-1 .8-1.2.4-1.2-1.5 0m20.1 2.6c0 1.1.3 1.4.6.6.3-.7.2-1.6-.1-1.9-.3-.4-.6.2-.5 1.3m-13.3 1.1c.7.3 1.6.2 1.9-.1.4-.3-.2-.6-1.3-.5-1.1 0-1.4.3-.6.6m36 0c.6.2 1.8.2 2.5 0 .6-.3.1-.5-1.3-.5s-1.9.2-1.2.5m20.8 2c-.6 1.4-.5 1.5.5.6.7-.7 1-1.5.7-1.8s-.9.2-1.2 1.2m20.9-.7c-.3.5-.5 1-.3 1.1 1.6.3 5.9.7 5.7.5-1.8-1.6-4.9-2.5-5.4-1.6m-69.7 1.7c.7.3 1.6.2 1.9-.1.4-.3-.2-.6-1.3-.5-1.1 0-1.4.3-.6.6"/><path fill="#80BF80" d="M50.2 91.5c0 2.6.2 4.4.5 4.1.3-.2.5-2.1.5-4.1s-.2-3.9-.5-4.2c-.3-.2-.5 1.6-.5 4.2"/><g fill="#BF4000" stroke-width="0"><path d="M60.8 59.4c.3.5-.5.7-1.6.4-1.2-.4-2-.3-1.7.2.6 1-3 4.2-3.9 3.3-.4-.4-.4.1 0 1.1.4 1.2.4 1.7-.2 1.3-.6-.3-.8.8-.6 2.8l.4 3.4 2.9-2.1c1.8-1.3 4.9-2.3 8.4-2.6l5.5-.4v-7.6l-4.9-.4c-2.8-.1-4.7.1-4.3.6M51 71.5c0 1.9.4 3.5.8 3.5s.6-1.6.4-3.5-.6-3.5-.8-3.5-.4 1.6-.4 3.5"/><path d="M63.8 68.7c1.8.2 4.5.2 6 0s0-.4-3.3-.4-4.5.2-2.7.4"/></g><path fill="#FF4000" d="M58.3 59.5c-3.8 1.6-6.3 6-6.3 11.1v3.7l2.3-2.1c3.1-2.9 7-4.2 12.8-4.2H72V58h-5.2c-2.9.1-6.7.7-8.5 1.5M70 62.9v3.9l-5.5.4c-3.6.3-6.6 1.3-8.5 2.7l-3 2.2v-2.9c0-3.3 3.2-7.9 6.4-9.2 1.1-.5 4-.9 6.4-.9L70 59z"/><path fill="#80BFBF" d="M87.2 77.5c0 1.6.2 2.2.5 1.2.2-.9.2-2.3 0-3-.3-.6-.5.1-.5 1.8m-36 5c0 1.6.2 2.2.5 1.2.2-.9.2-2.3 0-3-.3-.6-.5.1-.5 1.8M49 90.9c0 2.8.3 5.2.8 5.4.4.3.6-1.8.5-4.6-.2-4 0-4.6.6-2.7l.9 2.5.1-2.8c.1-1.8-.4-2.7-1.4-2.7-1.1 0-1.5 1.2-1.5 4.9m29.3 23.6c0 2.7.2 3.8.4 2.2.2-1.5.2-3.7 0-5-.2-1.2-.4 0-.4 2.8m15.3-1.7c-.3.5.1.9.9.9s1.2-.4.9-.9c-.3-.4-.7-.8-.9-.8s-.6.4-.9.8m-33.7 4c-.3 2-.2 2.9.4 2.3.5-.5.7-1.9.5-3.2-.3-2-.5-1.9-.9.9m59.3-.3c0 1.6.2 2.2.5 1.2.2-.9.2-2.3 0-3-.3-.6-.5.1-.5 1.8m-6.7 1.5c.3.5.8 1 1.1 1 .2 0 .4-.5.4-1 0-.6-.5-1-1.1-1-.5 0-.7.4-.4 1m22.5-.6c0 .2.7.7 1.6 1 .8.3 1.2.2.9-.4-.6-1-2.5-1.4-2.5-.6"/><path fill="#BFBFBF" d="M112 61.4c0 .2.8 1 1.8 1.7 1.5 1.3 1.6 1.2.3-.4s-2.1-2.1-2.1-1.3m-83.7 7.1c0 3.3.2 4.5.4 2.7s.2-4.5 0-6-.4 0-.4 3.3m102.5 13.2c1.8.2 4.5.2 6 0s0-.4-3.3-.4-4.5.2-2.7.4m-89.5 3c1.5.2 3.7.2 5 0 1.2-.2 0-.4-2.8-.4-2.7 0-3.8.2-2.2.4m89.5 1c2.3.2 5.9.2 8 0 2-.2.1-.4-4.3-.4s-6.1.2-3.7.4m-76 6c1.8.2 4.5.2 6 0s0-.4-3.3-.4-4.5.2-2.7.4m47 6c.6.2 1.8.2 2.5 0 .6-.3.1-.5-1.3-.5s-1.9.2-1.2.5m41.3 16c-.1 2.3.3 4.4.7 4.7.4.2.6-1.2.4-3.2-.5-5.6-1-6.2-1.1-1.5m-17.9 1.8c0 1.6.2 2.2.5 1.2.2-.9.2-2.3 0-3-.3-.6-.5.1-.5 1.8m-53.1.1c0 1.1.3 1.4.6.6.3-.7.2-1.6-.1-1.9-.3-.4-.6.2-.5 1.3m16.9-.2c0 .9.5 1.6 1 1.6.6 0 1-.4 1-.9 0-.6-.4-1.3-1-1.6-.5-.3-1 .1-1 .9m16.5-.4c-1.6.7-1.7.9-.3.9.9.1 2-.4 2.3-.9.7-1.1.7-1.1-2 0m14.7 1.5c0 1.6.2 2.2.5 1.2.2-.9.2-2.3 0-3-.3-.6-.5.1-.5 1.8m14.9-.9c0 1.1.3 1.4.6.6.3-.7.2-1.6-.1-1.9-.3-.4-.6.2-.5 1.3m5.6.3c-.4 1.7-.3 2.1.5 1.3.5-.5.8-1.6.6-2.3-.3-.8-.7-.3-1.1 1m7.3-.5c0 .2.9.6 2 .9s1.8.1 1.4-.4c-.5-.9-3.4-1.3-3.4-.5M52.5 119c-.3.6.1.7.9.4 1.8-.7 2.1-1.4.7-1.4-.6 0-1.3.4-1.6 1m15 0c.3.5.8 1 1.1 1 .2 0 .4-.5.4-1 0-.6-.5-1-1.1-1-.5 0-.7.4-.4 1m24.5 0c0 .5.5 1 1.1 1 .5 0 .7-.5.4-1-.3-.6-.8-1-1.1-1-.2 0-.4.4-.4 1m39 0c-.9.6-1 1-.3 1 .6 0 1.5-.5 1.8-1 .8-1.2.4-1.2-1.5 0m18 0c-.9.6-1 1-.3 1 .6 0 1.5-.5 1.8-1 .8-1.2.4-1.2-1.5 0m-11.2.7c.7.3 1.6.2 1.9-.1.4-.3-.2-.6-1.3-.5-1.1 0-1.4.3-.6.6"/><path fill="#FFF" d="M96 59.8c-5.3 2.8-8 8.9-8 18.2 0 5.1.5 8.6 1.8 11 4.1 8.3 14.4 10.6 22.1 5 4-3 4.6-5 1.4-5-.8 0-2.6.9-4 2-4.1 3.2-10.2 2.7-13.8-1-2.6-2.8-3-3.9-3.3-10.6-.5-8.4.7-12.4 4.6-15.4 3.3-2.6 9.2-2.6 12.5 0 1.4 1.1 3.5 2 4.8 2h2.2l-2.4-2.6c-5.2-5.6-11.6-6.9-17.9-3.6m35.6.1c-.3.4-3.3 8-6.7 16.7-3.3 8.8-6.5 16.9-7 18.1-.7 2-.5 2.3 1.4 2.3 1.8 0 2.6-1.1 4.3-5.8l2-5.7 8.2-.3 8.3-.3 2.4 5.2c2.3 5.1 3.9 6.9 6.1 6.9.5 0-2.4-8.6-6.5-19-6.6-16.7-7.8-19-9.8-19-1.2 0-2.4.4-2.7.9m5.7 11.8c1.4 3.8 2.9 7.6 3.3 8.5.5 1.6-.1 1.8-6 1.8-4.3 0-6.6-.4-6.6-1.2 0-1.7 5.4-15.8 6.1-15.8.3 0 1.8 3 3.2 6.7M29 70.1c0 6.7.2 7.3 3.4 10.5S36.1 84 43 84h7.3l-.5-6.5c-.3-3.6-1.3-7.7-2.3-9.1C45.3 65 40.3 63 34 63h-5zm36.2.8c-6.7.5-7.6.9-10.3 3.9-2.6 2.9-2.9 4-2.9 9.7V91h6c10.7 0 14-3.2 14.8-14.2.2-3.7.3-6.7.1-6.6s-3.7.4-7.7.7m-14 39.3c-.7.7-1.2 2.7-1.2 4.5 0 3.9 2.9 6.1 5.8 4.3 1.5-1 1.5-1-.3-.6-3.2.9-4.7-.7-4.3-4.5.3-2.9.7-3.4 3-3.4 1.4.1 2.4-.3 2.2-.7-.8-1.2-3.8-1-5.2.4m25.8.2c0 .7-.9 1.6-2 1.9s-2 1.1-1.9 1.9q0 1.5.6 0c.2-.6 1.2-1.2 2-1.2 1.1 0 1.4.8 1.1 3-.3 1.6-.1 3 .4 3 .4 0 .8-2.3.8-5 0-2.8-.2-5-.5-5s-.5.6-.5 1.4m8 2.9c0 2.5.3 4.8.8 5 .8.6.7-8.2-.2-9-.3-.4-.6 1.4-.6 4M59.1 116c.1 2.7.3 2.9.6 1 .2-1.4 1.1-3 2-3.7 1.3-1 1.3-1.2-.6-1-1.7.1-2.1.7-2 3.7m8.9-3.3c.5.2 1 .9 1 1.4 0 1.4-2.8 1.1-3.3-.4-.3-.6-.6.3-.6 2-.1 1.8.3 3.3.9 3.3.5 0 .7-.7.4-1.5-.4-1.1 0-1.5 1.6-1.5 1.5 0 2-.5 1.8-1.7-.2-.9-.9-1.8-1.6-1.9s-.8 0-.2.3m13.3 2.8c0 2.2.2 3 .4 1.7.2-1.2.2-3 0-4-.3-.9-.5.1-.4 2.3m9.2-2.4c-.4.6-.4 1.3-.1 1.6.3.4.6.1.6-.6 0-.8.8-1.1 2-.8 1.1.3 1.8.1 1.4-.4-.7-1.2-3.1-1.1-3.9.2m46.2-.4c-.3.5.5.8 1.8.8s2.1-.3 1.8-.8c-.2-.4-1-.7-1.8-.7s-1.6.3-1.8.7m-24.7 1.7c0 .8.4 1.7.9 2 .5.4.7-.3.4-1.4-.6-2.3-1.3-2.6-1.3-.6M94.2 117c-.7 1.1-.8 2-.3 2 .9 0 2.4-3 1.8-3.6-.1-.2-.8.6-1.5 1.6m33.8-.1c0 .6.4 1.3 1 1.6s.7-.1.4-.9c-.7-1.8-1.4-2.1-1.4-.7M73 118c0 .5.5 1 1.1 1 .5 0 .7-.5.4-1-.3-.6-.8-1-1.1-1-.2 0-.4.4-.4 1m17 0c0 .5.5 1 1.1 1 .5 0 .7-.5.4-1-.3-.6-.8-1-1.1-1-.2 0-.4.4-.4 1m26.6 2.7c-.6 1.4-.5 1.5.5.6.7-.7 1-1.5.7-1.8s-.9.2-1.2 1.2"/><path fill="green" d="M51.1 95.6c0 1.1.3 1.4.6.6.3-.7.2-1.6-.1-1.9-.3-.4-.6.2-.5 1.3m66.7 3.1c.6.2 1.8.2 2.5 0 .6-.3.1-.5-1.3-.5s-1.9.2-1.2.5m-34.5 16.8c0 2.2.2 3 .4 1.7.2-1.2.2-3 0-4-.3-.9-.5.1-.4 2.3m54.1.5c.2 1.6 2 1.4 2.4-.2.3-1 .2-1-.6.1-.7.9-1.1 1-1.5.2-.4-.7-.5-.8-.3-.1"/><path fill="#408080" d="M31.3 62.7c1.5.2 3.9.2 5.5 0 1.5-.2.2-.4-2.8-.4s-4.3.2-2.7.4m42 12.8c0 3.3.2 4.5.4 2.7s.2-4.5 0-6-.4 0-.4 3.3M50.2 79c0 1.4.2 1.9.5 1.2.2-.6.2-1.8 0-2.5-.3-.6-.5-.1-.5 1.3m94.1 34c0 2.5.2 3.5.4 2.2.2-1.2.2-3.2 0-4.5-.2-1.2-.4-.2-.4 2.3m-64.1 2c0 1.4.2 1.9.5 1.2.2-.6.2-1.8 0-2.5-.3-.6-.5-.1-.5 1.3m45.9.6c0 1.1.3 1.4.6.6.3-.7.2-1.6-.1-1.9-.3-.4-.6.2-.5 1.3"/><path fill="#BFFFFF" d="M63.8 70.7c1.8.2 4.5.2 6 0s0-.4-3.3-.4-4.5.2-2.7.4"/><path fill="#004000" d="M51.5 76.1c-.4.6-.5 1.2-.2 1.5.2.3.7-.2 1-1.1.7-1.7.1-2-.8-.4m27.8 39.4c0 2.2.2 3 .4 1.7.2-1.2.2-3 0-4-.3-.9-.5.1-.4 2.3m38.9-.5c0 1.4.2 1.9.5 1.2.2-.6.2-1.8 0-2.5-.3-.6-.5-.1-.5 1.3m-4.4 5.7c.7.3 1.6.2 1.9-.1.4-.3-.2-.6-1.3-.5-1.1 0-1.4.3-.6.6"/></svg>