<svg xmlns="http://www.w3.org/2000/svg" version="1.0" viewBox="0 0 512 512"><path fill="#BF0040" fill-opacity=".1" d="M41.1 206.6c0 1.1.3 1.4.6.6.3-.7.2-1.6-.1-1.9-.3-.4-.6.2-.5 1.3M342.4 245c0 12.9.2 18.2.3 11.7.2-6.4.2-17 0-23.5-.1-6.4-.3-1.1-.3 11.8m-91 5.5c0 7.7.2 10.7.3 6.7.2-4 .2-10.3 0-14s-.3-.4-.3 7.3m-73 4.5c0 7.4.1 10.5.3 6.7.2-3.7.2-9.7 0-13.5-.2-3.7-.3-.6-.3 6.8m-21 0c0 6.9.1 9.7.3 6.2.2-3.4.2-9 0-12.5-.2-3.4-.3-.6-.3 6.3m82.9 6c0 3 .2 4.3.4 2.7.2-1.5.2-3.9 0-5.5-.2-1.5-.4-.2-.4 2.8m42 1.5c0 3.3.2 4.5.4 2.7s.2-4.5 0-6-.4 0-.4 3.3m-207.6 6.6c.7.7 1.5 1 1.8.7s-.2-.9-1.2-1.2c-1.4-.6-1.5-.5-.6.5m277.7 26.4c0 10.4.2 14.6.3 9.2.2-5.4.2-13.9 0-19-.1-5.1-.3-.7-.3 9.8m41.4-2.8c.7.3 1.6.2 1.9-.1.4-.3-.2-.6-1.3-.5-1.1 0-1.4.3-.6.6"/><path fill="#BF0040" fill-opacity=".3" d="M167.4 225.5c0 12.6.2 17.7.3 11.2.2-6.5.2-16.8 0-23-.1-6.2-.3-.9-.3 11.8m-21-1.5c0 11.3.2 15.9.3 10.2.2-5.6.2-14.8 0-20.5-.1-5.6-.3-1-.3 10.3m97.9-2.3c1.5.2 3.7.2 5 0 1.2-.2 0-.4-2.8-.4-2.7 0-3.8.2-2.2.4m51 0c1.5.2 3.7.2 5 0 1.2-.2 0-.4-2.8-.4-2.7 0-3.8.2-2.2.4M135.4 242c0 11.3.2 15.9.3 10.2.2-5.6.2-14.8 0-20.5-.1-5.6-.3-1-.3 10.3m136 13c0 6.9.1 9.7.3 6.2.2-3.4.2-9 0-12.5-.2-3.4-.3-.6-.3 6.3m-125 1c0 6.3.1 8.9.3 5.7.2-3.1.2-8.3 0-11.5-.2-3.1-.3-.5-.3 5.8m208.4 20.7c.6.2 1.8.2 2.5 0 .6-.3.1-.5-1.3-.5s-1.9.2-1.2.5m53.6 30.8c0 9.9.2 13.8.3 8.7.2-5.1.2-13.2 0-18-.1-4.8-.3-.6-.3 9.3m5.6 1.4c0 .6.4 1.3 1 1.6s.7-.1.4-.9c-.7-1.8-1.4-2.1-1.4-.7"/><path fill="#BF0040" fill-opacity=".5" d="M149.8 202.7c1.2.2 3 .2 4 0 .9-.3-.1-.5-2.3-.4-2.2 0-3 .2-1.7.4m21 0c1.2.2 3 .2 4 0 .9-.3-.1-.5-2.3-.4-2.2 0-3 .2-1.7.4m92 18c.6.2 1.8.2 2.5 0 .6-.3.1-.5-1.3-.5s-1.9.2-1.2.5m51.5 0c.9.2 2.3.2 3 0 .6-.3-.1-.5-1.8-.5-1.6 0-2.2.2-1.2.5m58.1 14.8c0 7.7.2 10.7.3 6.7.2-4 .2-10.3 0-14s-.3-.4-.3 7.3m41 9c0 12.1.2 16.9.3 10.7.2-6.2.2-16.1 0-22-.1-5.9-.3-.8-.3 11.3m-209.1-7.8c3.1.2 8.3.2 11.5 0 3.1-.2.5-.3-5.8-.3s-8.9.1-5.7.3m98.1 14.8c0 8.2.2 11.5.3 7.2.2-4.3.2-11 0-15-.1-4-.3-.5-.3 7.8M185.2 244c0 1.4.2 1.9.5 1.2.2-.6.2-1.8 0-2.5-.3-.6-.5-.1-.5 1.3m21-.3c4.8.2 12.9.2 18 0 5.1-.1 1.2-.3-8.7-.3s-14.1.2-9.3.3m152.1 40.8c0 4.4.2 6.1.4 3.7.2-2.3.2-5.9 0-8-.2-2-.4-.1-.4 4.3m0 16.5c0 4.1.2 5.8.4 3.7.2-2 .2-5.4 0-7.5-.2-2-.4-.3-.4 3.8"/><path fill="#BF0040" fill-opacity=".8" d="M36 190.4c0 .2.8 1 1.8 1.7 1.5 1.3 1.6 1.2.3-.4s-2.1-2.1-2.1-1.3m70.1 14.2c0 1.1.3 1.4.6.6.3-.7.2-1.6-.1-1.9-.3-.4-.6.2-.5 1.3m246.3 39.9c0 12.1.2 16.9.3 10.7.2-6.2.2-16.1 0-22-.1-5.9-.3-.8-.3 11.3m10-10c0 6.6.1 9.2.3 5.7.2-3.4.2-8.8 0-12-.2-3.1-.3-.3-.3 6.3m31 2c0 7.7.2 10.7.3 6.7.2-4 .2-10.3 0-14s-.3-.4-.3 7.3m82 27.5c.1 3.3.3 3.5 3.6 3.6 3.4.2 3.4.1.3-.3-2.7-.4-3.2-.9-3.6-3.6-.4-3.1-.4-3.1-.3.3m-349.5 3.3c.5.5 2.8.7 5.2.5l4.4-.3-5.2-.5c-2.9-.3-4.8-.1-4.4.3m198 0c.5.5 2.8.7 5.2.5l4.4-.3-5.2-.5c-2.9-.3-4.8-.1-4.4.3m-174.6.4c1.5.2 3.7.2 5 0 1.2-.2 0-.4-2.8-.4-2.7 0-3.8.2-2.2.4m21 0c1.5.2 3.7.2 5 0 1.2-.2 0-.4-2.8-.4-2.7 0-3.8.2-2.2.4m74 0c1.5.2 3.7.2 5 0 1.2-.2 0-.4-2.8-.4-2.7 0-3.8.2-2.2.4m30 0c1.5.2 3.7.2 5 0 1.2-.2 0-.4-2.8-.4-2.7 0-3.8.2-2.2.4m21 0c1.5.2 3.7.2 5 0 1.2-.2 0-.4-2.8-.4-2.7 0-3.8.2-2.2.4m50.5 0c1.2.2 3.2.2 4.5 0 1.2-.2.2-.4-2.3-.4s-3.5.2-2.2.4m70.5 0c1.5.2 3.7.2 5 0 1.2-.2 0-.4-2.8-.4-2.7 0-3.8.2-2.2.4m-52.5 21c.6.2 1.8.2 2.5 0 .6-.3.1-.5-1.3-.5s-1.9.2-1.2.5m57 26c.6.2 1.8.2 2.5 0 .6-.3.1-.5-1.3-.5s-1.9.2-1.2.5"/><path fill="#BF0040" d="M33.9 188.7c7.3 3.8 9.6 10.4 8 22.8-2.6 20.7-7 52.2-7.5 53.7s.1 1.8 4 1.8c4.5 0 4.6-.1 4.6-3.3 0-1.7 1.1-11.8 2.5-22.2 1.4-10.5 2.7-20.6 2.7-22.6.1-2.1.7-3.5 1.3-3.3.5.3 4.1 8 7.9 17.2 9.6 23.3 14.1 32.5 16.6 34 1.2.7 2.3 1.2 2.4 1S81.1 256 86.5 242s10-25.7 10.1-25.9c1-1.1 1.5 1.8 3.4 18 1.1 9.6 2.2 18.5 2.5 19.9s.6 4.9.7 7.7l.2 5.3h5.8c3.3 0 5.7-.4 5.4-.8-.4-.8-8.6-59.8-8.6-62.3 0-.5-2.9-.9-6.4-.9-5.9 0-6.4.2-7 2.4-1.3 5.3-16.9 43.6-17.7 43.6-.5 0-.9-.5-.9-1 0-1.1-16.2-39.5-19.2-45.3-2.2-4.4-8.5-11-12.5-13-1.5-.8-4.8-1.8-7.3-2.2l-4.5-.6zM147 235v32h9.5l-.3-32-.3-32H147zm21 0v32h9.5l-.3-32-.3-32H168zm-40.7-29.8c-2.9 1.4-3.8 5.4-1.9 8.3 2.1 3.2 5.2 4 8.1 2.1 3.3-2.2 3.5-7.8.3-10-2.6-1.8-3.5-1.9-6.5-.4m218-.2c-4.4 1.8-4.1 9.3.3 11 7.3 2.8 11.9-7.6 4.9-10.8-1.4-.7-2.7-1.2-2.8-1.1-.1 0-1.2.4-2.4.9m-145.8 17.9c-10.6 4.9-15.4 15.2-12.5 27.1 3.2 13.2 20 21 36.4 16.9 3.7-.9 4.6-1.7 6.5-5.7 1.2-2.5 1.7-4.1.9-3.5-2.5 2-8.9 3.5-14.9 3.5-7.8 0-13.8-3.4-16.8-9.5-1.2-2.4-2.1-5.3-2.1-6.5 0-2.2.2-2.2 17.9-2.2h17.8l-.8-4.5c-1.5-8.2-5.3-13.1-12.1-16-5.1-2.1-15.3-1.9-20.3.4m16 5.5c2.8 1.2 6.5 5.8 6.5 8.1 0 .3-5.6.5-12.5.5s-12.5-.4-12.5-.9c0-1.8 4.4-6.4 7.4-7.7 4-1.7 6.9-1.7 11.1 0m42-6c-1.7.7-3.6 2-4.4 2.9-2 2.5-3.2 2.1-2.5-.8.6-2.4.5-2.5-4.6-2.5h-5.2l.3 22.5.4 22.5h9.5v-17c0-16.8 0-17.1 2.5-19.5 1.9-1.9 3.5-2.5 7-2.5 10.1 0 11.5 2.9 11.5 23.5V267h9.5l-.5-19.1-.5-19.1-3.2-2.8c-5.2-4.7-13.8-6.2-19.8-3.6m50.7.2c-1.9 1-3.6 2.3-3.9 3.1-.9 2.2-2.3 1.5-2.3-1.2 0-2.3-.4-2.5-4.5-2.5H293v45h9v-16.1c0-20.3 1.1-22.8 10.1-22.9 5.7 0 9.4 2.6 10.9 7.8.5 2 1 9.9 1 17.4V267h9.2l-.4-17.8c-.3-19.5-1.1-22.1-7-25.7-4.3-2.5-13.5-3-17.6-.9m121 .1c-1.9.9-3.6 2.2-3.9 3-.9 2.2-2.3 1.5-2.3-1.2 0-2.3-.4-2.5-4.5-2.5H414v45h9v-13.9c0-7.6.3-15.2.6-17 1-4.8 4.9-8.1 9.6-8.1 9.4 0 11.7 4.9 11.8 24.7V267h9v-15c0-20.4 1.6-24 10.8-24 8.8 0 11.2 5.6 11.2 25.9V267h9.2l-.4-17.8c-.3-16.3-.5-18-2.6-21.3-4-6.5-14.4-8.8-22.8-5-2.3 1-4.8 2.8-5.6 4-1.5 2.1-1.5 2.1-5.1-1.3-5.1-4.8-13.2-6-19.5-2.9M126 244.5V267h9v-45h-9zm217.5 0V267h8.5v-45h-8.5zm19.5-5.8c0 19.2 1.2 23.6 7.2 27.3 5 3 14.4 2.8 19.2-.5 4.4-3 4.6-3 4.6-.5 0 1.7.7 2 4.5 2h4.5v-45h-9v14c0 15-.9 18.8-5 22.5-3.5 3.1-10.2 2.7-13.7-.8l-2.8-2.7-.3-16.5-.3-16.5H363zm-9.5 56.7v18.4l4.3.6c6.2.8 12.7-1.1 15.7-4.6 6.8-8 2.3-20.8-7.4-20.8-2.5 0-4 .6-4.8 1.9-1.1 1.8-1 1.9 2.2 1.4 7.6-1.2 11.5 9 5.9 15.6-2.2 2.6-3.3 3.1-7 3.1H358v-17c0-17 0-17-2.2-17h-2.3zm34.8-5.3c-9 4.5-9.9 16.9-1.6 22 4.6 2.9 13 3.1 14.9.4 2-2.7 1.7-3.7-.5-2.5-6.3 3.3-15.1-2.2-15.1-9.4 0-5.2 3.6-8.7 9-8.8.3-.1 1.7.2 3.3.6 2.2.5 2.7.3 2.7-1.3 0-3.7-6.3-4.2-12.7-1m29.2-.1c-4.7 2.4-4.9 2.4-4.1.5.4-1.1-.1-1.5-1.9-1.5H409v36h4.9v-14.7c0-14 .1-14.9 2.1-16.5 3.6-2.9 8.4-2.3 11.4 1.3 3 3.5 3.3 7.6 1.1 11.9-1.7 3.2-4.8 4.5-9.4 3.8-2.6-.4-2.8-.2-1.7 1.4.8 1.3 2.3 1.8 5.4 1.8 9.4 0 15.4-11.5 10.2-19.8-1.9-3.1-7.1-6.2-10.3-6.2-.7 0-3 .9-5.2 2"/><path fill="#BF0040" fill-opacity=".9" d="M156.4 235.5c0 17 .2 24.2.3 15.8.2-8.3.2-22.3 0-31-.1-8.7-.3-1.9-.3 15.2m21 .5c0 16.8.2 23.6.3 15.2.2-8.3.2-22.1 0-30.5-.1-8.3-.3-1.5-.3 15.3m166 8.5c0 12.1.2 16.9.3 10.7.2-6.2.2-16.1 0-22-.1-5.9-.3-.8-.3 11.3m113.5-13.8c-1.3 1.6-1.2 1.7.4.4.9-.7 1.7-1.5 1.7-1.7 0-.8-.8-.3-2.1 1.3m-175.5 20.8c0 8.2.2 11.5.3 7.2.2-4.3.2-11 0-15-.1-4-.3-.5-.3 7.8m-40.1 9c0 3.3.2 4.5.4 2.7s.2-4.5 0-6-.4 0-.4 3.3M73 266.4c0 .2.8 1 1.8 1.7 1.5 1.3 1.6 1.2.3-.4s-2.1-2.1-2.1-1.3m305.8 2.3c.7.3 1.6.2 1.9-.1.4-.3-.2-.6-1.3-.5-1.1 0-1.4.3-.6.6m-25.4 26.8c0 9.9.2 13.8.3 8.7.2-5.1.2-13.2 0-18-.1-4.8-.3-.6-.3 9.3M413 291c0 .5.5 1 1.1 1 .5 0 .7-.5.4-1-.3-.6-.8-1-1.1-1-.2 0-.4.4-.4 1"/><path fill="#BF0040" fill-opacity=".6" d="M125.3 227.5c0 2.7.2 3.8.4 2.2.2-1.5.2-3.7 0-5-.2-1.2-.4 0-.4 2.8m360 15c0 2.7.2 3.8.4 2.2.2-1.5.2-3.7 0-5-.2-1.2-.4 0-.4 2.8M444.4 253c0 7.4.1 10.5.3 6.7.2-3.7.2-9.7 0-13.5-.2-3.7-.3-.6-.3 6.8m10 .5c0 7.7.2 10.7.3 6.7.2-4 .2-10.3 0-14s-.3-.4-.3 7.3m-63.5 11.2c-1.3 1.6-1.2 1.7.4.4s2.1-2.1 1.3-2.1c-.2 0-1 .8-1.7 1.7m5.4 3c1.5.2 3.7.2 5 0 1.2-.2 0-.4-2.8-.4-2.7 0-3.8.2-2.2.4m14.5 21c.6.2 1.8.2 2.5 0 .6-.3.1-.5-1.3-.5s-1.9.2-1.2.5m-24.7 11.9c0 1.1.3 1.4.6.6.3-.7.2-1.6-.1-1.9-.3-.4-.6.2-.5 1.3m43.1 1.4c0 1.4.2 1.9.5 1.2.2-.6.2-1.8 0-2.5-.3-.6-.5-.1-.5 1.3m-33.4 8.7c.7.3 1.6.2 1.9-.1.4-.3-.2-.6-1.3-.5-1.1 0-1.4.3-.6.6"/><path fill="#BF0040" fill-opacity=".7" d="M292.4 245c0 12.4.2 17.4.3 11.2.2-6.1.2-16.3 0-22.5-.1-6.1-.3-1.1-.3 11.3M470 229.4c0 .2.8 1 1.8 1.7 1.5 1.3 1.6 1.2.3-.4s-2.1-2.1-2.1-1.3M125.4 249c0 9.6.2 13.6.3 8.7.2-4.8.2-12.6 0-17.5-.1-4.8-.3-.8-.3 8.8m298 4c0 8 .2 11.2.3 7.2.2-3.9.2-10.5 0-14.5-.1-3.9-.3-.7-.3 7.3m52-2.5c0 5.5.1 7.6.3 4.7s.2-7.4 0-10-.3-.2-.3 5.3m-152 3.5c0 6.9.1 9.7.3 6.2.2-3.4.2-9 0-12.5-.2-3.4-.3-.6-.3 6.3m38.8-5.5c0 1.6.2 2.2.5 1.2.2-.9.2-2.3 0-3-.3-.6-.5.1-.5 1.8m123 8.2c-.2 8.7-.4 10.2-1.9 10.6-1.7.4-1.7.5 0 .6 2.5.1 2.8-1.4 2.4-12l-.3-9.4zM191 259.4c0 .2.8 1 1.8 1.7 1.5 1.3 1.6 1.2.3-.4s-2.1-2.1-2.1-1.3m253.9 7.9c.5.5 2.8.7 5.2.5l4.4-.3-5.2-.5c-2.9-.3-4.8-.1-4.4.3m-408.6.4c1.5.2 3.7.2 5 0 1.2-.2 0-.4-2.8-.4-2.7 0-3.8.2-2.2.4m70.5 0c1.8.2 4.5.2 6 0s0-.4-3.3-.4-4.5.2-2.7.4m294.3 23.9c0 1.1.3 1.4.6.6.3-.7.2-1.6-.1-1.9-.3-.4-.6.2-.5 1.3m-21 10c0 1.1.3 1.4.6.6.3-.7.2-1.6-.1-1.9-.3-.4-.6.2-.5 1.3"/><path fill="#BF0040" fill-opacity=".2" d="M95.3 202.7c2 .2 5.4.2 7.5 0 2-.2.3-.4-3.8-.4s-5.8.2-3.7.4m34.5 1c.7.3 1.6.2 1.9-.1.4-.3-.2-.6-1.3-.5-1.1 0-1.4.3-.6.6m-2.5 18c1.5.2 3.9.2 5.5 0 1.5-.2.2-.4-2.8-.4s-4.3.2-2.7.4m113.1.6c-.2.7-.3 8.7-.2 17.7l.3 16.5.5-17.8c.3-9.7.4-17.7.2-17.7-.1 0-.5.6-.8 1.3m104.9-.6c1.5.2 3.9.2 5.5 0 1.5-.2.2-.4-2.8-.4s-4.3.2-2.7.4m71 0c1.5.2 3.9.2 5.5 0 1.5-.2.2-.4-2.8-.4s-4.3.2-2.7.4m-156.5 7c.7.3 1.6.2 1.9-.1.4-.3-.2-.6-1.3-.5-1.1 0-1.4.3-.6.6M167.4 257c0 5.2.1 7.4.3 4.7.2-2.6.2-6.8 0-9.5-.2-2.6-.3-.4-.3 4.8m47.9 3.7c.9.2 2.3.2 3 0 .6-.3-.1-.5-1.8-.5-1.6 0-2.2.2-1.2.5m-80.1 4.3c0 1.9.2 2.7.5 1.7.2-.9.2-2.5 0-3.5-.3-.9-.5-.1-.5 1.8m115.9.6c0 1.1.3 1.4.6.6.3-.7.2-1.6-.1-1.9-.3-.4-.6.2-.5 1.3m163.2 37.9c0 2.7.2 3.8.4 2.2.2-1.5.2-3.7 0-5-.2-1.2-.4 0-.4 2.8m0 14.5c0 4.1.2 5.8.4 3.7.2-2 .2-5.4 0-7.5-.2-2-.4-.3-.4 3.8m-53.5-2.3c.6.2 1.8.2 2.5 0 .6-.3.1-.5-1.3-.5s-1.9.2-1.2.5m34 0c.7.3 1.6.2 1.9-.1.4-.3-.2-.6-1.3-.5-1.1 0-1.4.3-.6.6"/><path fill="#BF0040" fill-opacity=".4" d="M365.3 221.7c1.5.2 3.7.2 5 0 1.2-.2 0-.4-2.8-.4-2.7 0-3.8.2-2.2.4m32.9 0 4.8.4.3 22.5.3 22.4-.1-22.7v-22.8l-5-.1-5-.1zm-64.8 29.8c0 8.2.2 11.5.3 7.2.2-4.3.2-11 0-15-.1-4-.3-.5-.3 7.8M358 293c0 .5.5 1 1.1 1 .5 0 .7-.5.4-1-.3-.6-.8-1-1.1-1-.2 0-.4.4-.4 1m19.2 8c0 1.4.2 1.9.5 1.2.2-.6.2-1.8 0-2.5-.3-.6-.5-.1-.5 1.3m-6.1.6c0 1.1.3 1.4.6.6.3-.7.2-1.6-.1-1.9-.3-.4-.6.2-.5 1.3"/></svg>