<svg xmlns="http://www.w3.org/2000/svg" version="1.0" viewBox="0 0 600 600"><g fill="#FFF" stroke-width="0"><path d="M0 300v300h600V0H0zm101.7-57.6c15.2 7.1 23.6 25.7 19 41.7-3.2 10.8-11.5 19.9-21.5 23.4-2.6 1-5.5 2-6.5 2.4-1.5.5.9 4.4 15.3 24.4 9.3 13 17 24.2 17 24.7 0 .6-5.3 1-13.7.9H97.5l-18-25.5-18-25.4-.3-7.7c-.5-13-1.3-12.3 13.6-12.3 14.5 0 18.1-1.1 21.9-6.9 4.6-6.8 2-15.9-5.7-19.9-4.3-2.1-5.3-2.2-32.7-2.2H30v-20h33.3c33 0 33.2 0 38.4 2.4M420 300v60h-23V240h23zm129-41v12h21v20h-21v22.9c0 19.5.2 23.2 1.6 24.5 1.2 1.2 3.7 1.6 10.5 1.6h8.9v20h-13.9c-13.2 0-14.1-.1-19.2-2.8-4.2-2.2-5.8-3.8-7.9-7.7l-2.5-4.9-.3-48.8-.3-48.8H549zM53 314.5V360H30v-91h23zm126.5-43.1c19.4 5.2 30.5 20.1 30.5 41.3v8.3h-64.2l.7 3.2c.4 1.8 1.6 5.2 2.7 7.6 6.2 13.1 30.4 13.3 35.8.3l1.2-3 11.5-.3 11.5-.3-.6 3c-1.9 9.6-10.8 20.5-20.5 25.2-4.9 2.4-7 2.8-17.7 3.1-13.9.5-20.8-1-28.6-6-20.6-13.1-25.9-46-10.8-67 3.3-4.7 14.3-13.7 16.9-13.8.3-.1 2.9-.7 5.6-1.5 6.4-1.8 19.6-1.8 26-.1m174.7-.3c20.3 4.3 33.8 22.1 33.8 44.5 0 20.3-11.6 37-29.8 42.9-4.2 1.3-8 1.6-18 1.3-12-.3-13.1-.5-19.3-3.5-11.4-5.6-20.1-16.4-22.8-28.4-1.8-7.5-1.3-21 .9-28.1 4.3-14.1 14.9-24.4 29-28.2 6.7-1.8 19-2 26.2-.5m-110.4 31.2 10.5 30.9 10.6-31.1 10.6-31.1h11.7c6.5 0 11.8.3 11.8.7.1.5-7 20.5-15.7 44.5L267.5 360h-26.2l-15.6-42.8c-8.5-23.5-15.9-43.5-16.2-44.5-.7-1.6.1-1.7 11.5-1.5l12.3.3zm211.2-4.7c0 16.4.4 28.2 1.1 31 2.1 8.3 9.9 13.2 18.9 11.8 5.6-.9 10-4.1 13-9.4 2.5-4.5 2.5-4.8 2.8-32.3l.3-27.7H514v89h-9.9c-10.7 0-11-.2-11.1-6.8 0-2.8-1.1-2.8-3.6-.1-1 1.2-4.1 3.2-6.9 4.5-4.2 2-6.6 2.4-15.1 2.4-6.8 0-11.6-.5-15-1.7-6.8-2.3-14.4-10.1-17.5-17.8-2.3-5.8-2.4-7-2.7-37.8l-.3-31.7H455z"/><path d="M162.5 288.9c-7.1 1.8-13.2 7-15 12.8l-.6 2.3H187l-1.5-3.7c-3-7.1-7.7-10.5-16-11.6-2.2-.3-5.3-.2-7 .2m169.6 3.3c-8.3 4.1-12.8 14.1-11.9 26.2 1.2 14.6 11.7 23.8 25.1 22.2 9.4-1.1 15.6-7 18.3-17.5 3.4-13.4-1.3-25.8-11.8-31.2-5.2-2.7-14-2.5-19.7.3"/></g><g stroke-width="0"><path d="M30 249.4v9.6h28.5c31.3 0 32.6.2 37.9 5.9 2.4 2.5 3 4.2 3.4 8.8.3 4.8 0 6.4-2 9.2-4.1 6-7.6 7.1-22 7.1H63v19.2l11.2 15.6c6.2 8.6 14.3 19.9 18 24.9L99 359h12c6.6 0 12-.4 12-.9s-7.7-11.5-17-24.5c-9.4-13-16.8-24.1-16.5-24.7.4-.5 1.9-.9 3.4-.9 4.3 0 14.5-5.6 18.6-10.2 6.3-6.9 9-14 9-23.3 0-7.1-.4-8.9-3.3-14.7-3.9-8-10.1-13.8-18.1-17-5.3-2.2-7.1-2.3-37.3-2.6l-31.8-.3zm369 50.1V359h20V240h-20zm128.2-3.3c.3 47.7.3 48.3 2.5 52.5 4.4 8.2 10 10.3 27.5 10.3h12.9l-.3-8.8-.3-8.7-9-.3c-13.1-.4-12.5 1-12.5-27.8V290h22v-18h-22v-24h-21.1z"/><path d="m30.2 314.2.3 44.3h21l.3-44.3.2-44.2H30zM156 272.1c-10.4 2-22.3 10.7-26.8 19.5-4.1 8.1-5.4 15-5 26.3.6 13.3 3 19.9 9.9 27.5 9 9.9 19.3 14 34.4 13.9 19.5-.2 33.8-10.1 38.6-26.5l.8-2.8h-20.5l-1.7 3.5c-2.5 5.3-8.7 8.8-16.2 9.3-3.5.2-8-.1-10-.8-5.9-1.9-11.3-7.4-13-13.3-2.8-9.5-5.8-8.7 30.5-8.7h32v-7.4c0-12.8-5.2-24.9-13.6-31.9-9.6-8.1-25-11.4-39.4-8.6m17.5 16c2.2.6 5.5 2.2 7.4 3.6 3.1 2.4 7 9.1 7.1 12 0 1-4.9 1.3-21 1.3-23.6 0-23.1.2-18.7-7.4 4.8-8.5 14.9-12.3 25.2-9.5M329 272.8c-19.3 5-31 21-31 42.2 0 9.6 2.1 18 6.4 25 13.5 22 49.1 26.4 68.6 8.3 21.8-20.2 16.8-60.3-9.1-72.5-10.5-4.9-23.3-6-34.9-3m24.1 18.3c8.2 4.2 12.2 11.8 12.3 24 .1 7.6-.2 9.2-2.9 14.4-4.2 8.2-9.4 11.8-17.9 12.3-7.6.5-12.6-.9-17.2-5.1-6.3-5.4-7.9-9.8-7.9-21.2 0-8.4.4-10.7 2.2-14 6.4-12 19.7-16.4 31.4-10.4M211 272.6c0 .5 27 75.2 30.7 85.1.4 1 3.8 1.3 12.5 1.3h11.9l1.4-3.4c.8-1.9 7.7-20.7 15.4-41.8s14.2-39.1 14.6-40.1c.7-1.6-.2-1.7-10.2-1.7h-10.8l-10.4 30.2c-5.7 16.7-10.7 31-11.1 31.8-1.1 1.8.2 5.1-12.5-31.8l-10.2-29.7-10.6-.3c-5.9-.1-10.7 0-10.7.4m222.2 30.1c.4 29.6.5 31 2.7 36.7 5.3 13.3 15.6 19.9 31.1 19.9 9.5.1 15-1.8 22-7.3 2.1-1.7 4.1-2.7 4.3-2.3.3.5.8 2.7 1.2 5l.7 4.3H513v-87h-20v21.2c0 11.7-.5 24.4-1 28.3-1.2 8.2-4.6 14.5-9.4 17.5-4.4 2.6-12.2 3.6-16.9 2.1-4.5-1.5-9.3-6.8-10.6-11.8-.7-2.2-1.1-15-1.1-30.6V272h-21.2z"/></g><path fill="#404040" d="M398.5 299.5c0 33 .1 46.4.2 29.7.2-16.7.2-43.7 0-60-.1-16.3-.2-2.7-.2 30.3M36.3 269.7c3.2.2 8.1.2 11 0s.3-.3-5.8-.3c-6 0-8.4.1-5.2.3m456.1 24.8c0 12.6.2 17.7.3 11.2.2-6.5.2-16.8 0-23-.1-6.2-.3-.9-.3 11.8M194 279.4c0 .2.8 1 1.8 1.7 1.5 1.3 1.6 1.2.3-.4s-2.1-2.1-2.1-1.3m114.9 4.3c-1.3 1.6-1.2 1.7.4.4s2.1-2.1 1.3-2.1c-.2 0-1 .8-1.7 1.7m-213.5 1.5-1.9 2.3 2.3-1.9c2.1-1.8 2.7-2.6 1.9-2.6-.2 0-1.2 1-2.3 2.2m68.4 2.5c.7.3 1.6.2 1.9-.1.4-.3-.2-.6-1.3-.5-1.1 0-1.4.3-.6.6m5 0c.7.3 1.6.2 1.9-.1.4-.3-.2-.6-1.3-.5-1.1 0-1.4.3-.6.6m172.5 1c.9.2 2.3.2 3 0 .6-.3-.1-.5-1.8-.5-1.6 0-2.2.2-1.2.5M62.4 300c0 5.2.1 7.4.3 4.7.2-2.6.2-6.8 0-9.5-.2-2.6-.3-.4-.3 4.8m88.5-6.3-2.4 2.8 2.8-2.4c2.5-2.3 3.2-3.1 2.4-3.1-.2 0-1.4 1.2-2.8 2.7m235.2 14.9c0 1.1.3 1.4.6.6.3-.7.2-1.6-.1-1.9-.3-.4-.6.2-.5 1.3m-295.3.1c.7.3 1.6.2 1.9-.1.4-.3-.2-.6-1.3-.5-1.1 0-1.4.3-.6.6m32.5 6.8c0 3.3.2 4.5.4 2.7s.2-4.5 0-6-.4 0-.4 3.3m241.8-3.9c0 1.1.3 1.4.6.6.3-.7.2-1.6-.1-1.9-.3-.4-.6.2-.5 1.3m0 8c0 1.1.3 1.4.6.6.3-.7.2-1.6-.1-1.9-.3-.4-.6.2-.5 1.3m21 3c0 1.1.3 1.4.6.6.3-.7.2-1.6-.1-1.9-.3-.4-.6.2-.5 1.3m-28.7 13.6-1.9 2.3 2.3-1.9c2.1-1.8 2.7-2.6 1.9-2.6-.2 0-1.2 1-2.3 2.2m-175 1-1.9 2.3 2.3-1.9c2.1-1.8 2.7-2.6 1.9-2.6-.2 0-1.2 1-2.3 2.2m302.5-.5c-1.3 1.6-1.2 1.7.4.4.9-.7 1.7-1.5 1.7-1.7 0-.8-.8-.3-2.1 1.3m-17.1 5c.7.3 1.6.2 1.9-.1.4-.3-.2-.6-1.3-.5-1.1 0-1.4.3-.6.6m-93.4 5.5-2.9 3.3 3.3-2.9c3-2.8 3.7-3.6 2.9-3.6-.2 0-1.6 1.5-3.3 3.2m-239.4.3c1.3 1.4 2.6 2.5 2.8 2.5.3 0-.5-1.1-1.8-2.5s-2.6-2.5-2.8-2.5c-.3 0 .5 1.1 1.8 2.5m307.5 3.5c1 1.1 2 2 2.3 2s-.3-.9-1.3-2-2-2-2.3-2 .3.9 1.3 2m-319.9 6.3c.3 1 .9 1.5 1.2 1.2s0-1.1-.7-1.8c-1-.9-1.1-.8-.5.6m39.2 2.4c.7.3 1.6.2 1.9-.1.4-.3-.2-.6-1.3-.5-1.1 0-1.4.3-.6.6m11 0c.7.3 1.6.2 1.9-.1.4-.3-.2-.6-1.3-.5-1.1 0-1.4.3-.6.6m164 0c.7.3 1.6.2 1.9-.1.4-.3-.2-.6-1.3-.5-1.1 0-1.4.3-.6.6m10 0c.7.3 1.6.2 1.9-.1.4-.3-.2-.6-1.3-.5-1.1 0-1.4.3-.6.6m206.5 0c3.1.2 8.3.2 11.5 0 3.1-.2.5-.3-5.8-.3s-8.9.1-5.7.3"/><path fill="gray" d="M419.5 299.5c0 33 .1 46.4.2 29.7.2-16.7.2-43.7 0-60-.1-16.3-.2-2.7-.2 30.3M108 247.3c0 .2 1.5 1.6 3.3 3.3l3.2 2.9-2.9-3.3c-2.8-3-3.6-3.7-3.6-2.9m418.5.9c-.3.7-.4 21.1-.3 45.3l.3 44 .3-44.7.2-44.7 10.8-.4 10.7-.3-10.8-.2c-7.8-.1-10.9.1-11.2 1M44.3 259.7c8.2.2 21.2.2 29 0 7.8-.1 1.2-.3-14.8-.3-15.9 0-22.3.2-14.2.3m121.5 11c.6.2 1.8.2 2.5 0 .6-.3.1-.5-1.3-.5s-1.9.2-1.2.5m176 0c.7.3 1.6.2 1.9-.1.4-.3-.2-.6-1.3-.5-1.1 0-1.4.3-.6.6m-125.5 1c3.2.2 8.1.2 11 0s.3-.3-5.8-.3c-6 0-8.4.1-5.2.3m63.7-.1c8.3.8 18.8.8 18.3.1-.2-.4-5.2-.6-11.1-.5s-9.1.3-7.2.4m152.5.7c-.3.7-.4 12.9-.2 27.2l.2 26 .3-26.7.2-26.7 10.3-.4 10.2-.3-10.3-.2c-7.5-.1-10.4.1-10.7 1.1m70.2-.6 10.3.4.3 43.7.2 43.7v-88l-10.5-.1h-10.5zm50.6 0c3.1.2 8.3.2 11.5 0 3.1-.2.5-.3-5.8-.3s-8.9.1-5.7.3m-241.4 9c-1.3 1.6-1.2 1.7.4.4s2.1-2.1 1.3-2.1c-.2 0-1 .8-1.7 1.7m-177 2-2.4 2.8 2.8-2.4c2.5-2.3 3.2-3.1 2.4-3.1-.2 0-1.4 1.2-2.8 2.7m239.6.3c1 1.1 2 2 2.3 2s-.3-.9-1.3-2-2-2-2.3-2 .3.9 1.3 2m-17 12c1 1.1 2 2 2.3 2s-.3-.9-1.3-2-2-2-2.3-2 .3.9 1.3 2m-247.1 4.2-2.9 3.3 3.3-2.9c1.7-1.7 3.2-3.1 3.2-3.3 0-.8-.8-.1-3.6 2.9m12.7 9.4c0 1.1.3 1.4.6.6.3-.7.2-1.6-.1-1.9-.3-.4-.6.2-.5 1.3m86.2 3.9c0 3.3.2 4.5.4 2.7s.2-4.5 0-6-.4 0-.4 3.3m88 2.5c0 3.6.2 5 .4 3.2.2-1.7.2-4.7 0-6.5-.2-1.7-.4-.3-.4 3.3m21.8-4.4c0 1.1.3 1.4.6.6.3-.7.2-1.6-.1-1.9-.3-.4-.6.2-.5 1.3m46.1 4.9c0 1.6.2 2.2.5 1.2.2-.9.2-2.3 0-3-.3-.6-.5.1-.5 1.8m-219.9 6c-.3.9-.3 1.9.1 2.2.3.4.6-.1.6-1 0-1.5 3-1.7 31.3-2l31.2-.2-31.3-.3c-27.4-.2-31.3 0-31.9 1.3m-22.2 1.1c0 1.1.3 1.4.6.6.3-.7.2-1.6-.1-1.9-.3-.4-.6.2-.5 1.3m63.6 7.1c-.3.5 2.9.7 7.1.5 13.5-.4 15-.9 4-1-5.9-.1-10.9.1-11.1.5m-35.7 6.8c1.3 1.4 2.6 2.5 2.8 2.5.3 0-.5-1.1-1.8-2.5s-2.6-2.5-2.8-2.5c-.3 0 .5 1.1 1.8 2.5m174-2.1c0 .2.8 1 1.8 1.7 1.5 1.3 1.6 1.2.3-.4s-2.1-2.1-2.1-1.3m145.8 7.3c.6.2 1.8.2 2.5 0 .6-.3.1-.5-1.3-.5s-1.9.2-1.2.5M308 346.4c0 .2.8 1 1.8 1.7 1.5 1.3 1.6 1.2.3-.4s-2.1-2.1-2.1-1.3m-110.1 2.3c-1.3 1.6-1.2 1.7.4.4.9-.7 1.7-1.5 1.7-1.7 0-.8-.8-.3-2.1 1.3m333.1 3.7c0 .2.8 1 1.8 1.7 1.5 1.3 1.6 1.2.3-.4s-2.1-2.1-2.1-1.3m14.8 7.3c.7.3 1.6.2 1.9-.1.4-.3-.2-.6-1.3-.5-1.1 0-1.4.3-.6.6"/><g fill="#BFBFBF" stroke-width="0"><path d="M99.3 242.4c3.2 1.3 6.5 3 7.4 3.7 1.4 1.2 1.6 1.2.9 0-1-1.5-10.4-6.1-12.6-6.1-.8 0 1.1 1.1 4.3 2.4m297.9 57.3L397 360l11.8-.2 11.7-.2-11.2-.3-11.3-.4-.3-59.7-.2-59.7zM111 249.5c1.3 1.4 2.6 2.5 2.8 2.5.3 0-.5-1.1-1.8-2.5s-2.6-2.5-2.8-2.5c-.3 0 .5 1.1 1.8 2.5m437.4 9.5c0 6.9.1 9.7.3 6.2.2-3.4.2-9 0-12.5-.2-3.4-.3-.6-.3 6.3m-430.4.5c0 .5.5 1.7 1 2.5s1 1 1 .5c0-.6-.5-1.7-1-2.5s-1-1.1-1-.5m-30 1.2c.8.3 2.4 1 3.5 1.5 2 .9 2 .9.1-.6-1.1-.9-2.7-1.6-3.5-1.5-1.4 0-1.4.1-.1.6m7.5 4.7c1 1.4 1.9 2.6 2.2 2.6.7 0-1.7-3.9-2.8-4.6-.6-.3-.3.5.6 2m25.7 5.6c0 1.9.2 2.7.5 1.7.2-.9.2-2.5 0-3.5-.3-.9-.5-.1-.5 1.8M52 314v44.9l-11.2.4-11.3.3 11.8.2 11.7.2v-45.5c0-25-.2-45.5-.5-45.5s-.5 20.2-.5 45m107.8-43.3c1.2.2 3 .2 4 0 .9-.3-.1-.5-2.3-.4-2.2 0-3 .2-1.7.4m11 0c1.2.2 3 .2 4 0 .9-.3-.1-.5-2.3-.4-2.2 0-3 .2-1.7.4m164 0c1.2.2 3.2.2 4.5 0 1.2-.2.2-.4-2.3-.4s-3.5.2-2.2.4m11 0c1.2.2 3 .2 4 0 .9-.3-.1-.5-2.3-.4-2.2 0-3 .2-1.7.4m-192 1c.7.3 1.6.2 1.9-.1.4-.3-.2-.6-1.3-.5-1.1 0-1.4.3-.6.6m24 0c.7.3 1.6.2 1.9-.1.4-.3-.2-.6-1.3-.5-1.1 0-1.4.3-.6.6m31.2.4c0 .5.5.7 1 .4.6-.3 1-.8 1-1.1 0-.2-.4-.4-1-.4-.5 0-1 .5-1 1.1m23.6.2c.3 1 .9 1.5 1.2 1.2s0-1.1-.7-1.8c-1-.9-1.1-.8-.5.6m42.4-.2c0 .5.5.7 1 .4.6-.3 1-.8 1-1.1 0-.2-.4-.4-1-.4-.5 0-1 .5-1 1.1m53.8-.4c.6.2 1.8.2 2.5 0 .6-.3.1-.5-1.3-.5s-1.9.2-1.2.5m25 0c.7.3 1.6.2 1.9-.1.4-.3-.2-.6-1.3-.5-1.1 0-1.4.3-.6.6m100 17c.4 32.9.8 36 1 9 .1-14.7-.1-26.7-.5-26.7-.5 0-.7 8-.5 17.7m37.4 8c.2 25.7.6 22.8 1-9 .2-9.2 0-16.7-.4-16.7-.5 0-.7 11.6-.6 25.7m-392-22.2c0 1.6.2 2.2.5 1.2.2-.9.2-2.3 0-3-.3-.6-.5.1-.5 1.8m83.3-1.5c2.7 1.2 4.3 1.2 2.5 0-.8-.5-2.2-.9-3-.9-1 0-.8.3.5.9m176 0c2.7 1.2 4.3 1.2 2.5 0-.8-.5-2.2-.9-3-.9-1 0-.8.3.5.9m-213.7 1.6c-3.9 2.1-3.5 2.8.5.8 3.7-1.9 4.4-2.4 3.1-2.4-.5.1-2.1.8-3.6 1.6m175 0c-3.9 2.1-3.5 2.8.5.8 3.7-1.9 4.4-2.4 3.1-2.4-.5.1-2.1.8-3.6 1.6M121.2 278c0 1.9.2 2.7.5 1.7.2-.9.2-2.5 0-3.5-.3-.9-.5-.1-.5 1.8m245.8-1.7c0 .2 1.5 1.4 3.3 2.7 2 1.5 2.7 1.7 1.8.6-1.3-1.6-5.1-4.1-5.1-3.3m-228.1 2.4c-1.3 1.6-1.2 1.7.4.4s2.1-2.1 1.3-2.1c-.2 0-1 .8-1.7 1.7m59.6 4.3c2.7 3 5.1 5.7 5.3 6 .3.3 0-.4-.6-1.5s-3-3.8-5.3-6c-4.3-3.9-4.3-3.9.6 1.5m110.4-.3-3.4 3.8 3.8-3.4c2-1.9 3.7-3.6 3.7-3.8 0-.8-.8 0-4.1 3.4m-174.5-.5-1.9 2.3 2.3-1.9c2.1-1.8 2.7-2.6 1.9-2.6-.2 0-1.2 1-2.3 2.2m239.6-.8c0 .2.8 1 1.8 1.7 1.5 1.3 1.6 1.2.3-.4s-2.1-2.1-2.1-1.3m-279.6 3.8-1.9 2.3 2.3-1.9c2.1-1.8 2.7-2.6 1.9-2.6-.2 0-1.2 1-2.3 2.2m36.5 1.5c-1.3 1.6-1.2 1.7.4.4.9-.7 1.7-1.5 1.7-1.7 0-.8-.8-.3-2.1 1.3m246.1-1.3c0 .2.8 1 1.8 1.7 1.5 1.3 1.6 1.2.3-.4s-2.1-2.1-2.1-1.3m-72.7 2.8c-1.5 2-2.5 3.8-2 3.8.3 0 1.2-1.1 2.1-2.5 1.7-2.6 1.6-3.5-.1-1.3m-142.5.5c.6.2 1.8.2 2.5 0 .6-.3.1-.5-1.3-.5s-1.9.2-1.2.5m8 0c.6.2 1.8.2 2.5 0 .6-.3.1-.5-1.3-.5s-1.9.2-1.2.5m-102 1c3.4.2 9 .2 12.5 0 3.4-.2.6-.3-6.3-.3s-9.7.1-6.2.3"/><path d="M127.5 292.1c-.9 1.7-1.5 3.3-1.3 3.5.3.2 1.2-1.2 2.1-3.1 2.1-4.3 1.3-4.7-.8-.4m29-1.9c-3 1.6-6.6 5-7.7 7.3-.5 1.1.2.5 1.7-1.3s4.3-4.1 6.3-5.2c2.1-1 3.3-1.9 2.7-1.9-.5 0-1.9.5-3 1.1m183.3-.5c1.8.2 4.5.2 6 0s0-.4-3.3-.4-4.5.2-2.7.4M205.1 292c1.4 3.1 1.9 3.6 1.9 2.4 0-.6-.7-1.9-1.6-3-1.4-1.8-1.4-1.8-.3.6m146.4-.3c1.7.8 4.6 2.9 6.5 4.7l3.5 3.1-3-3.3c-2.8-3.2-7.4-6.2-9.2-6.2-.4.1.6.8 2.2 1.7m196.9-.4c-.2.7-.3 10.9-.1 22.7l.2 21.5.3-22.2.2-22.2 10.8-.4 10.7-.3-10.8-.2c-8-.1-10.9.1-11.3 1.1m-487.2 8.3c-.2 7.5.1 9.5 1.6 11.1.9 1 1.3 1.2.7.4-.5-.7-1.3-5.7-1.6-11l-.5-9.6zm54.3-6c-.9 1.5-1.2 2.3-.6 2 1.1-.7 3.5-4.6 2.8-4.6-.3 0-1.2 1.2-2.2 2.6m65.5-.1c1.3 1.4 2.6 2.5 2.8 2.5.3 0-.5-1.1-1.8-2.5s-2.6-2.5-2.8-2.5c-.3 0 .5 1.1 1.8 2.5m144.9 2.2c-1.3 1.6-1.2 1.7.4.4s2.1-2.1 1.3-2.1c-.2 0-1 .8-1.7 1.7m-215 4-2.4 2.8 2.8-2.4c2.5-2.3 3.2-3.1 2.4-3.1-.2 0-1.4 1.2-2.8 2.7m73.7-1.4c.3 1 .9 1.5 1.2 1.2s0-1.1-.7-1.8c-1-.9-1.1-.8-.5.6m-82.1 6.8c-2.7 1.6-4.6 2.9-4.2 2.9 1.3 0 8.5-3.9 9.2-5 .8-1.3 1-1.3-5 2.1m283.6-1.5c0 1.1.3 1.4.6.6.3-.7.2-1.6-.1-1.9-.3-.4-.6.2-.5 1.3M209.2 305c0 1.4.2 1.9.5 1.2.2-.6.2-1.8 0-2.5-.3-.6-.5-.1-.5 1.3m-86.1.6c0 1.1.3 1.4.6.6.3-.7.2-1.6-.1-1.9-.3-.4-.6.2-.5 1.3m33.2-.9c5.9.2 15.4.2 21 0 5.6-.1.8-.3-10.8-.3-11.5 0-16.1.2-10.2.3m140.9 2.3c0 1.4.2 1.9.5 1.2.2-.6.2-1.8 0-2.5-.3-.6-.5-.1-.5 1.3m22.9.6c0 1.1.3 1.4.6.6.3-.7.2-1.6-.1-1.9-.3-.4-.6.2-.5 1.3m-225.3 1.1c.7.3 1.6.2 1.9-.1.4-.3-.2-.6-1.3-.5-1.1 0-1.4.3-.6.6m269.4 1.3c0 1.4.2 1.9.5 1.2.2-.6.2-1.8 0-2.5-.3-.6-.5-.1-.5 1.3m23.1 5.5c0 4.4.2 6.1.4 3.7.2-2.3.2-5.9 0-8-.2-2-.4-.1-.4 4.3M90 309.9c0 .6.5 1.3 1.2 1.7.6.4.8.3.4-.4-.3-.5 0-1.3.6-1.5.8-.3.6-.6-.4-.6-1-.1-1.8.3-1.8.8m32.3 5.6c0 2.7.2 3.8.4 2.2.2-1.5.2-3.7 0-5-.2-1.2-.4 0-.4 2.8m197 0c0 2.2.2 3 .4 1.7.2-1.2.2-3 0-4-.3-.9-.5.1-.4 2.3M65 314.4c0 .2.8 1 1.8 1.7 1.5 1.3 1.6 1.2.3-.4s-2.1-2.1-2.1-1.3m29 2c0 .2.8 1 1.8 1.7 1.5 1.3 1.6 1.2.3-.4s-2.1-2.1-2.1-1.3m114.6 3.1c-.3.8-.1 1.5.4 1.5.6 0 1-.7 1-1.5s-.2-1.5-.4-1.5-.6.7-1 1.5m155.6 1.5c0 1.4.2 1.9.5 1.2.2-.6.2-1.8 0-2.5-.3-.6-.5-.1-.5 1.3M99 323c1.2 1.6 2.4 3 2.6 3 .3 0-.4-1.4-1.6-3-1.2-1.7-2.4-3-2.6-3-.3 0 .4 1.3 1.6 3m-29-1.6c0 .2.8 1 1.8 1.7 1.5 1.3 1.6 1.2.3-.4s-2.1-2.1-2.1-1.3m227.2 1.6c0 1.4.2 1.9.5 1.2.2-.6.2-1.8 0-2.5-.3-.6-.5-.1-.5 1.3m22.9.6c0 1.1.3 1.4.6.6.3-.7.2-1.6-.1-1.9-.3-.4-.6.2-.5 1.3m-197 2c0 1.1.3 1.4.6.6.3-.7.2-1.6-.1-1.9-.3-.4-.6.2-.5 1.3m23 0c0 1.1.3 1.4.6.6.3-.7.2-1.6-.1-1.9-.3-.4-.6.2-.5 1.3m344 0c0 1.1.3 1.4.6.6.3-.7.2-1.6-.1-1.9-.3-.4-.6.2-.5 1.3m-104 1c0 1.1.3 1.4.6.6.3-.7.2-1.6-.1-1.9-.3-.4-.6.2-.5 1.3m46.1 1.4c0 1.9.2 2.7.5 1.7.2-.9.2-2.5 0-3.5-.3-.9-.5-.1-.5 1.8m22.9-.4c0 1.1.3 1.4.6.6.3-.7.2-1.6-.1-1.9-.3-.4-.6.2-.5 1.3M104 330c1.2 1.6 2.4 3 2.6 3 .3 0-.4-1.4-1.6-3-1.2-1.7-2.4-3-2.6-3-.3 0 .4 1.3 1.6 3m194.1-1.4c0 1.1.3 1.4.6.6.3-.7.2-1.6-.1-1.9-.3-.4-.6.2-.5 1.3M75 328.4c0 .2.8 1 1.8 1.7 1.5 1.3 1.6 1.2.3-.4s-2.1-2.1-2.1-1.3m133.2 1.6c0 1.4.2 1.9.5 1.2.2-.6.2-1.8 0-2.5-.3-.6-.5-.1-.5 1.3m113.8-1.1c0 .6.4 1.3 1 1.6s.7-.1.4-.9c-.7-1.8-1.4-2.1-1.4-.7m165.6 2.8c-.6 1.4-.5 1.5.5.6.7-.7 1-1.5.7-1.8s-.9.2-1.2 1.2m-302.6.1c0 .6-1.2 2.5-2.7 4.4-2.2 2.7-2.3 2.9-.4 1.3 2.7-2.3 4.5-5.4 3.7-6.3-.3-.3-.6 0-.6.6m143.2 4.4c2 2.1 4.3 3.8 5 3.8s.4-.6-.7-1.2-3.4-2.2-5-3.7c-1.7-1.4-1.4-.9.7 1.1m27.8 0c-1.9 1.6-2.6 2.6-1.5 2 1.8-.9 6.4-5.3 5.4-5.2-.2.1-2 1.5-3.9 3.2m77.1-1.6c0 1.1.3 1.4.6.6.3-.7.2-1.6-.1-1.9-.3-.4-.6.2-.5 1.3m-326.1-.2c0 .2.8 1 1.8 1.7 1.5 1.3 1.6 1.2.3-.4s-2.1-2.1-2.1-1.3m377.4 1.8-1.9 2.3 2.3-1.9c2.1-1.8 2.7-2.6 1.9-2.6-.2 0-1.2 1-2.3 2.2M80 335.4c0 .2.8 1 1.8 1.7 1.5 1.3 1.6 1.2.3-.4s-2.1-2.1-2.1-1.3m302.1 2.3c-1 2.6-1 2.7.4.9.8-1.1 1.5-2.3 1.5-2.8 0-1.5-.7-.8-1.9 1.9m-81.1-.8c0 .6.4 1.3 1 1.6s.7-.1.4-.9c-.7-1.8-1.4-2.1-1.4-.7m160 1c1.4 1.1 3 2.1 3.5 2.1 1.1 0-.7-1.4-4-3.1-1.3-.7-1.2-.3.5 1m-306.1 1c1.3 1.2 2.8 2.1 3.4 2.1 1.2 0 1.1 0-2.8-2.4l-3-1.7zm371.3 1.1c0 1.9.2 2.7.5 1.7.2-.9.2-2.5 0-3.5-.3-.9-.5-.1-.5 1.8m-46.2-1c-.9.6-1 1-.3 1 .6 0 1.5-.5 1.8-1 .8-1.2.4-1.2-1.5 0m-303 1c-.9.6-1 1-.3 1 .6 0 1.5-.5 1.8-1 .8-1.2.4-1.2-1.5 0m126.9 1.8c.5 1 1.8 2.5 2.7 3.3 1.1.9.9.2-.6-1.9-2.6-3.5-3.6-4.2-2.1-1.4m31.9-1.1c.7.3 1.6.2 1.9-.1.4-.3-.2-.6-1.3-.5-1.1 0-1.4.3-.6.6m12 0c.7.3 1.6.2 1.9-.1.4-.3-.2-.6-1.3-.5-1.1 0-1.4.3-.6.6m87.2-.3c0 1.1 3 6.6 3.6 6.6.2 0-.3-1.5-1.2-3.3-1.9-3.6-2.4-4.4-2.4-3.3m31.8.3c.7.3 1.6.2 1.9-.1.4-.3-.2-.6-1.3-.5-1.1 0-1.4.3-.6.6m8 0c.6.2 1.8.2 2.5 0 .6-.3.1-.5-1.3-.5s-1.9.2-1.2.5m82.5 0c2.6.2 6.7.2 9 0s.2-.3-4.8-.3c-4.9 0-6.8.1-4.2.3m-445.3.7c0 .2.8 1 1.8 1.7 1.5 1.3 1.6 1.2.3-.4s-2.1-2.1-2.1-1.3m48.8.3c.7.3 1.6.2 1.9-.1.4-.3-.2-.6-1.3-.5-1.1 0-1.4.3-.6.6m12 0c.7.3 1.6.2 1.9-.1.4-.3-.2-.6-1.3-.5-1.1 0-1.4.3-.6.6m168.5 0c.9.2 2.3.2 3 0 .6-.3-.1-.5-1.8-.5-1.6 0-2.2.2-1.2.5m-256.3.7c0 .2.8 1 1.8 1.7 1.5 1.3 1.6 1.2.3-.4s-2.1-2.1-2.1-1.3m81.3.3c.9.2 2.3.2 3 0 .6-.3-.1-.5-1.8-.5-1.6 0-2.2.2-1.2.5m-31.8 5.3c2.1 2.2 4.1 4 4.4 4s-1.3-1.8-3.4-4-4.1-4-4.4-4 1.3 1.8 3.4 4m66.4-2.3c-1.3 1.6-1.2 1.7.4.4.9-.7 1.7-1.5 1.7-1.7 0-.8-.8-.3-2.1 1.3m173.6 2.5-4 4.3 4.3-4c3.9-3.6 4.7-4.5 3.9-4.5-.2 0-2.1 1.9-4.2 4.2M90 349c1.2 1.6 2.4 3 2.6 3 .3 0-.4-1.4-1.6-3-1.2-1.7-2.4-3-2.6-3-.3 0 .4 1.3 1.6 3m27-.6c0 .2.8 1 1.8 1.7 1.5 1.3 1.6 1.2.3-.4s-2.1-2.1-2.1-1.3m325 3.1c1.9 1.9 3.6 3.5 3.9 3.5s-1-1.6-2.9-3.5-3.6-3.5-3.9-3.5 1 1.6 2.9 3.5m-129.5-.5c1 1.1 2 2 2.3 2s-.3-.9-1.3-2-2-2-2.3-2 .3.9 1.3 2m-120.9 2.6c-2.6 1.9-4.4 3.4-3.9 3.4 1.1 0 9.3-5.7 9.3-6.5 0-.7.2-.8-5.4 3.1m295.4.6c-1.9 1.6-2.6 2.6-1.5 2 1.8-.9 6.4-5.3 5.4-5.2-.2.1-2 1.5-3.9 3.2m-391.8 2 2.3 3.8h13.8c11 0 13.7-.3 13.7-1.4 0-.7-.8-2-1.7-2.7-1.5-1.1-1.6-1.1-.5.1.6.8 1.2 1.8 1.2 2.2s-5.7.8-12.7.8H98.5l-2.8-3.2-2.8-3.3zm220.8-2.7c0 .9 10.3 5.5 12 5.4.8 0-.1-.6-2.1-1.4-2-.7-5-2-6.7-2.9-1.8-.9-3.2-1.4-3.2-1.1m177.2 1.5c0 1.4.2 1.9.5 1.2.2-.6.2-1.8 0-2.5-.3-.6-.5-.1-.5 1.3m-348.8.4c1.1.9 2.4 1.6 3 1.6 1.2 0 .7-.5-2.4-1.9-2.4-1.1-2.4-1.1-.6.3m219.6.1c-1.4.8-2 1.4-1.4 1.5.5 0 1.9-.7 3-1.5 2.4-1.8 1.6-1.9-1.6 0m84.4.9c1.1.9 2.4 1.6 3 1.6 1.2 0 .7-.5-2.4-1.9-2.4-1.1-2.4-1.1-.6.3M182.5 358c-1.3.6-1.5.9-.5.9.8 0 2.2-.4 3-.9 1.8-1.2.2-1.2-2.5 0m297.5 0c-.8.5-1 1-.5 1 .6 0 1.7-.5 2.5-1s1.1-1 .5-1c-.5 0-1.7.5-2.5 1m-226 1-13.5.6 13.8.2c8.6.1 13.7-.2 13.7-.8s-.1-.9-.2-.8c-.2.1-6.4.5-13.8.8m240 .2c0 .5 4.6.7 10.3.6 10.6-.1 9.4-.6-3.1-1-3.9-.2-7.2 0-7.2.4m-337.2.5c.7.3 1.6.2 1.9-.1.4-.3-.2-.6-1.3-.5-1.1 0-1.4.3-.6.6m21 0c.7.3 1.6.2 1.9-.1.4-.3-.2-.6-1.3-.5-1.1 0-1.4.3-.6.6m153 0c.6.2 1.8.2 2.5 0 .6-.3.1-.5-1.3-.5s-1.9.2-1.2.5m21 0c.6.2 1.8.2 2.5 0 .6-.3.1-.5-1.3-.5s-1.9.2-1.2.5m105 0c.7.3 1.6.2 1.9-.1.4-.3-.2-.6-1.3-.5-1.1 0-1.4.3-.6.6m19 0c.7.3 1.6.2 1.9-.1.4-.3-.2-.6-1.3-.5-1.1 0-1.4.3-.6.6m67 0c.7.3 1.6.2 1.9-.1.4-.3-.2-.6-1.3-.5-1.1 0-1.4.3-.6.6"/></g></svg>